<svg width="40" height="38" viewBox="0 0 40 38" fill="#fff" xmlns="http://www.w3.org/2000/svg">
<path d="M11.0723 7.30005C11.0723 8.40462 10.1768 9.30005 9.07227 9.30005C7.9677 9.30005 7.07227 8.40462 7.07227 7.30005C7.07227 6.19548 7.9677 5.30005 9.07227 5.30005C10.1768 5.30005 11.0723 6.19548 11.0723 7.30005Z" fill="#fff"/>
<path d="M18.998 7.32593C18.998 8.4305 18.1026 9.32593 16.998 9.32593C15.8935 9.32593 14.998 8.4305 14.998 7.32593C14.998 6.22136 15.8935 5.32593 16.998 5.32593C18.1026 5.32593 18.998 6.22136 18.998 7.32593Z" fill="#fff"/>
<path d="M34 7C34 8.10457 33.1046 9 32 9C30.8954 9 30 8.10457 30 7C30 5.89543 30.8954 5 32 5C33.1046 5 34 5.89543 34 7Z" fill="#fff"/>
<path d="M21 15C21 16.1046 20.1046 17 19 17C17.8954 17 17 16.1046 17 15C17 13.8954 17.8954 13 19 13C20.1046 13 21 13.8954 21 15Z" fill="#fff"/>
<path d="M26 22C26 23.1046 25.1046 24 24 24C22.8954 24 22 23.1046 22 22C22 20.8954 22.8954 20 24 20C25.1046 20 26 20.8954 26 22Z" fill="#fff"/>
<path d="M8 31C8 32.1046 7.10457 33 6 33C4.89543 33 4 32.1046 4 31C4 29.8954 4.89543 29 6 29C7.10457 29 8 29.8954 8 31Z" fill="#fff"/>
<path d="M30 31C30 32.1046 29.1046 33 28 33C26.8954 33 26 32.1046 26 31C26 29.8954 26.8954 29 28 29C29.1046 29 30 29.8954 30 31Z" fill="#fff"/>
<rect width="2.06897" height="38" rx="1.03448" fill="#fff"/>
<rect x="37.9307" width="2.06897" height="38" rx="1.03448" fill="#fff"/>
<rect x="2.06934" y="6.86108" width="35.8621" height="1.05556" fill="#fff"/>
<rect x="2.06934" y="30.6111" width="35.8621" height="1.05556" fill="#fff"/>
<rect x="2.06934" y="21.6389" width="35.8621" height="1.05556" fill="#fff"/>
<path d="M12 22C12 23.1046 11.1046 24 10 24C8.89543 24 8 23.1046 8 22C8 20.8954 8.89543 20 10 20C11.1046 20 12 20.8954 12 22Z" fill="#fff"/>
<rect x="2.06934" y="14.7778" width="35.8621" height="1.05556" fill="#fff"/>
<path d="M32 15C32 16.1046 31.1046 17 30 17C28.8954 17 28 16.1046 28 15C28 13.8954 28.8954 13 30 13C31.1046 13 32 13.8954 32 15Z" fill="#fff"/>
</svg>
