<svg width="67" height="68" viewBox="0 0 67 68" fill="none" xmlns="http://www.w3.org/2000/svg">
<path d="M0.5 0.5H66.5V67.5H0.5V0.5Z" fill="#0D0D0D"/>
<path d="M32.0425 23.9572C33.0653 22.911 34.6112 22.2786 36.0686 22.6638C37.2346 22.9604 37.9763 24.4179 37.4896 25.5188C37.0212 26.4739 35.4674 26.362 35.1369 25.3522C34.8064 24.6209 35.4518 24.0119 35.8318 23.4653C35.0354 22.7861 33.8773 23.1634 33.4088 24.0327C32.2585 25.9716 31.6573 28.1838 31.0925 30.3517C32.2403 30.3543 33.3854 30.3543 34.5305 30.3543C34.3561 30.7005 34.1844 31.0492 34.01 31.3954C32.9612 31.3954 31.9123 31.3954 30.8635 31.3954C30.1712 34.6824 29.7236 38.0605 28.4275 41.181C27.7274 42.831 26.6682 44.5331 24.914 45.1915C23.8132 45.5767 22.3427 45.6314 21.5333 44.6502C20.9764 43.9423 20.6927 42.6983 21.5099 42.0711C22.2308 41.4673 23.454 41.9539 23.5789 42.8805C23.7247 43.5493 23.1339 44.0256 22.8164 44.5305C23.2588 44.7751 23.7611 45.0484 24.2712 44.8116C25.2862 44.429 25.7208 43.3177 26.0331 42.3652C27.0586 38.7632 27.4854 35.0259 28.3963 31.3954C27.3188 31.3954 26.2387 31.3954 25.1613 31.3954C25.3357 31.0466 25.5074 30.7005 25.6818 30.3543C26.6838 30.3543 27.6858 30.3569 28.6852 30.3517C29.4191 28.0563 30.3352 25.7114 32.0425 23.9572Z" fill="white"/>
<path d="M37.2451 30.7421C38.1039 30.1592 39.4052 30.2372 40.0923 31.0518C40.7845 31.8821 40.9381 32.996 41.2114 34.0058C42.091 33.0298 42.9551 32.0382 43.8321 31.0623C44.1783 30.6979 44.5999 30.2164 45.1647 30.3778C45.9324 30.5183 46.2707 31.601 45.6669 32.1241C45.2766 32.5926 44.6754 32.3297 44.1783 32.2542C43.2778 33.2458 42.3877 34.2504 41.495 35.2498C41.7423 36.3481 41.849 37.488 42.2654 38.5368C42.4658 39.1172 43.2283 39.4009 43.741 39.0417C44.3657 38.6201 44.6233 37.868 44.9799 37.2381C45.3182 37.2902 45.6591 37.3396 46.0001 37.3943C45.4067 38.5498 44.7795 39.8121 43.6057 40.4757C42.713 40.9988 41.4352 40.788 40.821 39.937C40.2224 39.1172 40.0636 38.084 39.8086 37.1236C38.9367 38.0996 38.0727 39.0833 37.1982 40.0567C36.8521 40.4211 36.4305 40.8947 35.8657 40.7412C35.1005 40.5928 34.7648 39.5388 35.353 39.0027C35.7434 38.5238 36.3524 38.7841 36.8547 38.8647C37.7526 37.8758 38.64 36.8764 39.5301 35.877C39.2829 34.7865 39.1736 33.6518 38.7676 32.603C38.575 32.0096 37.802 31.7103 37.2815 32.0773C36.6595 32.4989 36.4044 33.251 36.0505 33.8808C35.7095 33.8288 35.3712 33.7767 35.0303 33.7247C35.5924 32.6238 36.1806 31.4422 37.2451 30.7421Z" fill="white"/>
<path d="M0.5 0.5H66.5V67.5H0.5V0.5Z" stroke="#6786F9"/>
</svg>
