<svg width="965" height="224" viewBox="0 0 965 224" fill="none" xmlns="http://www.w3.org/2000/svg">
<g filter="url(#filter0_bd_1176_11242)">
<path d="M24 24C24 19.5817 27.5817 16 32 16H933C937.418 16 941 19.5817 941 24V184C941 188.418 937.418 192 933 192H32C27.5817 192 24 188.418 24 184V24Z" fill="#0F0F0F" fill-opacity="0.71" shape-rendering="crispEdges"/>
<path d="M24.5 24C24.5 19.8579 27.8579 16.5 32 16.5H933C937.142 16.5 940.5 19.8579 940.5 24V184C940.5 188.142 937.142 191.5 933 191.5H32C27.8579 191.5 24.5 188.142 24.5 184V24Z" stroke="#25282C" shape-rendering="crispEdges"/>
</g>
<g filter="url(#filter1_d_1176_11242)">
<rect x="113" y="111" width="60" height="60" rx="8" fill="#0D0D0D"/>
<path d="M130.338 143.508C130.64 143.522 130.936 143.422 131.168 143.228C131.272 143.135 131.355 143.021 131.411 142.893C131.468 142.766 131.498 142.628 131.498 142.488H133.218C133.215 142.942 133.083 143.386 132.838 143.768C132.593 144.154 132.247 144.465 131.838 144.668C131.391 144.889 130.897 144.999 130.398 144.988C129.967 145.009 129.537 144.937 129.137 144.776C128.736 144.616 128.375 144.371 128.078 144.058C127.476 143.334 127.173 142.408 127.228 141.468V141.348C127.18 140.429 127.48 139.526 128.068 138.818C128.363 138.502 128.724 138.253 129.124 138.089C129.525 137.925 129.956 137.85 130.388 137.868C131.147 137.83 131.891 138.092 132.458 138.598C132.718 138.85 132.923 139.154 133.059 139.49C133.195 139.826 133.26 140.186 133.248 140.548H131.498C131.499 140.227 131.382 139.918 131.168 139.678C131.059 139.568 130.927 139.482 130.783 139.425C130.638 139.368 130.483 139.342 130.328 139.348C130.135 139.33 129.94 139.365 129.764 139.447C129.588 139.53 129.438 139.658 129.328 139.818C129.071 140.278 128.956 140.803 128.998 141.328V141.518C128.955 142.05 129.07 142.582 129.328 143.048C129.441 143.208 129.593 143.334 129.771 143.415C129.948 143.496 130.144 143.528 130.338 143.508ZM133.978 141.368C133.967 140.74 134.1 140.117 134.368 139.548C134.611 139.031 135.005 138.598 135.498 138.308C136.022 138.01 136.616 137.858 137.218 137.868C137.634 137.851 138.049 137.918 138.439 138.064C138.829 138.21 139.186 138.432 139.488 138.718C140.103 139.333 140.461 140.159 140.488 141.028V141.498C140.53 142.428 140.211 143.338 139.598 144.038C139.296 144.356 138.928 144.605 138.521 144.769C138.114 144.933 137.677 145.008 137.238 144.988C136.797 145.009 136.356 144.935 135.945 144.771C135.535 144.607 135.164 144.357 134.858 144.038C134.24 143.322 133.925 142.393 133.978 141.448V141.368ZM135.808 141.498C135.777 142.021 135.906 142.541 136.178 142.988C136.302 143.148 136.462 143.278 136.644 143.367C136.826 143.456 137.026 143.502 137.228 143.502C137.431 143.502 137.631 143.456 137.813 143.367C137.995 143.278 138.154 143.148 138.278 142.988C138.565 142.492 138.694 141.92 138.648 141.348C138.681 140.828 138.552 140.311 138.278 139.868C138.162 139.696 138.003 139.557 137.817 139.465C137.632 139.372 137.425 139.328 137.218 139.338C137.021 139.336 136.827 139.382 136.653 139.472C136.478 139.563 136.329 139.696 136.218 139.858C135.912 140.349 135.759 140.92 135.778 141.498H135.808ZM145.328 142.988C145.328 142.878 145.297 142.77 145.239 142.676C145.181 142.582 145.097 142.507 144.998 142.458C144.662 142.287 144.301 142.169 143.928 142.108C142.298 141.768 141.478 141.108 141.478 140.028C141.475 139.731 141.542 139.438 141.674 139.172C141.806 138.906 142 138.675 142.238 138.498C142.813 138.066 143.521 137.85 144.238 137.888C144.989 137.847 145.731 138.066 146.338 138.508C146.586 138.693 146.787 138.935 146.922 139.214C147.058 139.492 147.125 139.799 147.118 140.108H145.258C145.263 139.987 145.243 139.866 145.2 139.753C145.157 139.64 145.092 139.536 145.008 139.448C144.9 139.356 144.774 139.287 144.638 139.244C144.503 139.201 144.36 139.185 144.218 139.198C143.961 139.182 143.706 139.256 143.498 139.408C143.417 139.47 143.352 139.551 143.309 139.643C143.265 139.735 143.245 139.836 143.248 139.938C143.247 140.037 143.273 140.135 143.322 140.221C143.371 140.307 143.442 140.379 143.528 140.428C143.84 140.594 144.179 140.706 144.528 140.758C144.918 140.83 145.303 140.93 145.678 141.058C146.093 141.159 146.463 141.396 146.728 141.731C146.992 142.067 147.137 142.481 147.138 142.908C147.142 143.209 147.07 143.506 146.928 143.772C146.786 144.038 146.58 144.263 146.328 144.428C145.714 144.839 144.986 145.042 144.248 145.008C143.721 145.021 143.198 144.915 142.718 144.698C142.297 144.521 141.933 144.23 141.668 143.858C141.419 143.523 141.285 143.116 141.288 142.698H143.018C143.022 142.843 143.057 142.984 143.121 143.114C143.185 143.243 143.276 143.357 143.388 143.448C143.651 143.633 143.968 143.724 144.288 143.708C144.566 143.726 144.842 143.656 145.078 143.508C145.159 143.448 145.224 143.37 145.267 143.279C145.311 143.189 145.332 143.089 145.328 142.988Z" fill="white"/>
<path d="M156.778 138.988V142.988H152.778V138.988H156.778ZM158.778 136.988H150.778V144.988H158.778V136.988Z" fill="white"/>
</g>
<g filter="url(#filter2_d_1176_11242)">
<rect x="40" y="111" width="60" height="60" rx="8" fill="#0D0D0D"/>
<path d="M60.2051 143.859C60.2052 143.749 60.1743 143.641 60.116 143.547C60.0576 143.453 59.9742 143.378 59.8751 143.329C59.5335 143.15 59.1656 143.025 58.7851 142.959C57.1551 142.619 56.3351 141.959 56.3351 140.879C56.332 140.582 56.3992 140.289 56.5313 140.023C56.6634 139.757 56.8566 139.526 57.0951 139.349C57.6695 138.917 58.3775 138.701 59.0951 138.739C59.8457 138.698 60.5875 138.917 61.1951 139.359C61.4434 139.544 61.6438 139.786 61.7795 140.065C61.9152 140.343 61.9823 140.65 61.9751 140.959H60.1351C60.1395 140.838 60.1197 140.717 60.0767 140.604C60.0338 140.491 59.9687 140.387 59.8851 140.299C59.7767 140.207 59.651 140.138 59.5153 140.095C59.3797 140.052 59.2368 140.036 59.0951 140.049C58.8379 140.033 58.5831 140.107 58.3751 140.259C58.2943 140.321 58.2294 140.402 58.1859 140.494C58.1424 140.586 58.1216 140.687 58.1251 140.789C58.1242 140.888 58.1497 140.986 58.1989 141.072C58.2481 141.158 58.3193 141.23 58.4051 141.279C58.7174 141.445 59.0556 141.557 59.4051 141.609C59.7952 141.681 60.1796 141.782 60.5551 141.909C60.9703 142.01 61.3398 142.247 61.6045 142.582C61.8691 142.918 62.0137 143.332 62.0151 143.759C62.0188 144.06 61.9466 144.357 61.805 144.623C61.6634 144.889 61.4571 145.114 61.2051 145.279C60.5914 145.69 59.8626 145.893 59.1251 145.859C58.5983 145.872 58.0754 145.766 57.5951 145.549C57.1922 145.364 56.8467 145.074 56.5951 144.709C56.3457 144.374 56.2122 143.967 56.2151 143.549H57.9451C57.949 143.694 57.9841 143.835 58.048 143.965C58.1118 144.094 58.203 144.208 58.3151 144.299C58.5778 144.484 58.8945 144.575 59.2151 144.559C59.4929 144.577 59.7692 144.507 60.0051 144.359C60.0739 144.296 60.1276 144.219 60.1623 144.132C60.1969 144.046 60.2115 143.952 60.2051 143.859ZM63.1651 137.089C63.1606 136.963 63.1823 136.838 63.2288 136.721C63.2753 136.604 63.3455 136.498 63.4351 136.409C63.535 136.315 63.653 136.243 63.7821 136.196C63.9111 136.15 64.0483 136.13 64.1851 136.139C64.322 136.13 64.4592 136.15 64.5882 136.196C64.7172 136.243 64.8353 136.315 64.9351 136.409C65.0281 136.496 65.1012 136.601 65.1496 136.719C65.1979 136.836 65.2203 136.962 65.2151 137.089C65.2204 137.218 65.1981 137.346 65.1498 137.465C65.1015 137.584 65.0283 137.691 64.9351 137.779C64.7267 137.957 64.4589 138.05 64.1851 138.039C63.9143 138.05 63.6495 137.957 63.4451 137.779C63.3519 137.691 63.2787 137.584 63.2304 137.465C63.1821 137.346 63.1599 137.218 63.1651 137.089ZM65.1051 145.739H63.2651V138.859H65.1051V145.739ZM68.3051 138.859L68.3651 139.649C68.6015 139.348 68.9061 139.108 69.2539 138.948C69.6017 138.788 69.9827 138.713 70.3651 138.729C70.6676 138.705 70.9715 138.751 71.2539 138.861C71.5363 138.972 71.7898 139.146 71.9951 139.369C72.3924 139.928 72.5865 140.605 72.5451 141.289V145.729H70.6751V141.329C70.7033 141.024 70.6138 140.72 70.4251 140.479C70.187 140.284 69.8816 140.191 69.5751 140.219C69.3396 140.211 69.1063 140.268 68.9014 140.385C68.6966 140.501 68.5282 140.672 68.4151 140.879V145.729H66.5851V138.859H68.3051Z" fill="white"/>
<path d="M81.7852 139.859V143.859H77.7852V139.859H81.7852ZM83.7852 137.859H75.7852V145.859H83.7852V137.859Z" fill="white"/>
</g>
<g filter="url(#filter3_d_1176_11242)">
<rect x="260" y="111" width="60" height="60" rx="8" fill="#0D0D0D"/>
<path d="M278.205 142.998C278.205 142.888 278.174 142.78 278.116 142.686C278.058 142.592 277.974 142.517 277.875 142.468C277.533 142.288 277.166 142.164 276.785 142.098C275.155 141.758 274.335 141.098 274.335 140.018C274.332 139.721 274.399 139.428 274.531 139.162C274.663 138.896 274.857 138.665 275.095 138.488C275.669 138.056 276.378 137.84 277.095 137.878C277.846 137.837 278.588 138.056 279.195 138.498C279.443 138.683 279.644 138.925 279.779 139.203C279.915 139.482 279.982 139.789 279.975 140.098H278.135C278.14 139.977 278.12 139.856 278.077 139.743C278.034 139.63 277.969 139.526 277.885 139.438C277.777 139.346 277.651 139.277 277.515 139.234C277.38 139.191 277.237 139.175 277.095 139.188C276.838 139.172 276.583 139.246 276.375 139.398C276.294 139.46 276.229 139.541 276.186 139.633C276.142 139.725 276.122 139.826 276.125 139.928C276.124 140.027 276.15 140.125 276.199 140.211C276.248 140.297 276.319 140.369 276.405 140.418C276.717 140.584 277.056 140.695 277.405 140.748C277.795 140.82 278.18 140.92 278.555 141.048C278.97 141.149 279.34 141.386 279.604 141.721C279.869 142.057 280.014 142.471 280.015 142.898C280.019 143.199 279.947 143.496 279.805 143.762C279.663 144.028 279.457 144.253 279.205 144.418C278.591 144.829 277.863 145.032 277.125 144.998C276.598 145.011 276.075 144.905 275.595 144.688C275.192 144.503 274.847 144.213 274.595 143.848C274.346 143.513 274.212 143.106 274.215 142.688H275.945C275.949 142.833 275.984 142.974 276.048 143.104C276.112 143.233 276.203 143.347 276.315 143.438C276.578 143.623 276.895 143.714 277.215 143.698C277.493 143.716 277.769 143.646 278.005 143.498C278.074 143.435 278.128 143.358 278.162 143.271C278.197 143.185 278.212 143.091 278.205 142.998ZM284.335 144.998C283.885 145.016 283.435 144.944 283.012 144.786C282.59 144.628 282.203 144.388 281.875 144.078C281.556 143.754 281.307 143.367 281.143 142.942C280.98 142.517 280.906 142.063 280.925 141.608V141.428C280.912 140.789 281.049 140.155 281.325 139.578C281.573 139.058 281.965 138.621 282.455 138.318C282.965 138.021 283.546 137.869 284.135 137.878C284.546 137.857 284.957 137.926 285.338 138.079C285.72 138.233 286.064 138.468 286.345 138.768C286.925 139.475 287.215 140.376 287.155 141.288V141.998H282.785C282.827 142.412 283.019 142.796 283.325 143.078C283.635 143.354 284.041 143.497 284.455 143.478C284.773 143.491 285.09 143.428 285.378 143.294C285.667 143.16 285.92 142.959 286.115 142.708L287.015 143.708C286.731 144.107 286.344 144.421 285.895 144.618C285.41 144.86 284.877 144.99 284.335 144.998ZM284.125 139.358C283.959 139.353 283.793 139.383 283.64 139.446C283.486 139.51 283.348 139.606 283.235 139.728C282.984 140.03 282.828 140.398 282.785 140.788H285.335V140.638C285.347 140.292 285.229 139.953 285.005 139.688C284.889 139.576 284.75 139.489 284.599 139.433C284.448 139.376 284.287 139.351 284.125 139.358ZM291.055 143.518C291.357 143.534 291.654 143.434 291.885 143.238C291.989 143.145 292.072 143.031 292.128 142.903C292.185 142.776 292.215 142.638 292.215 142.498H293.935C293.932 142.952 293.8 143.396 293.555 143.778C293.31 144.164 292.964 144.475 292.555 144.678C292.099 144.904 291.594 145.013 291.085 144.998C290.658 145.016 290.231 144.943 289.834 144.782C289.438 144.622 289.08 144.378 288.785 144.068C288.183 143.344 287.88 142.418 287.935 141.478V141.358C287.89 140.438 288.193 139.535 288.785 138.828C289.08 138.512 289.441 138.263 289.841 138.099C290.242 137.935 290.673 137.86 291.105 137.878C291.864 137.84 292.608 138.102 293.175 138.608C293.435 138.86 293.64 139.164 293.776 139.5C293.912 139.836 293.977 140.196 293.965 140.558H292.215C292.216 140.237 292.099 139.928 291.885 139.688C291.776 139.577 291.645 139.491 291.5 139.434C291.355 139.377 291.2 139.351 291.045 139.358C290.852 139.34 290.657 139.374 290.481 139.457C290.305 139.54 290.155 139.668 290.045 139.828C289.812 140.295 289.722 140.82 289.785 141.338V141.528C289.742 142.06 289.857 142.592 290.115 143.058C290.221 143.207 290.363 143.327 290.527 143.407C290.691 143.487 290.873 143.526 291.055 143.518Z" fill="white"/>
<path d="M303.785 138.998V142.998H299.785V138.998H303.785ZM305.785 136.998H297.785V144.998H305.785V136.998Z" fill="white"/>
</g>
<g filter="url(#filter4_d_1176_11242)">
<rect x="186" y="111" width="60" height="60" rx="8" fill="#0D0D0D"/>
<path d="M204.4 136.65V138.33H205.58V139.67H204.4V143.1C204.383 143.295 204.436 143.491 204.55 143.65C204.627 143.714 204.717 143.762 204.813 143.789C204.91 143.817 205.011 143.824 205.11 143.81C205.286 143.827 205.464 143.827 205.64 143.81V145.2C205.269 145.303 204.884 145.347 204.5 145.33C204.232 145.371 203.959 145.349 203.701 145.266C203.443 145.183 203.208 145.042 203.014 144.853C202.821 144.664 202.673 144.433 202.584 144.177C202.495 143.921 202.466 143.649 202.5 143.38V139.68H201.5V138.33H202.5V136.65H204.4ZM210.58 145.21C210.484 145.015 210.42 144.805 210.39 144.59C210.173 144.833 209.906 145.025 209.607 145.152C209.308 145.28 208.985 145.341 208.66 145.33C208.05 145.353 207.454 145.146 206.99 144.75C206.782 144.576 206.614 144.359 206.498 144.114C206.382 143.869 206.321 143.601 206.32 143.33C206.308 143.005 206.376 142.683 206.517 142.39C206.658 142.097 206.869 141.843 207.13 141.65C207.833 141.194 208.662 140.97 209.5 141.01H210.35V140.62C210.366 140.341 210.276 140.067 210.1 139.85C209.999 139.752 209.878 139.676 209.745 139.628C209.612 139.579 209.471 139.56 209.33 139.57C209.068 139.554 208.809 139.632 208.6 139.79C208.514 139.866 208.446 139.96 208.401 140.066C208.356 140.171 208.335 140.285 208.34 140.4H206.5C206.498 140.004 206.624 139.618 206.86 139.3C207.131 138.943 207.494 138.666 207.91 138.5C208.388 138.301 208.902 138.203 209.42 138.21C210.142 138.175 210.852 138.403 211.42 138.85C211.673 139.072 211.872 139.348 212.002 139.658C212.132 139.968 212.189 140.304 212.17 140.64V143.64C212.142 144.148 212.235 144.655 212.44 145.12V145.23L210.58 145.21ZM209.06 143.93C209.321 143.932 209.578 143.87 209.81 143.75C210.027 143.644 210.206 143.473 210.32 143.26V142.08H209.63C208.71 142.08 208.22 142.4 208.17 143.03V143.14C208.167 143.247 208.187 143.353 208.229 143.451C208.27 143.549 208.332 143.638 208.41 143.71C208.594 143.858 208.824 143.936 209.06 143.93ZM215.25 138.33L215.31 139.12C215.546 138.819 215.851 138.578 216.199 138.418C216.547 138.258 216.928 138.183 217.31 138.2C217.611 138.178 217.913 138.224 218.193 138.334C218.474 138.445 218.726 138.618 218.93 138.84C219.337 139.399 219.538 140.08 219.5 140.77V145.21H217.62V140.81C217.648 140.505 217.559 140.201 217.37 139.96C217.132 139.765 216.827 139.671 216.52 139.7C216.284 139.692 216.051 139.749 215.846 139.865C215.641 139.982 215.473 140.153 215.36 140.36V145.21H213.5V138.33H215.25Z" fill="white"/>
<path d="M228.5 139.33V143.33H224.5V139.33H228.5ZM230.5 137.33H222.5V145.33H230.5V137.33Z" fill="white"/>
</g>
<g filter="url(#filter5_d_1176_11242)">
<rect x="334" y="111" width="60" height="60" rx="8" fill="#0D0D0D"/>
<path d="M351.838 143.518C352.14 143.532 352.436 143.432 352.668 143.238C352.772 143.144 352.855 143.03 352.911 142.903C352.968 142.775 352.998 142.637 352.998 142.498H354.718C354.715 142.952 354.583 143.396 354.338 143.778C354.093 144.164 353.747 144.475 353.338 144.678C352.891 144.899 352.397 145.008 351.898 144.998C351.467 145.019 351.037 144.947 350.637 144.786C350.236 144.626 349.875 144.381 349.578 144.068C348.976 143.344 348.673 142.418 348.728 141.478V141.358C348.68 140.439 348.98 139.536 349.568 138.828C349.863 138.512 350.224 138.263 350.624 138.099C351.025 137.935 351.456 137.86 351.888 137.878C352.647 137.84 353.391 138.102 353.958 138.608C354.218 138.86 354.423 139.164 354.559 139.499C354.695 139.835 354.76 140.196 354.748 140.558H352.998C352.999 140.237 352.882 139.927 352.668 139.688C352.559 139.578 352.427 139.491 352.283 139.435C352.138 139.378 351.983 139.352 351.828 139.358C351.635 139.34 351.44 139.374 351.264 139.457C351.088 139.539 350.938 139.668 350.828 139.828C350.571 140.288 350.456 140.813 350.498 141.338V141.528C350.455 142.059 350.57 142.592 350.828 143.058C350.941 143.217 351.093 143.344 351.271 143.425C351.448 143.505 351.644 143.538 351.838 143.518ZM359.478 142.998C359.478 142.888 359.447 142.779 359.389 142.686C359.331 142.592 359.247 142.517 359.148 142.468C358.812 142.297 358.451 142.179 358.078 142.118C356.448 141.778 355.628 141.118 355.628 140.038C355.625 139.741 355.692 139.448 355.824 139.182C355.956 138.916 356.15 138.685 356.388 138.508C356.963 138.076 357.671 137.86 358.388 137.898C359.136 137.856 359.874 138.075 360.478 138.518C360.729 138.698 360.932 138.935 361.071 139.21C361.21 139.485 361.281 139.79 361.278 140.098H359.408C359.413 139.977 359.393 139.856 359.35 139.743C359.307 139.629 359.242 139.526 359.158 139.438C359.05 139.346 358.924 139.276 358.788 139.233C358.653 139.19 358.51 139.175 358.368 139.188C358.111 139.171 357.856 139.246 357.648 139.398C357.567 139.46 357.502 139.54 357.459 139.633C357.415 139.725 357.395 139.826 357.398 139.928C357.397 140.027 357.423 140.125 357.472 140.211C357.521 140.297 357.592 140.368 357.678 140.418C357.99 140.584 358.329 140.695 358.678 140.748C359.068 140.82 359.453 140.92 359.828 141.048C360.242 141.151 360.609 141.388 360.871 141.723C361.134 142.059 361.277 142.472 361.278 142.898C361.282 143.199 361.21 143.496 361.068 143.762C360.926 144.027 360.72 144.253 360.468 144.418C359.852 144.83 359.119 145.034 358.378 144.998C357.851 145.011 357.328 144.905 356.848 144.688C356.427 144.511 356.063 144.22 355.798 143.848C355.546 143.514 355.409 143.107 355.408 142.688H357.148C357.152 142.832 357.187 142.974 357.251 143.103C357.315 143.233 357.406 143.347 357.518 143.438C357.781 143.623 358.098 143.714 358.418 143.698C358.696 143.716 358.972 143.646 359.208 143.498C359.29 143.442 359.357 143.368 359.404 143.281C359.451 143.194 359.476 143.097 359.478 142.998ZM365.278 143.518C365.58 143.534 365.877 143.433 366.108 143.238C366.212 143.144 366.295 143.03 366.351 142.903C366.408 142.775 366.438 142.637 366.438 142.498H368.178C368.18 142.953 368.048 143.398 367.798 143.778C367.556 144.166 367.209 144.478 366.798 144.678C366.354 144.897 365.864 145.007 365.368 144.998C364.936 145.02 364.503 144.949 364.101 144.788C363.699 144.628 363.336 144.382 363.038 144.068C362.441 143.341 362.138 142.417 362.188 141.478V141.358C362.139 140.437 362.443 139.532 363.038 138.828C363.322 138.519 363.669 138.274 364.055 138.11C364.442 137.946 364.859 137.867 365.278 137.878C366.037 137.84 366.781 138.102 367.348 138.608C367.608 138.86 367.813 139.164 367.949 139.499C368.085 139.835 368.15 140.196 368.138 140.558H366.458C366.459 140.237 366.342 139.927 366.128 139.688C366.019 139.577 365.888 139.491 365.743 139.434C365.599 139.377 365.443 139.351 365.288 139.358C365.095 139.34 364.9 139.374 364.724 139.457C364.548 139.539 364.398 139.668 364.288 139.828C364.04 140.291 363.929 140.814 363.968 141.338V141.528C363.92 142.057 364.028 142.589 364.278 143.058C364.39 143.215 364.542 143.34 364.717 143.421C364.892 143.501 365.086 143.535 365.278 143.518Z" fill="white"/>
<path d="M377.278 138.998V142.998H373.278V138.998H377.278ZM379.278 136.998H371.278V144.998H379.278V136.998Z" fill="white"/>
</g>
<g filter="url(#filter6_d_1176_11242)">
<rect x="409" y="111" width="60" height="60" rx="8" fill="#0D0D0D"/>
<path d="M427.838 143.835C428.14 143.849 428.436 143.749 428.668 143.555C428.772 143.462 428.855 143.347 428.911 143.22C428.968 143.092 428.998 142.955 428.998 142.815H430.718C430.715 143.269 430.583 143.713 430.338 144.095C430.093 144.481 429.747 144.792 429.338 144.995C428.891 145.216 428.397 145.325 427.898 145.315C427.467 145.336 427.037 145.264 426.637 145.103C426.236 144.943 425.875 144.698 425.578 144.385C424.976 143.661 424.673 142.735 424.728 141.795V141.675C424.68 140.756 424.98 139.853 425.568 139.145C425.863 138.829 426.224 138.58 426.624 138.416C427.025 138.252 427.456 138.177 427.888 138.195C428.647 138.157 429.391 138.419 429.958 138.925C430.218 139.177 430.423 139.481 430.559 139.817C430.695 140.152 430.76 140.513 430.748 140.875H428.998C428.999 140.554 428.882 140.244 428.668 140.005C428.559 139.895 428.427 139.808 428.283 139.752C428.138 139.695 427.983 139.669 427.828 139.675C427.635 139.657 427.44 139.691 427.264 139.774C427.088 139.857 426.938 139.985 426.828 140.145C426.571 140.605 426.456 141.13 426.498 141.655V141.845C426.455 142.376 426.57 142.909 426.828 143.375C426.941 143.534 427.093 143.661 427.271 143.742C427.448 143.823 427.644 143.855 427.838 143.835ZM431.478 141.695C431.467 141.066 431.6 140.444 431.868 139.875C432.111 139.357 432.505 138.925 432.998 138.635C433.522 138.337 434.116 138.185 434.718 138.195C435.134 138.178 435.549 138.245 435.939 138.391C436.329 138.537 436.686 138.759 436.988 139.045C437.603 139.66 437.961 140.486 437.988 141.355V141.825C438.03 142.755 437.711 143.665 437.098 144.365C436.796 144.683 436.428 144.932 436.021 145.096C435.614 145.26 435.177 145.335 434.738 145.315C434.297 145.335 433.856 145.261 433.445 145.097C433.035 144.934 432.664 144.684 432.358 144.365C431.74 143.648 431.425 142.72 431.478 141.775V141.695ZM433.308 141.825C433.277 142.348 433.406 142.867 433.678 143.315C433.802 143.475 433.962 143.604 434.144 143.693C434.326 143.782 434.526 143.829 434.728 143.829C434.931 143.829 435.131 143.782 435.313 143.693C435.495 143.604 435.654 143.475 435.778 143.315C436.065 142.819 436.194 142.247 436.148 141.675C436.181 141.155 436.052 140.638 435.778 140.195C435.662 140.023 435.503 139.884 435.317 139.791C435.132 139.699 434.925 139.655 434.718 139.665C434.521 139.662 434.327 139.708 434.153 139.799C433.978 139.89 433.829 140.022 433.718 140.185C433.412 140.676 433.259 141.247 433.278 141.825H433.308ZM441.278 136.635V138.315H442.458V139.655H441.278V143.085C441.261 143.28 441.314 143.476 441.428 143.635C441.505 143.699 441.595 143.747 441.691 143.774C441.788 143.802 441.889 143.809 441.988 143.795C442.164 143.812 442.342 143.812 442.518 143.795V145.185C442.158 145.294 441.784 145.348 441.408 145.345C441.141 145.386 440.867 145.364 440.609 145.281C440.352 145.198 440.116 145.057 439.923 144.868C439.729 144.679 439.581 144.448 439.492 144.192C439.403 143.936 439.374 143.664 439.408 143.395V139.695H438.408V138.315H439.408V136.635H441.278Z" fill="white"/>
<path d="M451.278 139.315V143.315H447.278V139.315H451.278ZM453.278 137.315H445.278V145.315H453.278V137.315Z" fill="white"/>
</g>
<g filter="url(#filter7_d_1176_11242)">
<rect x="484" y="111" width="60" height="60" rx="8" fill="#0D0D0D"/>
<path d="M517.285 138.303H515.285V137.303H517.285V138.303ZM520.155 139.733H519.015V136.143L517.655 136.583V135.583L520.025 134.693H520.155V139.733ZM501.705 145.303C501.705 145.193 501.674 145.085 501.616 144.991C501.558 144.897 501.474 144.822 501.375 144.773C501.033 144.593 500.666 144.469 500.285 144.403C498.655 144.063 497.835 143.403 497.835 142.323C497.832 142.026 497.899 141.733 498.031 141.467C498.163 141.201 498.357 140.97 498.595 140.793C499.169 140.361 499.878 140.145 500.595 140.183C501.346 140.142 502.088 140.361 502.695 140.803C502.943 140.988 503.144 141.23 503.279 141.509C503.415 141.787 503.482 142.094 503.475 142.403H501.635C501.64 142.282 501.62 142.161 501.577 142.048C501.534 141.935 501.469 141.831 501.385 141.743C501.277 141.651 501.151 141.582 501.015 141.539C500.88 141.496 500.737 141.48 500.595 141.493C500.338 141.477 500.083 141.551 499.875 141.703C499.794 141.765 499.729 141.846 499.686 141.938C499.642 142.03 499.622 142.131 499.625 142.233C499.624 142.332 499.65 142.43 499.699 142.516C499.748 142.602 499.819 142.674 499.905 142.723C500.217 142.889 500.556 143.001 500.905 143.053C501.295 143.125 501.68 143.225 502.055 143.353C502.47 143.454 502.84 143.691 503.104 144.026C503.369 144.362 503.514 144.776 503.515 145.203C503.519 145.504 503.447 145.801 503.305 146.067C503.163 146.333 502.957 146.558 502.705 146.723C502.091 147.134 501.363 147.337 500.625 147.303C500.098 147.316 499.575 147.21 499.095 146.993C498.692 146.808 498.347 146.518 498.095 146.153C497.846 145.818 497.712 145.411 497.715 144.993H499.375C499.379 145.138 499.414 145.279 499.478 145.409C499.542 145.538 499.633 145.652 499.745 145.743C500.008 145.928 500.325 146.019 500.645 146.003C500.923 146.021 501.199 145.951 501.435 145.803C501.517 145.747 501.584 145.673 501.631 145.586C501.678 145.499 501.703 145.402 501.705 145.303ZM504.665 138.533C504.661 138.407 504.682 138.282 504.729 138.165C504.775 138.048 504.846 137.942 504.935 137.853C505.035 137.759 505.153 137.687 505.282 137.64C505.411 137.594 505.548 137.574 505.685 137.583C505.822 137.574 505.959 137.594 506.088 137.64C506.217 137.687 506.335 137.759 506.435 137.853C506.528 137.94 506.601 138.045 506.65 138.163C506.698 138.28 506.72 138.406 506.715 138.533C506.72 138.662 506.698 138.79 506.65 138.909C506.602 139.028 506.528 139.135 506.435 139.223C506.227 139.401 505.959 139.494 505.685 139.483C505.414 139.494 505.149 139.401 504.945 139.223C504.852 139.135 504.779 139.028 504.73 138.909C504.682 138.79 504.66 138.662 504.665 138.533ZM506.605 147.183H504.765V140.303H506.605V147.183ZM509.805 140.303L509.865 141.093C510.101 140.792 510.406 140.552 510.754 140.392C511.102 140.232 511.483 140.157 511.865 140.173C512.168 140.149 512.472 140.194 512.754 140.305C513.036 140.416 513.29 140.59 513.495 140.813C513.892 141.372 514.086 142.049 514.045 142.733V147.173H512.175V142.773C512.203 142.468 512.114 142.164 511.925 141.923C511.687 141.728 511.382 141.635 511.075 141.663C510.84 141.655 510.606 141.712 510.401 141.829C510.197 141.945 510.028 142.116 509.915 142.323V147.173H508.085V140.303H509.805Z" fill="white"/>
<path d="M528.285 141.303V145.303H524.285V141.303H528.285ZM530.285 139.303H522.285V147.303H530.285V139.303Z" fill="white"/>
</g>
<g filter="url(#filter8_d_1176_11242)">
<rect x="559" y="111" width="60" height="60" rx="8" fill="#0D0D0D"/>
<path d="M593.278 138.293H591.278V137.293H593.278V138.293ZM596.148 139.723H595.008V136.133L593.648 136.573V135.573L596.018 134.683H596.148V139.723ZM574.838 145.813C575.14 145.827 575.436 145.727 575.668 145.533C575.772 145.44 575.855 145.326 575.911 145.198C575.968 145.071 575.998 144.933 575.998 144.793H577.718C577.715 145.247 577.583 145.691 577.338 146.073C577.093 146.459 576.747 146.77 576.338 146.973C575.891 147.194 575.397 147.304 574.898 147.293C574.467 147.314 574.037 147.242 573.637 147.081C573.236 146.921 572.875 146.676 572.578 146.363C571.976 145.639 571.673 144.713 571.728 143.773V143.653C571.68 142.734 571.98 141.831 572.568 141.123C572.863 140.807 573.224 140.558 573.624 140.394C574.025 140.23 574.456 140.155 574.888 140.173C575.647 140.135 576.391 140.397 576.958 140.903C577.218 141.155 577.423 141.459 577.559 141.795C577.695 142.131 577.76 142.491 577.748 142.853H575.998C575.999 142.532 575.882 142.223 575.668 141.983C575.559 141.873 575.427 141.787 575.283 141.73C575.138 141.673 574.983 141.647 574.828 141.653C574.635 141.635 574.44 141.669 574.264 141.752C574.088 141.835 573.938 141.963 573.828 142.123C573.571 142.583 573.456 143.108 573.498 143.633V143.823C573.455 144.355 573.57 144.887 573.828 145.353C573.941 145.513 574.093 145.639 574.271 145.72C574.448 145.801 574.644 145.833 574.838 145.813ZM578.478 143.673C578.467 143.045 578.6 142.422 578.868 141.853C579.111 141.336 579.505 140.903 579.998 140.613C580.522 140.315 581.116 140.163 581.718 140.173C582.134 140.156 582.549 140.223 582.939 140.369C583.329 140.515 583.686 140.737 583.988 141.023C584.603 141.638 584.961 142.464 584.988 143.333V143.803C585.03 144.733 584.711 145.643 584.098 146.343C583.796 146.661 583.428 146.91 583.021 147.074C582.614 147.238 582.177 147.313 581.738 147.293C581.297 147.314 580.856 147.24 580.445 147.076C580.035 146.912 579.664 146.662 579.358 146.343C578.74 145.627 578.425 144.698 578.478 143.753V143.673ZM580.308 143.803C580.277 144.326 580.406 144.846 580.678 145.293C580.802 145.453 580.962 145.583 581.144 145.672C581.326 145.761 581.526 145.807 581.728 145.807C581.931 145.807 582.131 145.761 582.313 145.672C582.495 145.583 582.654 145.453 582.778 145.293C583.065 144.797 583.194 144.225 583.148 143.653C583.181 143.133 583.052 142.616 582.778 142.173C582.662 142.001 582.503 141.862 582.317 141.77C582.132 141.677 581.925 141.633 581.718 141.643C581.521 141.641 581.327 141.687 581.153 141.777C580.978 141.868 580.829 142.001 580.718 142.163C580.412 142.654 580.259 143.225 580.278 143.803H580.308ZM589.828 145.293C589.828 145.183 589.797 145.075 589.739 144.981C589.681 144.887 589.597 144.812 589.498 144.763C589.162 144.592 588.801 144.474 588.428 144.413C586.798 144.073 585.978 143.413 585.978 142.333C585.975 142.036 586.042 141.743 586.174 141.477C586.306 141.211 586.5 140.98 586.738 140.803C587.313 140.371 588.021 140.155 588.738 140.193C589.489 140.152 590.231 140.371 590.838 140.813C591.086 140.998 591.287 141.24 591.422 141.518C591.558 141.797 591.625 142.104 591.618 142.413H589.758C589.763 142.292 589.743 142.171 589.7 142.058C589.657 141.945 589.592 141.841 589.508 141.753C589.4 141.661 589.274 141.592 589.138 141.549C589.003 141.506 588.86 141.49 588.718 141.503C588.461 141.487 588.206 141.561 587.998 141.713C587.917 141.775 587.852 141.856 587.809 141.948C587.765 142.04 587.745 142.141 587.748 142.243C587.747 142.342 587.773 142.44 587.822 142.526C587.871 142.612 587.942 142.684 588.028 142.733C588.34 142.899 588.679 143.01 589.028 143.063C589.418 143.135 589.803 143.235 590.178 143.363C590.593 143.464 590.963 143.701 591.228 144.036C591.492 144.372 591.637 144.786 591.638 145.213C591.642 145.514 591.57 145.811 591.428 146.077C591.286 146.343 591.08 146.568 590.828 146.733C590.214 147.144 589.486 147.347 588.748 147.313C588.221 147.326 587.698 147.22 587.218 147.003C586.797 146.826 586.433 146.535 586.168 146.163C585.919 145.828 585.785 145.421 585.788 145.003H587.518C587.522 145.148 587.557 145.289 587.621 145.419C587.685 145.548 587.776 145.662 587.888 145.753C588.151 145.938 588.468 146.029 588.788 146.013C589.066 146.031 589.342 145.961 589.578 145.813C589.659 145.753 589.724 145.675 589.767 145.584C589.811 145.493 589.832 145.394 589.828 145.293Z" fill="white"/>
<path d="M604.278 141.293V145.293H600.278V141.293H604.278ZM606.278 139.293H598.278V147.293H606.278V139.293Z" fill="white"/>
</g>
<g filter="url(#filter9_d_1176_11242)">
<rect x="635" y="111" width="60" height="60" rx="8" fill="#0D0D0D"/>
<path d="M668 138.295H666V137.295H668V138.295ZM670.87 139.725H669.73V136.135L668.37 136.575V135.575L670.74 134.685H670.87V139.725ZM651.9 138.615V140.295H653.08V141.635H651.9V145.065C651.883 145.26 651.936 145.456 652.05 145.615C652.127 145.679 652.217 145.727 652.313 145.754C652.41 145.782 652.511 145.789 652.61 145.775C652.786 145.792 652.964 145.792 653.14 145.775V147.165C652.769 147.268 652.384 147.312 652 147.295C651.732 147.336 651.459 147.314 651.201 147.231C650.943 147.148 650.708 147.007 650.514 146.818C650.321 146.629 650.173 146.398 650.084 146.142C649.995 145.886 649.966 145.614 650 145.345V141.645H649V140.295H650V138.615H651.9ZM658.08 147.175C657.984 146.98 657.92 146.77 657.89 146.555C657.673 146.798 657.406 146.989 657.107 147.117C656.808 147.245 656.485 147.306 656.16 147.295C655.55 147.318 654.954 147.111 654.49 146.715C654.282 146.541 654.114 146.324 653.998 146.079C653.882 145.834 653.821 145.566 653.82 145.295C653.808 144.97 653.876 144.648 654.017 144.355C654.158 144.062 654.369 143.808 654.63 143.615C655.333 143.159 656.162 142.935 657 142.975H657.85V142.585C657.866 142.306 657.776 142.032 657.6 141.815C657.499 141.717 657.378 141.641 657.245 141.593C657.112 141.544 656.971 141.525 656.83 141.535C656.568 141.519 656.309 141.597 656.1 141.755C656.014 141.831 655.946 141.925 655.901 142.031C655.856 142.136 655.835 142.25 655.84 142.365H654C653.998 141.969 654.124 141.583 654.36 141.265C654.631 140.908 654.994 140.631 655.41 140.465C655.888 140.266 656.402 140.168 656.92 140.175C657.642 140.14 658.352 140.368 658.92 140.815C659.173 141.037 659.372 141.313 659.502 141.623C659.632 141.933 659.689 142.269 659.67 142.605V145.605C659.642 146.113 659.735 146.62 659.94 147.085V147.195L658.08 147.175ZM656.56 145.895C656.821 145.897 657.078 145.835 657.31 145.715C657.527 145.609 657.706 145.438 657.82 145.225V144.045H657.13C656.21 144.045 655.72 144.365 655.67 144.995V145.105C655.667 145.212 655.687 145.318 655.729 145.416C655.77 145.514 655.832 145.603 655.91 145.675C656.094 145.823 656.324 145.901 656.56 145.895ZM662.75 140.295L662.81 141.085C663.046 140.784 663.351 140.543 663.699 140.383C664.047 140.223 664.428 140.148 664.81 140.165C665.111 140.143 665.413 140.189 665.693 140.299C665.974 140.41 666.226 140.583 666.43 140.805C666.837 141.364 667.038 142.045 667 142.735V147.175H665.12V142.775C665.148 142.47 665.059 142.166 664.87 141.925C664.632 141.73 664.327 141.636 664.02 141.665C663.784 141.657 663.551 141.714 663.346 141.83C663.141 141.947 662.973 142.118 662.86 142.325V147.175H661V140.295H662.75Z" fill="white"/>
<path d="M679 141.295V145.295H675V141.295H679ZM681 139.295H673V147.295H681V139.295Z" fill="white"/>
</g>
<g filter="url(#filter10_d_1176_11242)">
<rect x="711" y="111" width="60" height="60" rx="8" fill="#0D0D0D"/>
<path fill-rule="evenodd" clip-rule="evenodd" d="M735 144.47C734.404 144.133 733.911 143.643 733.57 143.05C733.198 142.431 733.001 141.722 733 141C732.995 140.299 733.174 139.61 733.52 139C733.866 138.378 734.378 137.866 735 137.52C735.62 137.179 736.317 137 737.025 137C737.733 137 738.429 137.179 739.05 137.52C739.773 137.957 740.408 138.527 740.92 139.2L741.05 139.36L741.19 139.2C741.683 138.533 742.297 137.963 743 137.52C743.622 137.179 744.32 137 745.03 137C745.739 137 746.437 137.179 747.06 137.52C747.65 137.86 748.139 138.35 748.48 138.94C748.835 139.567 749.015 140.279 749 141C749.004 141.701 748.825 142.39 748.48 143C748.134 143.616 747.628 144.127 747.015 144.479C746.402 144.831 745.706 145.011 745 145C744.299 145.005 743.609 144.826 743 144.48C742.284 144.036 741.653 143.467 741.14 142.8L741 142.64L740.87 142.8C740.353 143.468 739.719 144.037 739 144.48C738.39 144.826 737.7 145.005 737 145C736.297 145.008 735.606 144.824 735 144.47ZM738.38 142.47C738.854 142.104 739.277 141.677 739.64 141.2L739.77 141.04L739.64 140.89C739.28 140.408 738.856 139.977 738.38 139.61C738.038 139.367 737.629 139.238 737.21 139.24C736.884 139.23 736.563 139.31 736.28 139.47C736.013 139.622 735.792 139.843 735.64 140.11C735.476 140.389 735.393 140.707 735.4 141.03C735.395 141.353 735.478 141.671 735.64 141.95C735.792 142.217 736.013 142.438 736.28 142.59C736.563 142.75 736.884 142.83 737.21 142.82C737.629 142.822 738.038 142.693 738.38 142.45V142.47ZM745.82 142.59C746.089 142.441 746.311 142.219 746.46 141.95C746.622 141.671 746.705 141.353 746.7 141.03C746.706 140.707 746.623 140.389 746.46 140.11C746.311 139.841 746.089 139.619 745.82 139.47C745.536 139.31 745.215 139.23 744.89 139.24C744.47 139.238 744.061 139.367 743.72 139.61C743.243 139.977 742.82 140.408 742.46 140.89L742.33 141.04L742.46 141.2C742.822 141.677 743.246 142.104 743.72 142.47C744.061 142.713 744.47 142.842 744.89 142.84C745.215 142.85 745.536 142.77 745.82 142.61" fill="white"/>
</g>
<g filter="url(#filter11_d_1176_11242)">
<rect x="787" y="111" width="60" height="60" rx="8" fill="#0D0D0D"/>
<path fill-rule="evenodd" clip-rule="evenodd" d="M815 144.47C814.404 144.133 813.911 143.643 813.57 143.05C813.198 142.431 813.001 141.722 813 141C812.995 140.299 813.174 139.61 813.52 139C813.866 138.378 814.378 137.866 815 137.52C815.62 137.179 816.317 137 817.025 137C817.733 137 818.429 137.179 819.05 137.52C819.773 137.957 820.408 138.527 820.92 139.2L821.05 139.36L821.19 139.2C821.683 138.533 822.297 137.963 823 137.52C823.622 137.179 824.32 137 825.03 137C825.739 137 826.437 137.179 827.06 137.52C827.65 137.86 828.139 138.35 828.48 138.94C828.835 139.567 829.015 140.279 829 141C829.004 141.701 828.825 142.39 828.48 143C828.134 143.616 827.628 144.127 827.015 144.479C826.402 144.831 825.706 145.011 825 145C824.299 145.005 823.609 144.826 823 144.48C822.284 144.036 821.653 143.467 821.14 142.8L821 142.64L820.87 142.8C820.353 143.468 819.719 144.037 819 144.48C818.39 144.826 817.7 145.005 817 145C816.297 145.008 815.606 144.824 815 144.47ZM818.38 142.47C818.854 142.104 819.277 141.677 819.64 141.2L819.77 141.04L819.64 140.89C819.28 140.408 818.856 139.977 818.38 139.61C818.038 139.367 817.629 139.238 817.21 139.24C816.884 139.23 816.563 139.31 816.28 139.47C816.013 139.622 815.792 139.843 815.64 140.11C815.476 140.389 815.393 140.707 815.4 141.03C815.395 141.353 815.478 141.671 815.64 141.95C815.792 142.217 816.013 142.438 816.28 142.59C816.563 142.75 816.884 142.83 817.21 142.82C817.629 142.822 818.038 142.693 818.38 142.45V142.47ZM825.82 142.59C826.089 142.441 826.311 142.219 826.46 141.95C826.622 141.671 826.705 141.353 826.7 141.03C826.706 140.707 826.623 140.389 826.46 140.11C826.311 139.841 826.089 139.619 825.82 139.47C825.536 139.31 825.215 139.23 824.89 139.24C824.47 139.238 824.061 139.367 823.72 139.61C823.243 139.977 822.82 140.408 822.46 140.89L822.33 141.04L822.46 141.2C822.822 141.677 823.246 142.104 823.72 142.47C824.061 142.713 824.47 142.842 824.89 142.84C825.215 142.85 825.536 142.77 825.82 142.61" fill="white"/>
<path d="M805 140H811V142H805V140Z" fill="white"/>
</g>
<g filter="url(#filter12_d_1176_11242)">
<rect x="863" y="111" width="60" height="60" rx="8" fill="#0D0D0D"/>
<path fill-rule="evenodd" clip-rule="evenodd" d="M892.713 146.001C891.973 145.999 891.249 145.78 890.633 145.371C890.04 144.961 889.583 144.383 889.323 143.711C889.028 142.968 888.912 142.167 888.983 141.371V141.001C889.065 140.072 889.344 139.172 889.803 138.361C890.199 137.635 890.774 137.023 891.473 136.581C892.139 136.171 892.911 135.969 893.693 136.001C894.204 135.987 894.71 136.103 895.163 136.339C895.616 136.576 896.002 136.924 896.283 137.351C896.91 138.373 897.158 139.584 896.983 140.771L896.863 141.701H890.983C890.896 142.348 891.053 143.003 891.423 143.541C891.585 143.767 891.8 143.951 892.049 144.076C892.298 144.202 892.574 144.265 892.853 144.261C893.318 144.261 893.777 144.155 894.194 143.95C894.612 143.746 894.978 143.448 895.263 143.081L896.263 144.201C895.884 144.775 895.359 145.237 894.743 145.541C894.097 145.862 893.383 146.02 892.663 146.001H892.713ZM893.533 137.731C892.463 137.731 891.653 138.491 891.123 140.101H894.983V139.911C895.023 139.646 895.023 139.376 894.983 139.111C894.941 138.735 894.776 138.383 894.513 138.111C894.238 137.864 893.882 137.725 893.513 137.721" fill="white"/>
</g>
<g filter="url(#filter13_d_1176_11242)">
<rect x="40" y="34" width="60" height="60" rx="8" fill="#0D0D0D"/>
<path d="M63.4668 63H61.6001V52H63.4668V63ZM64.9694 53.25C64.9622 53.1077 64.9834 52.9654 65.0317 52.8326C65.08 52.6998 65.1542 52.5796 65.2494 52.48C65.4596 52.2857 65.7279 52.1789 66.0054 52.1789C66.283 52.1789 66.5513 52.2857 66.7614 52.48C66.9474 52.6868 67.0512 52.9628 67.0512 53.25C67.0512 53.5372 66.9474 53.8132 66.7614 54.02C66.5528 54.2135 66.2861 54.32 66.0101 54.32C65.7341 54.32 65.4674 54.2135 65.2588 54.02C65.1619 53.9213 65.0859 53.8015 65.036 53.6687C64.9861 53.5358 64.9634 53.3931 64.9694 53.25ZM66.9388 63H65.0721V55.25H66.9388V63ZM70.1961 55.25L70.2521 56.12C70.4856 55.7937 70.789 55.5325 71.1367 55.3584C71.4843 55.1844 71.866 55.1026 72.2494 55.12C72.6365 55.0841 73.0244 55.1785 73.359 55.39C73.6936 55.6015 73.9583 55.9196 74.1161 56.3C74.3349 55.924 74.6428 55.6167 75.0083 55.4095C75.3739 55.2022 75.7842 55.1023 76.1974 55.12C76.5112 55.0927 76.8266 55.1445 77.1183 55.2713C77.4101 55.398 77.67 55.5962 77.8774 55.85C78.2743 56.5011 78.4581 57.2749 78.4001 58.05V63H76.5334V58.06C76.5709 57.7074 76.488 57.3522 76.3001 57.06C76.198 56.9422 76.0709 56.8525 75.9295 56.7985C75.7881 56.7446 75.6367 56.7279 75.4881 56.75C75.2305 56.7406 74.9773 56.8228 74.7679 56.9838C74.5586 57.1448 74.4048 57.3755 74.3308 57.64V63H72.4641V58.07C72.4955 57.7165 72.4096 57.3624 72.2214 57.07C72.1165 56.9598 71.9901 56.8758 71.8514 56.8239C71.7126 56.7721 71.5649 56.7537 71.4188 56.77C71.1827 56.7561 70.9481 56.8182 70.7452 56.9483C70.5422 57.0784 70.3803 57.2705 70.2801 57.5V63H68.4134V55.25H70.1961ZM70.0001 68L69.0668 69L70.0748 70.25H67.2001V71.75H70.0748L69.0668 73L70.0001 74L72.8001 71L70.0001 68Z" fill="white"/>
<path d="M82.1333 68V74H76.5333V68H82.1333ZM84 66H74.6667V76H84V66ZM63.4667 68V74H57.8667V68H63.4667ZM65.3333 66H56V76H65.3333V66Z" fill="white"/>
</g>
<g filter="url(#filter14_d_1176_11242)">
<rect x="113" y="34" width="60" height="60" rx="8" fill="#0D0D0D"/>
<path d="M136 64H134V53H136V64ZM137.61 54.25C137.602 54.1077 137.625 53.9654 137.677 53.8326C137.728 53.6998 137.808 53.5796 137.91 53.48C138.135 53.2857 138.423 53.1789 138.72 53.1789C139.017 53.1789 139.305 53.2857 139.53 53.48C139.729 53.6868 139.84 53.9628 139.84 54.25C139.84 54.5372 139.729 54.8132 139.53 55.02C139.306 55.2135 139.021 55.32 138.725 55.32C138.429 55.32 138.144 55.2135 137.92 55.02C137.816 54.9213 137.735 54.8015 137.681 54.6687C137.628 54.5358 137.604 54.3931 137.61 54.25ZM139.72 64H137.72V56.25H139.72V64ZM143.21 56.25L143.27 57.12C143.52 56.7937 143.845 56.5325 144.218 56.3584C144.59 56.1844 144.999 56.1026 145.41 56.12C145.825 56.0841 146.24 56.1785 146.599 56.39C146.957 56.6015 147.241 56.9196 147.41 57.3C147.644 56.924 147.974 56.6167 148.366 56.4095C148.758 56.2022 149.197 56.1023 149.64 56.12C149.976 56.0927 150.314 56.1445 150.627 56.2713C150.939 56.398 151.218 56.5962 151.44 56.85C151.865 57.5011 152.062 58.2749 152 59.05V64H150V59.06C150.04 58.7074 149.951 58.3522 149.75 58.06C149.641 57.9422 149.504 57.8525 149.353 57.7985C149.201 57.7446 149.039 57.7279 148.88 57.75C148.604 57.7406 148.333 57.8228 148.108 57.9838C147.884 58.1448 147.719 58.3755 147.64 58.64V64H145.64V59.07C145.674 58.7165 145.582 58.3624 145.38 58.07C145.268 57.9598 145.132 57.8758 144.984 57.8239C144.835 57.7721 144.677 57.7537 144.52 57.77C144.267 57.7561 144.016 57.8182 143.798 57.9483C143.581 58.0784 143.407 58.2705 143.3 58.5V64H141.3V56.25H143.21ZM143 69L142 70L143.08 71.25H140V72.75H143.08L142 74L143 75L146 72L143 69Z" fill="white"/>
<path d="M128 71V73H126V71H128ZM130 69H124V75H130V69ZM136 71V73H134V71H136ZM138 69H132V75H138V69ZM152 71V73H150V71H152ZM154 69H148V75H154V69ZM160 71V73H158V71H160ZM162 69H156V75H162V69Z" fill="white"/>
</g>
<g filter="url(#filter15_d_1176_11242)">
<rect x="186" y="34" width="60" height="60" rx="8" fill="#0D0D0D"/>
<path d="M213.06 70.0685C213.126 71.1387 212.766 72.1916 212.06 72.9985C211.698 73.3471 211.268 73.6162 210.796 73.7884C210.324 73.9606 209.821 74.0322 209.32 73.9985C208.872 73.9955 208.427 73.9247 208 73.7885L208.19 71.7185C208.465 71.8048 208.751 71.852 209.04 71.8585C210.04 71.8585 210.5 71.2785 210.51 70.1285V58.1285C210.449 57.0376 210.807 55.9646 211.51 55.1285C211.884 54.7458 212.335 54.4472 212.833 54.2523C213.332 54.0575 213.866 53.971 214.4 53.9985C214.94 54.0135 215.477 54.0907 216 54.2285L215.74 56.2285C215.414 56.1435 215.077 56.1032 214.74 56.1085C213.6 56.1085 213.03 56.7885 213.03 58.1085L213.06 70.0685ZM222 61.9985V65.9985H218V61.9985H222ZM224 59.9985H216V67.9985H224V59.9985Z" fill="white"/>
</g>
<g filter="url(#filter16_d_1176_11242)">
<rect x="260" y="34" width="60" height="60" rx="8" fill="#0D0D0D"/>
<path d="M285.06 70.0685C285.126 71.1387 284.766 72.1916 284.06 72.9985C283.698 73.3471 283.268 73.6162 282.796 73.7884C282.324 73.9606 281.821 74.0322 281.32 73.9985C280.872 73.9955 280.427 73.9247 280 73.7885L280.19 71.7185C280.465 71.8048 280.751 71.852 281.04 71.8585C282.04 71.8585 282.5 71.2785 282.51 70.1285V58.1285C282.449 57.0376 282.807 55.9646 283.51 55.1285C283.884 54.7458 284.335 54.4472 284.833 54.2523C285.332 54.0575 285.866 53.971 286.4 53.9985C286.94 54.0135 287.477 54.0907 288 54.2285L287.74 56.2285C287.414 56.1435 287.077 56.1032 286.74 56.1085C285.6 56.1085 285.03 56.7885 285.03 58.1085L285.06 70.0685ZM278.06 70.0685C278.126 71.1387 277.766 72.1916 277.06 72.9985C276.698 73.3471 276.268 73.6162 275.796 73.7884C275.324 73.9606 274.821 74.0322 274.32 73.9985C273.872 73.9955 273.427 73.9247 273 73.7885L273.19 71.7185C273.465 71.8048 273.751 71.852 274.04 71.8585C275.04 71.8585 275.5 71.2785 275.51 70.1285V58.1285C275.449 57.0376 275.807 55.9646 276.51 55.1285C276.884 54.7458 277.335 54.4472 277.833 54.2523C278.332 54.0575 278.866 53.971 279.4 53.9985C279.94 54.0135 280.477 54.0907 281 54.2285L280.74 56.2285C280.414 56.1435 280.077 56.1032 279.74 56.1085C278.6 56.1085 278.03 56.7885 278.03 58.1085L278.06 70.0685Z" fill="white"/>
<path d="M295 61.9984V65.9984H291V61.9984H295ZM297 59.9984H289V67.9984H297V59.9984ZM305 61.9984V65.9984H301V61.9984H305ZM307 59.9984H299V67.9984H307V59.9984Z" fill="white"/>
</g>
<g filter="url(#filter17_d_1176_11242)">
<rect x="334" y="34" width="60" height="60" rx="8" fill="#0D0D0D"/>
<path d="M359.92 70.78C359.954 71.2156 359.898 71.6535 359.755 72.0664C359.612 72.4793 359.386 72.8584 359.09 73.18C358.764 73.4691 358.385 73.6905 357.972 73.8313C357.56 73.9721 357.124 74.0294 356.69 74C356.287 73.9989 355.887 73.9417 355.5 73.83L355.67 72.13C355.91 72.2056 356.159 72.2461 356.41 72.25C357.263 72.25 357.693 71.78 357.7 70.84V57.36C357.67 56.9084 357.732 56.4555 357.884 56.029C358.035 55.6026 358.272 55.2115 358.58 54.88C358.919 54.5713 359.317 54.3343 359.75 54.1831C360.183 54.0319 360.642 53.9696 361.1 54C361.572 54.0095 362.042 54.0732 362.5 54.19L362.27 55.85C361.991 55.7842 361.706 55.7507 361.42 55.75C360.42 55.75 359.92 56.3 359.92 57.41V70.78ZM353.92 70.78C353.954 71.2156 353.898 71.6535 353.755 72.0664C353.612 72.4793 353.386 72.8584 353.09 73.18C352.764 73.4691 352.385 73.6905 351.972 73.8313C351.56 73.9721 351.124 74.0294 350.69 74C350.287 73.9989 349.887 73.9417 349.5 73.83L349.67 72.13C349.91 72.2056 350.159 72.2461 350.41 72.25C351.257 72.25 351.687 71.78 351.7 70.84V57.36C351.67 56.9084 351.732 56.4555 351.884 56.029C352.035 55.6026 352.272 55.2115 352.58 54.88C352.919 54.5713 353.317 54.3343 353.75 54.1831C354.183 54.0319 354.642 53.9696 355.1 54C355.572 54.0095 356.042 54.0732 356.5 54.19L356.27 55.85C355.991 55.7842 355.706 55.7507 355.42 55.75C354.42 55.75 353.92 56.3 353.92 57.41V70.78ZM347.92 70.78C347.954 71.2156 347.898 71.6535 347.755 72.0664C347.612 72.4793 347.386 72.8584 347.09 73.18C346.764 73.4691 346.385 73.6905 345.972 73.8313C345.56 73.9721 345.124 74.0294 344.69 74C344.287 73.9989 343.887 73.9417 343.5 73.83L343.67 72.13C343.91 72.2056 344.159 72.2461 344.41 72.25C345.257 72.25 345.687 71.78 345.7 70.84V57.36C345.67 56.9084 345.732 56.4555 345.884 56.029C346.035 55.6026 346.272 55.2115 346.58 54.88C346.919 54.5713 347.317 54.3343 347.75 54.1831C348.183 54.0319 348.642 53.9696 349.1 54C349.572 54.0095 350.042 54.0732 350.5 54.19L350.27 55.85C349.991 55.7842 349.706 55.7507 349.42 55.75C348.42 55.75 347.92 56.3 347.92 57.41V70.78Z" fill="white"/>
<path d="M366.5 62.9999V64.9999H364.5V62.9999H366.5ZM368.5 60.9999H362.5V66.9999H368.5V60.9999ZM374.5 62.9999V64.9999H372.5V62.9999H374.5ZM376.5 60.9999H370.5V66.9999H376.5V60.9999ZM382.5 62.9999V64.9999H380.5V62.9999H382.5ZM384.5 60.9999H378.5V66.9999H384.5V60.9999Z" fill="white"/>
</g>
<g filter="url(#filter18_d_1176_11242)">
<rect x="409" y="34" width="60" height="60" rx="8" fill="#0D0D0D"/>
<path d="M435.06 69.57C435.126 70.6402 434.766 71.6932 434.06 72.5C433.698 72.8486 433.268 73.1177 432.796 73.2899C432.324 73.4621 431.821 73.5337 431.32 73.5C430.872 73.497 430.427 73.4262 430 73.29L430.19 71.22C430.465 71.3064 430.751 71.3535 431.04 71.36C432.04 71.36 432.5 70.78 432.51 69.63V57.63C432.449 56.5391 432.807 55.4662 433.51 54.63C433.884 54.2473 434.335 53.9487 434.833 53.7539C435.332 53.559 435.866 53.4725 436.4 53.5C436.94 53.515 437.477 53.5922 438 53.73L437.74 55.73C437.414 55.6451 437.077 55.6047 436.74 55.61C435.6 55.61 435.03 56.29 435.03 57.61L435.06 69.57Z" fill="white"/>
<path d="M446 53.5V57.5H442V53.5H446ZM448 51.5H440V59.5H448V51.5ZM443 70.5V74.5H439V70.5H443ZM445 68.5H437V76.5H445V68.5Z" fill="white"/>
</g>
<g filter="url(#filter19_d_1176_11242)">
<rect x="484" y="34" width="60" height="60" rx="8" fill="#0D0D0D"/>
<path d="M500.56 69.57C500.626 70.6402 500.266 71.6932 499.56 72.5C499.198 72.8486 498.768 73.1177 498.296 73.2899C497.824 73.4621 497.321 73.5337 496.82 73.5C496.372 73.497 495.927 73.4262 495.5 73.29L495.69 71.22C495.965 71.3064 496.251 71.3535 496.54 71.36C497.54 71.36 498 70.78 498.01 69.63V57.63C497.949 56.5391 498.307 55.4662 499.01 54.63C499.384 54.2473 499.835 53.9487 500.333 53.7539C500.832 53.559 501.366 53.4725 501.9 53.5C502.44 53.515 502.977 53.5922 503.5 53.73L503.24 55.73C502.914 55.6451 502.577 55.6047 502.24 55.61C501.1 55.61 500.53 56.29 500.53 57.61L500.56 69.57ZM519.56 69.57C519.626 70.6402 519.266 71.6932 518.56 72.5C518.198 72.8486 517.768 73.1177 517.296 73.2899C516.824 73.4621 516.321 73.5337 515.82 73.5C515.372 73.497 514.927 73.4262 514.5 73.29L514.69 71.22C514.965 71.3064 515.251 71.3535 515.54 71.36C516.54 71.36 517 70.78 517.01 69.63V57.63C516.949 56.5391 517.307 55.4662 518.01 54.63C518.384 54.2473 518.835 53.9487 519.333 53.7539C519.832 53.559 520.366 53.4725 520.9 53.5C521.44 53.515 521.977 53.5922 522.5 53.73L522.24 55.73C521.914 55.6451 521.577 55.6047 521.24 55.61C520.1 55.61 519.53 56.29 519.53 57.61L519.56 69.57Z" fill="white"/>
<path d="M511.5 53.5V57.5H507.5V53.5H511.5ZM513.5 51.5H505.5V59.5H513.5V51.5ZM508.5 70.5V74.5H504.5V70.5H508.5ZM510.5 68.5H502.5V76.5H510.5V68.5ZM530.5 53.5V57.5H526.5V53.5H530.5ZM532.5 51.5H524.5V59.5H532.5V51.5ZM527.5 70.5V74.5H523.5V70.5H527.5ZM529.5 68.5H521.5V76.5H529.5V68.5Z" fill="white"/>
</g>
<g filter="url(#filter20_d_1176_11242)">
<rect x="559" y="34" width="60" height="60" rx="8" fill="#0D0D0D"/>
<path d="M572.42 70.78C572.454 71.2156 572.398 71.6535 572.255 72.0665C572.112 72.4794 571.886 72.8585 571.59 73.18C571.264 73.4692 570.885 73.6906 570.472 73.8314C570.06 73.9722 569.624 74.0295 569.19 74C568.787 73.999 568.387 73.9417 568 73.83L568.17 72.13C568.41 72.2057 568.659 72.2461 568.91 72.25C569.757 72.25 570.187 71.78 570.2 70.84V57.36C570.17 56.9085 570.232 56.4556 570.384 56.0291C570.535 55.6026 570.772 55.2116 571.08 54.88C571.419 54.5714 571.817 54.3344 572.25 54.1832C572.683 54.032 573.142 53.9697 573.6 54C574.072 54.0095 574.542 54.0733 575 54.19L574.77 55.85C574.491 55.7843 574.206 55.7507 573.92 55.75C572.92 55.75 572.42 56.3 572.42 57.41V70.78ZM586.42 70.78C586.454 71.2156 586.398 71.6535 586.255 72.0665C586.112 72.4794 585.886 72.8585 585.59 73.18C585.264 73.4692 584.885 73.6906 584.472 73.8314C584.06 73.9722 583.624 74.0295 583.19 74C582.787 73.999 582.387 73.9417 582 73.83L582.17 72.13C582.41 72.2057 582.659 72.2461 582.91 72.25C583.763 72.25 584.193 71.78 584.2 70.84V57.36C584.17 56.9085 584.232 56.4556 584.384 56.0291C584.535 55.6026 584.772 55.2116 585.08 54.88C585.419 54.5714 585.817 54.3344 586.25 54.1832C586.683 54.032 587.142 53.9697 587.6 54C588.072 54.0095 588.542 54.0733 589 54.19L588.77 55.85C588.491 55.7843 588.206 55.7507 587.92 55.75C586.92 55.75 586.42 56.3 586.42 57.41V70.78ZM600.42 70.78C600.454 71.2156 600.398 71.6535 600.255 72.0665C600.112 72.4794 599.886 72.8585 599.59 73.18C599.264 73.4692 598.885 73.6906 598.472 73.8314C598.06 73.9722 597.624 74.0295 597.19 74C596.787 73.999 596.387 73.9417 596 73.83L596.17 72.13C596.41 72.2057 596.659 72.2461 596.91 72.25C597.757 72.25 598.187 71.78 598.2 70.84V57.36C598.17 56.9085 598.232 56.4556 598.384 56.0291C598.535 55.6026 598.772 55.2116 599.08 54.88C599.419 54.5714 599.817 54.3344 600.25 54.1832C600.683 54.032 601.142 53.9697 601.6 54C602.072 54.0095 602.542 54.0733 603 54.19L602.77 55.85C602.491 55.7843 602.206 55.7507 601.92 55.75C600.92 55.75 600.42 56.3 600.42 57.41V70.78Z" fill="white"/>
<path d="M580 54V56H578V54H580ZM582 52H576V58H582V52ZM578 72V74H576V72H578ZM580 70H574V76H580V70ZM594 54V56H592V54H594ZM596 52H590V58H596V52ZM592 72V74H590V72H592ZM594 70H588V76H594V70ZM608 54V56H606V54H608ZM610 52H604V58H610V52ZM606 72V74H604V72H606ZM608 70H602V76H608V70Z" fill="white"/>
</g>
<g filter="url(#filter21_d_1176_11242)">
<rect x="635" y="34" width="60" height="60" rx="8" fill="#0D0D0D"/>
<path d="M653 62.985H677V64.985H653V62.985ZM664.5 52.045C664.834 52.0453 665.164 52.1221 665.464 52.2694C665.763 52.4167 666.026 52.6307 666.23 52.895L667 48.985H669L667.11 59.835H665.32L665.43 59.015C665.199 59.3272 664.897 59.5805 664.55 59.7543C664.202 59.928 663.819 60.0173 663.43 60.015C662.985 60.0166 662.549 59.8842 662.18 59.635C661.803 59.3747 661.511 59.0096 661.34 58.585C661.122 58.0792 661.007 57.5355 661 56.985C660.975 56.6989 660.975 56.4111 661 56.125V55.805C661.09 55.0834 661.314 54.3848 661.66 53.745C661.933 53.2078 662.344 52.7524 662.85 52.425C663.347 52.1305 663.924 51.9977 664.5 52.045ZM663 56.155C662.972 56.4543 662.972 56.7557 663 57.055C663 57.885 663.38 58.305 664 58.325C664.292 58.328 664.58 58.2571 664.837 58.119C665.094 57.9808 665.311 57.7799 665.47 57.535L666.01 54.535C665.938 54.3013 665.792 54.0975 665.593 53.9549C665.394 53.8122 665.154 53.7385 664.91 53.745C664.676 53.7322 664.443 53.7766 664.231 53.8741C664.018 53.9717 663.833 54.1196 663.69 54.305C663.298 54.8485 663.06 55.4875 663 56.155ZM659.5 71.045C659.834 71.0453 660.164 71.1221 660.464 71.2694C660.763 71.4167 661.026 71.6307 661.23 71.895L662 67.985H664L662.11 78.835H660.32L660.43 78.015C660.199 78.3272 659.897 78.5805 659.55 78.7543C659.202 78.928 658.819 79.0173 658.43 79.015C657.985 79.0166 657.549 78.8842 657.18 78.635C656.811 78.3881 656.519 78.0413 656.34 77.635C656.116 77.1138 656 76.5524 656 75.985C655.975 75.6989 655.975 75.4111 656 75.125V74.805C656.09 74.0834 656.314 73.3848 656.66 72.745C656.933 72.2078 657.344 71.7524 657.85 71.425C658.347 71.1305 658.924 70.9977 659.5 71.045ZM658 75.155C657.972 75.4543 657.972 75.7556 658 76.055C658 76.885 658.38 77.305 659 77.325C659.292 77.328 659.58 77.2571 659.837 77.119C660.094 76.9808 660.311 76.7799 660.47 76.535L661.01 73.535C660.938 73.3013 660.792 73.0975 660.593 72.9549C660.394 72.8122 660.154 72.7385 659.91 72.745C659.676 72.7322 659.443 72.7766 659.231 72.8741C659.018 72.9717 658.833 73.1196 658.69 73.305C658.298 73.8485 658.06 74.4875 658 75.155Z" fill="white"/>
<path d="M672 70.985V74.985H668V70.985H672ZM674 68.985H666V76.985H674V68.985Z" fill="white"/>
</g>
<g filter="url(#filter22_d_1176_11242)">
<rect x="711" y="34" width="60" height="60" rx="8" fill="#0D0D0D"/>
<path d="M729.011 64.0065H753.011V66.0065H729.011V64.0065ZM742.011 73.0065V71.9465H739.821L740.541 71.0665C740.84 70.7524 741.117 70.4183 741.371 70.0665C741.53 69.8521 741.658 69.6165 741.751 69.3665C741.83 69.1485 741.871 68.9184 741.871 68.6865C741.886 68.452 741.85 68.2169 741.766 67.9975C741.681 67.7782 741.55 67.58 741.381 67.4165C740.99 67.1157 740.503 66.9697 740.011 67.0065C739.661 67.0041 739.316 67.0938 739.011 67.2665C738.709 67.4319 738.462 67.6822 738.301 67.9865C738.117 68.2952 738.017 68.647 738.011 69.0065H739.301C739.291 68.7686 739.357 68.5337 739.491 68.3365C739.541 68.2621 739.608 68.2002 739.686 68.1556C739.764 68.1109 739.852 68.0847 739.941 68.0789C740.031 68.0731 740.121 68.0879 740.204 68.1221C740.287 68.1564 740.361 68.2092 740.421 68.2765C740.537 68.4468 740.593 68.6508 740.581 68.8565C740.498 69.3403 740.264 69.7851 739.911 70.1265L738.121 72.1265V73.0065H742.011ZM739.111 53.5265C739.861 53.5271 740.581 53.8257 741.111 54.3565C741.187 53.6934 741.046 53.0235 740.711 52.4465C740.569 52.2045 740.366 52.0041 740.122 51.8654C739.878 51.7268 739.602 51.6547 739.321 51.6565C738.676 51.6604 738.037 51.7754 737.431 51.9965L737.211 50.5165C737.946 50.1623 738.755 49.9875 739.571 50.0065C740.261 49.9902 740.939 50.1894 741.511 50.5765C742.061 50.9695 742.469 51.5312 742.671 52.1765C742.93 52.949 743.045 53.7625 743.011 54.5765C743.007 55.751 742.783 56.9144 742.351 58.0065C742.009 58.8887 741.435 59.6624 740.691 60.2465C740 60.7638 739.153 61.0285 738.291 60.9965C737.633 60.9962 736.988 60.8201 736.421 60.4865C735.912 60.1796 735.516 59.7167 735.291 59.1665C735.038 58.5671 734.942 57.9133 735.011 57.2665V57.1165C735.088 56.4423 735.321 55.7953 735.691 55.2265C736.052 54.6826 736.548 54.2416 737.131 53.9465C737.744 53.6391 738.426 53.4945 739.111 53.5265ZM739.281 55.1765C739.026 55.1608 738.771 55.2 738.533 55.2915C738.295 55.3829 738.08 55.5245 737.901 55.7065C737.504 56.1196 737.261 56.656 737.211 57.2265C737.189 57.4994 737.189 57.7736 737.211 58.0465C737.207 58.3937 737.328 58.7308 737.551 58.9965C737.668 59.1158 737.808 59.2094 737.963 59.2714C738.118 59.3334 738.284 59.3624 738.451 59.3565C738.707 59.3723 738.963 59.3281 739.2 59.2274C739.436 59.1267 739.645 58.9723 739.811 58.7765C740.243 58.2511 740.514 57.6122 740.591 56.9365L740.741 56.1165C740.651 55.8313 740.463 55.5869 740.211 55.4265C739.932 55.2548 739.609 55.1679 739.281 55.1765ZM748.011 54.0065V52.9465H745.821L746.541 52.0665C746.84 51.7524 747.117 51.4183 747.371 51.0665C747.53 50.8521 747.658 50.6165 747.751 50.3665C747.83 50.1485 747.871 49.9184 747.871 49.6865C747.886 49.452 747.85 49.2169 747.766 48.9975C747.681 48.7782 747.55 48.58 747.381 48.4165C746.99 48.1157 746.503 47.9697 746.011 48.0065C745.661 48.0041 745.316 48.0938 745.011 48.2665C744.709 48.4319 744.462 48.6822 744.301 48.9865C744.117 49.2952 744.017 49.647 744.011 50.0065H745.301C745.291 49.7686 745.357 49.5337 745.491 49.3365C745.541 49.2621 745.608 49.2002 745.686 49.1556C745.764 49.1109 745.852 49.0847 745.941 49.0789C746.031 49.0731 746.121 49.0879 746.204 49.1221C746.287 49.1564 746.361 49.2092 746.421 49.2765C746.537 49.4468 746.593 49.6508 746.581 49.8565C746.498 50.3403 746.264 50.7851 745.911 51.1265L744.121 53.1265V54.0065H748.011ZM733.111 72.5265C733.861 72.5271 734.581 72.8256 735.111 73.3565C735.187 72.6934 735.046 72.0235 734.711 71.4465C734.569 71.2045 734.366 71.0041 734.122 70.8654C733.878 70.7268 733.602 70.6547 733.321 70.6565C732.676 70.6604 732.037 70.7754 731.431 70.9965L731.211 69.5165C731.946 69.1623 732.755 68.9875 733.571 69.0065C734.261 68.9902 734.939 69.1894 735.511 69.5765C736.061 69.9695 736.469 70.5312 736.671 71.1765C736.93 71.949 737.045 72.7625 737.011 73.5765C737.007 74.751 736.783 75.9144 736.351 77.0065C736.009 77.8887 735.435 78.6624 734.691 79.2465C734 79.7638 733.153 80.0285 732.291 79.9965C731.633 79.9962 730.988 79.8201 730.421 79.4865C729.912 79.1797 729.516 78.7167 729.291 78.1665C729.038 77.5671 728.942 76.9133 729.011 76.2665V76.1165C729.088 75.4423 729.321 74.7953 729.691 74.2265C730.052 73.6826 730.548 73.2416 731.131 72.9465C731.744 72.6391 732.426 72.4945 733.111 72.5265ZM733.281 74.1765C733.026 74.1608 732.771 74.2 732.533 74.2915C732.295 74.3829 732.08 74.5245 731.901 74.7065C731.504 75.1196 731.261 75.656 731.211 76.2265C731.189 76.4994 731.189 76.7736 731.211 77.0465C731.195 77.4107 731.316 77.7678 731.551 78.0465C731.668 78.1658 731.808 78.2594 731.963 78.3214C732.118 78.3834 732.284 78.4124 732.451 78.4065C732.707 78.4223 732.963 78.3781 733.2 78.2774C733.436 78.1767 733.645 78.0223 733.811 77.8265C734.243 77.3011 734.514 76.6622 734.591 75.9865L734.741 75.1665C734.651 74.8813 734.463 74.6369 734.211 74.4765C733.937 74.2871 733.614 74.1828 733.281 74.1765Z" fill="white"/>
<path d="M750.011 72.0065V76.0065H746.011V72.0065H750.011ZM752.011 70.0065H744.011V78.0065H752.011V70.0065Z" fill="white"/>
</g>
<g filter="url(#filter23_d_1176_11242)">
<rect x="787" y="34" width="60" height="60" rx="8" fill="#0D0D0D"/>
<path d="M815.44 68.89L819.08 64.14L819.1 64.11V63.86L815.47 59.13H821.66V57H812V58.57L816.32 63.99L812.02 69.41L812 69.43V71H822V68.89H815.44Z" fill="white"/>
<path d="M819 48V52H815V48H819ZM821 46H813V54H821V46ZM825 76V80H821V76H825ZM827 74H819V82H827V74ZM813 76V80H809V76H813ZM815 74H807V82H815V74Z" fill="white"/>
</g>
<g filter="url(#filter24_d_1176_11242)">
<rect x="863" y="34" width="60" height="60" rx="8" fill="#0D0D0D"/>
<path fill-rule="evenodd" clip-rule="evenodd" d="M897.48 61.0587H896.2L895.38 65.9087C895.365 66.0316 895.365 66.1558 895.38 66.2787C895.38 66.6287 895.63 66.8187 896.04 66.8387C896.275 66.834 896.51 66.8072 896.74 66.7587L896.6 68.3287C896.2 68.4432 895.786 68.5005 895.37 68.4987C895.078 68.5141 894.787 68.4595 894.521 68.3395C894.255 68.2194 894.021 68.0374 893.84 67.8087C893.477 67.2802 893.333 66.6311 893.44 65.9987L894.25 61.0587H891.59L890.31 68.4087H888.31L889.59 61.0587H888.25L888.53 59.4987H897.75L897.48 61.0587Z" fill="white"/>
</g>
<defs>
<filter id="filter0_bd_1176_11242" x="0" y="-2" width="965" height="226" filterUnits="userSpaceOnUse" color-interpolation-filters="sRGB">
<feFlood flood-opacity="0" result="BackgroundImageFix"/>
<feGaussianBlur in="BackgroundImage" stdDeviation="9"/>
<feComposite in2="SourceAlpha" operator="in" result="effect1_backgroundBlur_1176_11242"/>
<feColorMatrix in="SourceAlpha" type="matrix" values="0 0 0 0 0 0 0 0 0 0 0 0 0 0 0 0 0 0 127 0" result="hardAlpha"/>
<feOffset dy="8"/>
<feGaussianBlur stdDeviation="12"/>
<feComposite in2="hardAlpha" operator="out"/>
<feColorMatrix type="matrix" values="0 0 0 0 0.105882 0 0 0 0 0.180392 0 0 0 0 0.368627 0 0 0 0.08 0"/>
<feBlend mode="normal" in2="effect1_backgroundBlur_1176_11242" result="effect2_dropShadow_1176_11242"/>
<feBlend mode="normal" in="SourceGraphic" in2="effect2_dropShadow_1176_11242" result="shape"/>
</filter>
<filter id="filter1_d_1176_11242" x="89" y="95" width="108" height="108" filterUnits="userSpaceOnUse" color-interpolation-filters="sRGB">
<feFlood flood-opacity="0" result="BackgroundImageFix"/>
<feColorMatrix in="SourceAlpha" type="matrix" values="0 0 0 0 0 0 0 0 0 0 0 0 0 0 0 0 0 0 127 0" result="hardAlpha"/>
<feOffset dy="8"/>
<feGaussianBlur stdDeviation="12"/>
<feComposite in2="hardAlpha" operator="out"/>
<feColorMatrix type="matrix" values="0 0 0 0 0.105882 0 0 0 0 0.180392 0 0 0 0 0.368627 0 0 0 0.04 0"/>
<feBlend mode="normal" in2="BackgroundImageFix" result="effect1_dropShadow_1176_11242"/>
<feBlend mode="normal" in="SourceGraphic" in2="effect1_dropShadow_1176_11242" result="shape"/>
</filter>
<filter id="filter2_d_1176_11242" x="16" y="95" width="108" height="108" filterUnits="userSpaceOnUse" color-interpolation-filters="sRGB">
<feFlood flood-opacity="0" result="BackgroundImageFix"/>
<feColorMatrix in="SourceAlpha" type="matrix" values="0 0 0 0 0 0 0 0 0 0 0 0 0 0 0 0 0 0 127 0" result="hardAlpha"/>
<feOffset dy="8"/>
<feGaussianBlur stdDeviation="12"/>
<feComposite in2="hardAlpha" operator="out"/>
<feColorMatrix type="matrix" values="0 0 0 0 0.105882 0 0 0 0 0.180392 0 0 0 0 0.368627 0 0 0 0.04 0"/>
<feBlend mode="normal" in2="BackgroundImageFix" result="effect1_dropShadow_1176_11242"/>
<feBlend mode="normal" in="SourceGraphic" in2="effect1_dropShadow_1176_11242" result="shape"/>
</filter>
<filter id="filter3_d_1176_11242" x="236" y="95" width="108" height="108" filterUnits="userSpaceOnUse" color-interpolation-filters="sRGB">
<feFlood flood-opacity="0" result="BackgroundImageFix"/>
<feColorMatrix in="SourceAlpha" type="matrix" values="0 0 0 0 0 0 0 0 0 0 0 0 0 0 0 0 0 0 127 0" result="hardAlpha"/>
<feOffset dy="8"/>
<feGaussianBlur stdDeviation="12"/>
<feComposite in2="hardAlpha" operator="out"/>
<feColorMatrix type="matrix" values="0 0 0 0 0.105882 0 0 0 0 0.180392 0 0 0 0 0.368627 0 0 0 0.04 0"/>
<feBlend mode="normal" in2="BackgroundImageFix" result="effect1_dropShadow_1176_11242"/>
<feBlend mode="normal" in="SourceGraphic" in2="effect1_dropShadow_1176_11242" result="shape"/>
</filter>
<filter id="filter4_d_1176_11242" x="162" y="95" width="108" height="108" filterUnits="userSpaceOnUse" color-interpolation-filters="sRGB">
<feFlood flood-opacity="0" result="BackgroundImageFix"/>
<feColorMatrix in="SourceAlpha" type="matrix" values="0 0 0 0 0 0 0 0 0 0 0 0 0 0 0 0 0 0 127 0" result="hardAlpha"/>
<feOffset dy="8"/>
<feGaussianBlur stdDeviation="12"/>
<feComposite in2="hardAlpha" operator="out"/>
<feColorMatrix type="matrix" values="0 0 0 0 0.105882 0 0 0 0 0.180392 0 0 0 0 0.368627 0 0 0 0.04 0"/>
<feBlend mode="normal" in2="BackgroundImageFix" result="effect1_dropShadow_1176_11242"/>
<feBlend mode="normal" in="SourceGraphic" in2="effect1_dropShadow_1176_11242" result="shape"/>
</filter>
<filter id="filter5_d_1176_11242" x="310" y="95" width="108" height="108" filterUnits="userSpaceOnUse" color-interpolation-filters="sRGB">
<feFlood flood-opacity="0" result="BackgroundImageFix"/>
<feColorMatrix in="SourceAlpha" type="matrix" values="0 0 0 0 0 0 0 0 0 0 0 0 0 0 0 0 0 0 127 0" result="hardAlpha"/>
<feOffset dy="8"/>
<feGaussianBlur stdDeviation="12"/>
<feComposite in2="hardAlpha" operator="out"/>
<feColorMatrix type="matrix" values="0 0 0 0 0.105882 0 0 0 0 0.180392 0 0 0 0 0.368627 0 0 0 0.04 0"/>
<feBlend mode="normal" in2="BackgroundImageFix" result="effect1_dropShadow_1176_11242"/>
<feBlend mode="normal" in="SourceGraphic" in2="effect1_dropShadow_1176_11242" result="shape"/>
</filter>
<filter id="filter6_d_1176_11242" x="385" y="95" width="108" height="108" filterUnits="userSpaceOnUse" color-interpolation-filters="sRGB">
<feFlood flood-opacity="0" result="BackgroundImageFix"/>
<feColorMatrix in="SourceAlpha" type="matrix" values="0 0 0 0 0 0 0 0 0 0 0 0 0 0 0 0 0 0 127 0" result="hardAlpha"/>
<feOffset dy="8"/>
<feGaussianBlur stdDeviation="12"/>
<feComposite in2="hardAlpha" operator="out"/>
<feColorMatrix type="matrix" values="0 0 0 0 0.105882 0 0 0 0 0.180392 0 0 0 0 0.368627 0 0 0 0.04 0"/>
<feBlend mode="normal" in2="BackgroundImageFix" result="effect1_dropShadow_1176_11242"/>
<feBlend mode="normal" in="SourceGraphic" in2="effect1_dropShadow_1176_11242" result="shape"/>
</filter>
<filter id="filter7_d_1176_11242" x="460" y="95" width="108" height="108" filterUnits="userSpaceOnUse" color-interpolation-filters="sRGB">
<feFlood flood-opacity="0" result="BackgroundImageFix"/>
<feColorMatrix in="SourceAlpha" type="matrix" values="0 0 0 0 0 0 0 0 0 0 0 0 0 0 0 0 0 0 127 0" result="hardAlpha"/>
<feOffset dy="8"/>
<feGaussianBlur stdDeviation="12"/>
<feComposite in2="hardAlpha" operator="out"/>
<feColorMatrix type="matrix" values="0 0 0 0 0.105882 0 0 0 0 0.180392 0 0 0 0 0.368627 0 0 0 0.04 0"/>
<feBlend mode="normal" in2="BackgroundImageFix" result="effect1_dropShadow_1176_11242"/>
<feBlend mode="normal" in="SourceGraphic" in2="effect1_dropShadow_1176_11242" result="shape"/>
</filter>
<filter id="filter8_d_1176_11242" x="535" y="95" width="108" height="108" filterUnits="userSpaceOnUse" color-interpolation-filters="sRGB">
<feFlood flood-opacity="0" result="BackgroundImageFix"/>
<feColorMatrix in="SourceAlpha" type="matrix" values="0 0 0 0 0 0 0 0 0 0 0 0 0 0 0 0 0 0 127 0" result="hardAlpha"/>
<feOffset dy="8"/>
<feGaussianBlur stdDeviation="12"/>
<feComposite in2="hardAlpha" operator="out"/>
<feColorMatrix type="matrix" values="0 0 0 0 0.105882 0 0 0 0 0.180392 0 0 0 0 0.368627 0 0 0 0.04 0"/>
<feBlend mode="normal" in2="BackgroundImageFix" result="effect1_dropShadow_1176_11242"/>
<feBlend mode="normal" in="SourceGraphic" in2="effect1_dropShadow_1176_11242" result="shape"/>
</filter>
<filter id="filter9_d_1176_11242" x="611" y="95" width="108" height="108" filterUnits="userSpaceOnUse" color-interpolation-filters="sRGB">
<feFlood flood-opacity="0" result="BackgroundImageFix"/>
<feColorMatrix in="SourceAlpha" type="matrix" values="0 0 0 0 0 0 0 0 0 0 0 0 0 0 0 0 0 0 127 0" result="hardAlpha"/>
<feOffset dy="8"/>
<feGaussianBlur stdDeviation="12"/>
<feComposite in2="hardAlpha" operator="out"/>
<feColorMatrix type="matrix" values="0 0 0 0 0.105882 0 0 0 0 0.180392 0 0 0 0 0.368627 0 0 0 0.04 0"/>
<feBlend mode="normal" in2="BackgroundImageFix" result="effect1_dropShadow_1176_11242"/>
<feBlend mode="normal" in="SourceGraphic" in2="effect1_dropShadow_1176_11242" result="shape"/>
</filter>
<filter id="filter10_d_1176_11242" x="687" y="95" width="108" height="108" filterUnits="userSpaceOnUse" color-interpolation-filters="sRGB">
<feFlood flood-opacity="0" result="BackgroundImageFix"/>
<feColorMatrix in="SourceAlpha" type="matrix" values="0 0 0 0 0 0 0 0 0 0 0 0 0 0 0 0 0 0 127 0" result="hardAlpha"/>
<feOffset dy="8"/>
<feGaussianBlur stdDeviation="12"/>
<feComposite in2="hardAlpha" operator="out"/>
<feColorMatrix type="matrix" values="0 0 0 0 0.105882 0 0 0 0 0.180392 0 0 0 0 0.368627 0 0 0 0.04 0"/>
<feBlend mode="normal" in2="BackgroundImageFix" result="effect1_dropShadow_1176_11242"/>
<feBlend mode="normal" in="SourceGraphic" in2="effect1_dropShadow_1176_11242" result="shape"/>
</filter>
<filter id="filter11_d_1176_11242" x="763" y="95" width="108" height="108" filterUnits="userSpaceOnUse" color-interpolation-filters="sRGB">
<feFlood flood-opacity="0" result="BackgroundImageFix"/>
<feColorMatrix in="SourceAlpha" type="matrix" values="0 0 0 0 0 0 0 0 0 0 0 0 0 0 0 0 0 0 127 0" result="hardAlpha"/>
<feOffset dy="8"/>
<feGaussianBlur stdDeviation="12"/>
<feComposite in2="hardAlpha" operator="out"/>
<feColorMatrix type="matrix" values="0 0 0 0 0.105882 0 0 0 0 0.180392 0 0 0 0 0.368627 0 0 0 0.04 0"/>
<feBlend mode="normal" in2="BackgroundImageFix" result="effect1_dropShadow_1176_11242"/>
<feBlend mode="normal" in="SourceGraphic" in2="effect1_dropShadow_1176_11242" result="shape"/>
</filter>
<filter id="filter12_d_1176_11242" x="839" y="95" width="108" height="108" filterUnits="userSpaceOnUse" color-interpolation-filters="sRGB">
<feFlood flood-opacity="0" result="BackgroundImageFix"/>
<feColorMatrix in="SourceAlpha" type="matrix" values="0 0 0 0 0 0 0 0 0 0 0 0 0 0 0 0 0 0 127 0" result="hardAlpha"/>
<feOffset dy="8"/>
<feGaussianBlur stdDeviation="12"/>
<feComposite in2="hardAlpha" operator="out"/>
<feColorMatrix type="matrix" values="0 0 0 0 0.105882 0 0 0 0 0.180392 0 0 0 0 0.368627 0 0 0 0.04 0"/>
<feBlend mode="normal" in2="BackgroundImageFix" result="effect1_dropShadow_1176_11242"/>
<feBlend mode="normal" in="SourceGraphic" in2="effect1_dropShadow_1176_11242" result="shape"/>
</filter>
<filter id="filter13_d_1176_11242" x="16" y="18" width="108" height="108" filterUnits="userSpaceOnUse" color-interpolation-filters="sRGB">
<feFlood flood-opacity="0" result="BackgroundImageFix"/>
<feColorMatrix in="SourceAlpha" type="matrix" values="0 0 0 0 0 0 0 0 0 0 0 0 0 0 0 0 0 0 127 0" result="hardAlpha"/>
<feOffset dy="8"/>
<feGaussianBlur stdDeviation="12"/>
<feComposite in2="hardAlpha" operator="out"/>
<feColorMatrix type="matrix" values="0 0 0 0 0.105882 0 0 0 0 0.180392 0 0 0 0 0.368627 0 0 0 0.04 0"/>
<feBlend mode="normal" in2="BackgroundImageFix" result="effect1_dropShadow_1176_11242"/>
<feBlend mode="normal" in="SourceGraphic" in2="effect1_dropShadow_1176_11242" result="shape"/>
</filter>
<filter id="filter14_d_1176_11242" x="89" y="18" width="108" height="108" filterUnits="userSpaceOnUse" color-interpolation-filters="sRGB">
<feFlood flood-opacity="0" result="BackgroundImageFix"/>
<feColorMatrix in="SourceAlpha" type="matrix" values="0 0 0 0 0 0 0 0 0 0 0 0 0 0 0 0 0 0 127 0" result="hardAlpha"/>
<feOffset dy="8"/>
<feGaussianBlur stdDeviation="12"/>
<feComposite in2="hardAlpha" operator="out"/>
<feColorMatrix type="matrix" values="0 0 0 0 0.105882 0 0 0 0 0.180392 0 0 0 0 0.368627 0 0 0 0.04 0"/>
<feBlend mode="normal" in2="BackgroundImageFix" result="effect1_dropShadow_1176_11242"/>
<feBlend mode="normal" in="SourceGraphic" in2="effect1_dropShadow_1176_11242" result="shape"/>
</filter>
<filter id="filter15_d_1176_11242" x="162" y="18" width="108" height="108" filterUnits="userSpaceOnUse" color-interpolation-filters="sRGB">
<feFlood flood-opacity="0" result="BackgroundImageFix"/>
<feColorMatrix in="SourceAlpha" type="matrix" values="0 0 0 0 0 0 0 0 0 0 0 0 0 0 0 0 0 0 127 0" result="hardAlpha"/>
<feOffset dy="8"/>
<feGaussianBlur stdDeviation="12"/>
<feComposite in2="hardAlpha" operator="out"/>
<feColorMatrix type="matrix" values="0 0 0 0 0.105882 0 0 0 0 0.180392 0 0 0 0 0.368627 0 0 0 0.04 0"/>
<feBlend mode="normal" in2="BackgroundImageFix" result="effect1_dropShadow_1176_11242"/>
<feBlend mode="normal" in="SourceGraphic" in2="effect1_dropShadow_1176_11242" result="shape"/>
</filter>
<filter id="filter16_d_1176_11242" x="236" y="18" width="108" height="108" filterUnits="userSpaceOnUse" color-interpolation-filters="sRGB">
<feFlood flood-opacity="0" result="BackgroundImageFix"/>
<feColorMatrix in="SourceAlpha" type="matrix" values="0 0 0 0 0 0 0 0 0 0 0 0 0 0 0 0 0 0 127 0" result="hardAlpha"/>
<feOffset dy="8"/>
<feGaussianBlur stdDeviation="12"/>
<feComposite in2="hardAlpha" operator="out"/>
<feColorMatrix type="matrix" values="0 0 0 0 0.105882 0 0 0 0 0.180392 0 0 0 0 0.368627 0 0 0 0.04 0"/>
<feBlend mode="normal" in2="BackgroundImageFix" result="effect1_dropShadow_1176_11242"/>
<feBlend mode="normal" in="SourceGraphic" in2="effect1_dropShadow_1176_11242" result="shape"/>
</filter>
<filter id="filter17_d_1176_11242" x="310" y="18" width="108" height="108" filterUnits="userSpaceOnUse" color-interpolation-filters="sRGB">
<feFlood flood-opacity="0" result="BackgroundImageFix"/>
<feColorMatrix in="SourceAlpha" type="matrix" values="0 0 0 0 0 0 0 0 0 0 0 0 0 0 0 0 0 0 127 0" result="hardAlpha"/>
<feOffset dy="8"/>
<feGaussianBlur stdDeviation="12"/>
<feComposite in2="hardAlpha" operator="out"/>
<feColorMatrix type="matrix" values="0 0 0 0 0.105882 0 0 0 0 0.180392 0 0 0 0 0.368627 0 0 0 0.04 0"/>
<feBlend mode="normal" in2="BackgroundImageFix" result="effect1_dropShadow_1176_11242"/>
<feBlend mode="normal" in="SourceGraphic" in2="effect1_dropShadow_1176_11242" result="shape"/>
</filter>
<filter id="filter18_d_1176_11242" x="385" y="18" width="108" height="108" filterUnits="userSpaceOnUse" color-interpolation-filters="sRGB">
<feFlood flood-opacity="0" result="BackgroundImageFix"/>
<feColorMatrix in="SourceAlpha" type="matrix" values="0 0 0 0 0 0 0 0 0 0 0 0 0 0 0 0 0 0 127 0" result="hardAlpha"/>
<feOffset dy="8"/>
<feGaussianBlur stdDeviation="12"/>
<feComposite in2="hardAlpha" operator="out"/>
<feColorMatrix type="matrix" values="0 0 0 0 0.105882 0 0 0 0 0.180392 0 0 0 0 0.368627 0 0 0 0.04 0"/>
<feBlend mode="normal" in2="BackgroundImageFix" result="effect1_dropShadow_1176_11242"/>
<feBlend mode="normal" in="SourceGraphic" in2="effect1_dropShadow_1176_11242" result="shape"/>
</filter>
<filter id="filter19_d_1176_11242" x="460" y="18" width="108" height="108" filterUnits="userSpaceOnUse" color-interpolation-filters="sRGB">
<feFlood flood-opacity="0" result="BackgroundImageFix"/>
<feColorMatrix in="SourceAlpha" type="matrix" values="0 0 0 0 0 0 0 0 0 0 0 0 0 0 0 0 0 0 127 0" result="hardAlpha"/>
<feOffset dy="8"/>
<feGaussianBlur stdDeviation="12"/>
<feComposite in2="hardAlpha" operator="out"/>
<feColorMatrix type="matrix" values="0 0 0 0 0.105882 0 0 0 0 0.180392 0 0 0 0 0.368627 0 0 0 0.04 0"/>
<feBlend mode="normal" in2="BackgroundImageFix" result="effect1_dropShadow_1176_11242"/>
<feBlend mode="normal" in="SourceGraphic" in2="effect1_dropShadow_1176_11242" result="shape"/>
</filter>
<filter id="filter20_d_1176_11242" x="535" y="18" width="108" height="108" filterUnits="userSpaceOnUse" color-interpolation-filters="sRGB">
<feFlood flood-opacity="0" result="BackgroundImageFix"/>
<feColorMatrix in="SourceAlpha" type="matrix" values="0 0 0 0 0 0 0 0 0 0 0 0 0 0 0 0 0 0 127 0" result="hardAlpha"/>
<feOffset dy="8"/>
<feGaussianBlur stdDeviation="12"/>
<feComposite in2="hardAlpha" operator="out"/>
<feColorMatrix type="matrix" values="0 0 0 0 0.105882 0 0 0 0 0.180392 0 0 0 0 0.368627 0 0 0 0.04 0"/>
<feBlend mode="normal" in2="BackgroundImageFix" result="effect1_dropShadow_1176_11242"/>
<feBlend mode="normal" in="SourceGraphic" in2="effect1_dropShadow_1176_11242" result="shape"/>
</filter>
<filter id="filter21_d_1176_11242" x="611" y="18" width="108" height="108" filterUnits="userSpaceOnUse" color-interpolation-filters="sRGB">
<feFlood flood-opacity="0" result="BackgroundImageFix"/>
<feColorMatrix in="SourceAlpha" type="matrix" values="0 0 0 0 0 0 0 0 0 0 0 0 0 0 0 0 0 0 127 0" result="hardAlpha"/>
<feOffset dy="8"/>
<feGaussianBlur stdDeviation="12"/>
<feComposite in2="hardAlpha" operator="out"/>
<feColorMatrix type="matrix" values="0 0 0 0 0.105882 0 0 0 0 0.180392 0 0 0 0 0.368627 0 0 0 0.04 0"/>
<feBlend mode="normal" in2="BackgroundImageFix" result="effect1_dropShadow_1176_11242"/>
<feBlend mode="normal" in="SourceGraphic" in2="effect1_dropShadow_1176_11242" result="shape"/>
</filter>
<filter id="filter22_d_1176_11242" x="687" y="18" width="108" height="108" filterUnits="userSpaceOnUse" color-interpolation-filters="sRGB">
<feFlood flood-opacity="0" result="BackgroundImageFix"/>
<feColorMatrix in="SourceAlpha" type="matrix" values="0 0 0 0 0 0 0 0 0 0 0 0 0 0 0 0 0 0 127 0" result="hardAlpha"/>
<feOffset dy="8"/>
<feGaussianBlur stdDeviation="12"/>
<feComposite in2="hardAlpha" operator="out"/>
<feColorMatrix type="matrix" values="0 0 0 0 0.105882 0 0 0 0 0.180392 0 0 0 0 0.368627 0 0 0 0.04 0"/>
<feBlend mode="normal" in2="BackgroundImageFix" result="effect1_dropShadow_1176_11242"/>
<feBlend mode="normal" in="SourceGraphic" in2="effect1_dropShadow_1176_11242" result="shape"/>
</filter>
<filter id="filter23_d_1176_11242" x="763" y="18" width="108" height="108" filterUnits="userSpaceOnUse" color-interpolation-filters="sRGB">
<feFlood flood-opacity="0" result="BackgroundImageFix"/>
<feColorMatrix in="SourceAlpha" type="matrix" values="0 0 0 0 0 0 0 0 0 0 0 0 0 0 0 0 0 0 127 0" result="hardAlpha"/>
<feOffset dy="8"/>
<feGaussianBlur stdDeviation="12"/>
<feComposite in2="hardAlpha" operator="out"/>
<feColorMatrix type="matrix" values="0 0 0 0 0.105882 0 0 0 0 0.180392 0 0 0 0 0.368627 0 0 0 0.04 0"/>
<feBlend mode="normal" in2="BackgroundImageFix" result="effect1_dropShadow_1176_11242"/>
<feBlend mode="normal" in="SourceGraphic" in2="effect1_dropShadow_1176_11242" result="shape"/>
</filter>
<filter id="filter24_d_1176_11242" x="839" y="18" width="108" height="108" filterUnits="userSpaceOnUse" color-interpolation-filters="sRGB">
<feFlood flood-opacity="0" result="BackgroundImageFix"/>
<feColorMatrix in="SourceAlpha" type="matrix" values="0 0 0 0 0 0 0 0 0 0 0 0 0 0 0 0 0 0 127 0" result="hardAlpha"/>
<feOffset dy="8"/>
<feGaussianBlur stdDeviation="12"/>
<feComposite in2="hardAlpha" operator="out"/>
<feColorMatrix type="matrix" values="0 0 0 0 0.105882 0 0 0 0 0.180392 0 0 0 0 0.368627 0 0 0 0.04 0"/>
<feBlend mode="normal" in2="BackgroundImageFix" result="effect1_dropShadow_1176_11242"/>
<feBlend mode="normal" in="SourceGraphic" in2="effect1_dropShadow_1176_11242" result="shape"/>
</filter>
</defs>
</svg>
