<svg width="35" height="34" viewBox="0 0 25 24" fill="none" xmlns="http://www.w3.org/2000/svg">
<path d="M11.0425 1.95723C12.0653 0.911 13.6112 0.278578 15.0686 0.663757C16.2346 0.960449 16.9763 2.41788 16.4896 3.51877C16.0212 4.47391 14.4674 4.362 14.1369 3.3522C13.8064 2.62088 14.4518 2.01188 14.8318 1.46535C14.0354 0.786077 12.8773 1.16345 12.4088 2.0327C11.2585 3.97161 10.6573 6.18379 10.0925 8.35173C11.2403 8.35433 12.3854 8.35433 13.5305 8.35433C13.3561 8.70047 13.1844 9.04921 13.01 9.39535C11.9612 9.39535 10.9123 9.39535 9.8635 9.39535C9.17122 12.6824 8.72358 16.0605 7.4275 19.181C6.72741 20.831 5.66817 22.5331 3.91404 23.1915C2.81316 23.5767 1.34271 23.6314 0.533316 22.6502C-0.0236327 21.9423 -0.307312 20.6983 0.509893 20.0711C1.2308 19.4673 2.45401 19.9539 2.57893 20.8805C2.72467 21.5493 2.13389 22.0256 1.81638 22.5305C2.25881 22.7751 2.76111 23.0484 3.27121 22.8116C4.28621 22.429 4.72084 21.3177 5.03315 20.3652C6.05856 16.7632 6.48537 13.0259 7.39627 9.39535C6.31881 9.39535 5.23875 9.39535 4.16129 9.39535C4.33566 9.04661 4.50743 8.70047 4.6818 8.35433C5.68379 8.35433 6.68577 8.35693 7.68516 8.35173C8.41908 6.05627 9.33518 3.71136 11.0425 1.95723Z" fill="#fff"/>
<path d="M16.2451 8.74214C17.1039 8.15917 18.4052 8.23724 19.0923 9.05184C19.7845 9.88206 19.9381 10.996 20.2114 12.0058C21.091 11.0298 21.9551 10.0382 22.8321 9.06225C23.1783 8.6979 23.5999 8.21642 24.1647 8.37778C24.9324 8.51832 25.2707 9.60098 24.6669 10.1241C24.2766 10.5926 23.6754 10.3297 23.1783 10.2542C22.2778 11.2458 21.3877 12.2504 20.495 13.2498C20.7423 14.3481 20.849 15.488 21.2654 16.5368C21.4658 17.1172 22.2283 17.4009 22.741 17.0417C23.3657 16.6201 23.6233 15.868 23.9799 15.2381C24.3182 15.2902 24.6591 15.3396 25.0001 15.3943C24.4067 16.5498 23.7795 17.8121 22.6057 18.4757C21.713 18.9988 20.4352 18.788 19.821 17.937C19.2224 17.1172 19.0636 16.084 18.8086 15.1236C17.9367 16.0996 17.0727 17.0833 16.1982 18.0567C15.8521 18.4211 15.4305 18.8947 14.8657 18.7412C14.1005 18.5928 13.7648 17.5388 14.353 17.0027C14.7434 16.5238 15.3524 16.7841 15.8547 16.8647C16.7526 15.8758 17.64 14.8764 18.5301 13.877C18.2829 12.7865 18.1736 11.6518 17.7676 10.603C17.575 10.0096 16.802 9.71029 16.2815 10.0773C15.6595 10.4989 15.4044 11.251 15.0505 11.8808C14.7095 11.8288 14.3712 11.7767 14.0303 11.7247C14.5924 10.6238 15.1806 9.44223 16.2451 8.74214Z" fill="#fff"/>
</svg>
