<svg width="330" height="86" viewBox="0 0 330 86" fill="none" xmlns="http://www.w3.org/2000/svg">
<path d="M8.5567 49.5494C8.5567 49.4426 8.5567 49.3713 7.99078 48.7659C4.66184 45.1687 2.79763 39.2921 2.79763 32.0265C2.79763 25.1171 4.36223 19.1693 8.22381 14.9666C8.5567 14.6461 8.5567 14.5749 8.5567 14.468C8.5567 14.2543 8.39025 14.1831 8.2571 14.1831C7.82433 14.1831 5.0946 16.7474 3.46342 20.2378C1.76566 23.8349 1 27.6458 1 32.0265C1 35.1963 1.46605 39.4346 3.1971 43.2454C5.16118 47.5193 7.89091 49.8343 8.2571 49.8343C8.39025 49.8343 8.5567 49.7631 8.5567 49.5494Z" fill="#5F5B80" stroke="#5F5B80" stroke-width="0.5"/>
<path d="M20.0014 18.0652C20.0014 17.2461 20.0014 17.2104 19.3356 17.2104C18.5366 18.1721 16.8722 19.4898 13.4434 19.4898V20.5227C14.209 20.5227 15.8735 20.5227 17.7044 19.5967V38.1524C17.7044 39.4346 17.6045 39.862 14.6751 39.862H13.6431V40.8948C14.5419 40.8236 17.771 40.8236 18.8695 40.8236C19.9681 40.8236 23.1639 40.8236 24.0627 40.8948V39.862H23.0307C20.1012 39.862 20.0014 39.4346 20.0014 38.1524V18.0652Z" fill="#5F5B80" stroke="#5F5B80" stroke-width="0.5"/>
<path d="M36.0987 32.0265C36.0987 29.3197 35.7658 24.9034 33.9016 20.772C31.9375 16.4981 29.2078 14.1831 28.8416 14.1831C28.7084 14.1831 28.542 14.2543 28.542 14.468C28.542 14.5749 28.542 14.6461 29.1079 15.2516C32.4369 18.8488 34.3011 24.7253 34.3011 31.9909C34.3011 38.9003 32.7365 44.8481 28.8749 49.0508C28.542 49.3713 28.542 49.4426 28.542 49.5494C28.542 49.7631 28.7084 49.8343 28.8416 49.8343C29.2744 49.8343 32.0041 47.27 33.6353 43.7797C35.333 40.1469 36.0987 36.3004 36.0987 32.0265Z" fill="#5F5B80" stroke="#5F5B80" stroke-width="0.5"/>
<path d="M55.1664 26.3635C54.1012 26.5772 53.7017 27.432 53.7017 28.1087C53.7017 28.9635 54.3342 29.2484 54.8002 29.2484C55.7989 29.2484 56.498 28.3224 56.498 27.3608C56.498 25.8649 54.9001 25.1882 53.5019 25.1882C51.4713 25.1882 50.3394 27.3252 50.0398 28.0019C49.2742 25.3307 47.2102 25.1882 46.611 25.1882C43.2155 25.1882 41.4179 29.8539 41.4179 30.6374C41.4179 30.7799 41.551 30.958 41.7841 30.958C42.0504 30.958 42.117 30.7443 42.1835 30.6018C43.3154 26.6485 45.5458 25.9005 46.5112 25.9005C48.0092 25.9005 48.3088 27.3964 48.3088 28.2512C48.3088 29.0347 48.1091 29.8539 47.7096 31.5634L46.5777 36.4428C46.0784 38.5797 45.113 40.5386 43.3487 40.5386C43.1822 40.5386 42.35 40.5386 41.6509 40.0756C42.8493 39.8262 43.1156 38.7578 43.1156 38.3304C43.1156 37.6181 42.6163 37.1907 41.9838 37.1907C41.1849 37.1907 40.3193 37.9386 40.3193 39.0783C40.3193 40.5742 41.8839 41.2509 43.3154 41.2509C44.9133 41.2509 46.0451 39.8975 46.7442 38.4372C47.2768 40.5386 48.9413 41.2509 50.173 41.2509C53.5685 41.2509 55.3662 36.5852 55.3662 35.8017C55.3662 35.6236 55.233 35.4811 55.0333 35.4811C54.7337 35.4811 54.7004 35.6592 54.6005 35.9441C53.7017 39.0783 51.7709 40.5386 50.2729 40.5386C49.1077 40.5386 48.4752 39.6126 48.4752 38.1523C48.4752 37.3688 48.6084 36.7989 49.141 34.4483L50.3062 29.6046C50.8055 27.4676 51.9373 25.9005 53.4687 25.9005C53.5352 25.9005 54.4673 25.9005 55.1664 26.3635Z" fill="#5F5B80" stroke="#5F5B80" stroke-width="0.5"/>
<path d="M62.349 42.3431C62.4156 41.987 62.6375 41.0847 62.7041 40.7286C63.0148 39.4464 63.0148 39.4226 63.5252 38.6391C64.2576 37.4757 65.3006 36.4309 66.7876 36.4309C67.5865 36.4309 68.0526 36.9296 68.0526 38.0455C68.0526 39.3514 67.1205 42.0582 66.6988 43.2216C66.4103 44.0052 66.4103 44.1477 66.4103 44.4563C66.4103 45.8097 67.4534 46.4745 68.4076 46.4745C70.5826 46.4745 71.4925 43.1504 71.4925 42.8417C71.4925 42.6043 71.3149 42.5331 71.1596 42.5331C70.8933 42.5331 70.8489 42.6993 70.7823 42.9367C70.2497 44.8837 69.3176 45.8097 68.4742 45.8097C68.1191 45.8097 67.9416 45.5723 67.9416 45.0262C67.9416 44.4801 68.1191 43.9577 68.3411 43.3641C68.674 42.4618 69.6505 39.7313 69.6505 38.4017C69.6505 36.6209 68.4964 35.7661 66.8985 35.7661C65.1009 35.7661 63.9469 36.9296 63.3033 37.8318C63.1479 36.5259 62.1714 35.7661 61.0396 35.7661C60.2406 35.7661 59.6858 36.3122 59.3307 37.0483C58.7981 38.1642 58.5762 39.3514 58.5762 39.3989C58.5762 39.6126 58.7315 39.7076 58.9091 39.7076C59.1976 39.7076 59.2198 39.6126 59.3751 38.9953C59.6414 37.8318 60.0409 36.4309 60.973 36.4309C61.55 36.4309 61.6832 37.0245 61.6832 37.5469C61.6832 37.9743 61.5722 38.4254 61.3947 39.209C61.3503 39.3989 61.0174 40.7998 60.9286 41.1322L60.1075 44.6938C60.0187 45.0499 59.8856 45.6435 59.8856 45.7385C59.8856 46.2846 60.3072 46.4745 60.5957 46.4745C60.9952 46.4745 61.3281 46.1896 61.4834 45.9047C61.55 45.7622 61.7276 44.9549 61.8385 44.4563L62.349 42.3431Z" fill="#5F5B80" stroke="#5F5B80" stroke-width="0.5"/>
<path d="M93.8432 34.0037H103.031C103.497 34.0037 104.096 34.0037 104.096 33.3626C104.096 32.6859 103.53 32.6859 103.031 32.6859H93.8432V22.856C93.8432 22.3574 93.8432 21.7163 93.244 21.7163C92.6115 21.7163 92.6115 22.3218 92.6115 22.856V32.6859H83.4237C82.9576 32.6859 82.3584 32.6859 82.3584 33.327C82.3584 34.0037 82.9243 34.0037 83.4237 34.0037H92.6115V43.8336C92.6115 44.3322 92.6115 44.9733 93.2108 44.9733C93.8432 44.9733 93.8432 44.3678 93.8432 43.8336V34.0037Z" fill="#5F5B80" stroke="#5F5B80" stroke-width="0.5"/>
<path d="M123.339 18.0652C123.339 17.2461 123.339 17.2104 122.673 17.2104C121.875 18.1721 120.21 19.4898 116.781 19.4898V20.5227C117.547 20.5227 119.211 20.5227 121.042 19.5967V38.1524C121.042 39.4346 120.942 39.862 118.013 39.862H116.981V40.8948C117.88 40.8236 121.109 40.8236 122.207 40.8236C123.306 40.8236 126.502 40.8236 127.401 40.8948V39.862H126.369C123.439 39.862 123.339 39.4346 123.339 38.1524V18.0652Z" fill="#5F5B80" stroke="#5F5B80" stroke-width="0.5"/>
<path d="M161.767 29.3553C162.234 29.3553 162.833 29.3553 162.833 28.7142C162.833 28.0375 162.267 28.0375 161.767 28.0375H142.16C141.694 28.0375 141.095 28.0375 141.095 28.6786C141.095 29.3553 141.661 29.3553 142.16 29.3553H161.767ZM161.767 35.9798C162.234 35.9798 162.833 35.9798 162.833 35.3387C162.833 34.662 162.267 34.662 161.767 34.662H142.16C141.694 34.662 141.095 34.662 141.095 35.3031C141.095 35.9798 141.661 35.9798 142.16 35.9798H161.767Z" fill="#5F5B80" stroke="#5F5B80" stroke-width="0.5"/>
<path d="M189.675 26.3635C188.61 26.5772 188.21 27.432 188.21 28.1087C188.21 28.9635 188.843 29.2484 189.309 29.2484C190.308 29.2484 191.007 28.3224 191.007 27.3608C191.007 25.8649 189.409 25.1882 188.011 25.1882C185.98 25.1882 184.848 27.3252 184.549 28.0019C183.783 25.3307 181.719 25.1882 181.12 25.1882C177.724 25.1882 175.927 29.8539 175.927 30.6374C175.927 30.7799 176.06 30.958 176.293 30.958C176.559 30.958 176.626 30.7443 176.692 30.6018C177.824 26.6485 180.055 25.9005 181.02 25.9005C182.518 25.9005 182.818 27.3964 182.818 28.2512C182.818 29.0347 182.618 29.8539 182.218 31.5634L181.087 36.4428C180.587 38.5797 179.622 40.5386 177.857 40.5386C177.691 40.5386 176.859 40.5386 176.16 40.0756C177.358 39.8262 177.624 38.7578 177.624 38.3304C177.624 37.6181 177.125 37.1907 176.493 37.1907C175.694 37.1907 174.828 37.9386 174.828 39.0783C174.828 40.5742 176.393 41.2509 177.824 41.2509C179.422 41.2509 180.554 39.8975 181.253 38.4372C181.786 40.5386 183.45 41.2509 184.682 41.2509C188.077 41.2509 189.875 36.5852 189.875 35.8017C189.875 35.6236 189.742 35.4811 189.542 35.4811C189.242 35.4811 189.209 35.6592 189.109 35.9441C188.21 39.0783 186.28 40.5386 184.782 40.5386C183.617 40.5386 182.984 39.6126 182.984 38.1523C182.984 37.3688 183.117 36.7989 183.65 34.4483L184.815 29.6046C185.314 27.4676 186.446 25.9005 187.977 25.9005C188.044 25.9005 188.976 25.9005 189.675 26.3635Z" fill="#5F5B80" stroke="#5F5B80" stroke-width="0.5"/>
<path d="M196.857 42.3431C196.923 41.987 197.145 41.0847 197.212 40.7286C197.523 39.4464 197.523 39.4226 198.033 38.6391C198.765 37.4757 199.808 36.4309 201.295 36.4309C202.094 36.4309 202.56 36.9296 202.56 38.0455C202.56 39.3514 201.628 42.0582 201.207 43.2216C200.918 44.0052 200.918 44.1477 200.918 44.4563C200.918 45.8097 201.961 46.4745 202.915 46.4745C205.09 46.4745 206 43.1504 206 42.8417C206 42.6043 205.823 42.5331 205.667 42.5331C205.401 42.5331 205.357 42.6993 205.29 42.9367C204.757 44.8837 203.825 45.8097 202.982 45.8097C202.627 45.8097 202.449 45.5723 202.449 45.0262C202.449 44.4801 202.627 43.9577 202.849 43.3641C203.182 42.4618 204.158 39.7313 204.158 38.4017C204.158 36.6209 203.004 35.7661 201.406 35.7661C199.609 35.7661 198.455 36.9296 197.811 37.8318C197.656 36.5259 196.679 35.7661 195.547 35.7661C194.748 35.7661 194.194 36.3122 193.839 37.0483C193.306 38.1642 193.084 39.3514 193.084 39.3989C193.084 39.6126 193.239 39.7076 193.417 39.7076C193.705 39.7076 193.728 39.6126 193.883 38.9953C194.149 37.8318 194.549 36.4309 195.481 36.4309C196.058 36.4309 196.191 37.0245 196.191 37.5469C196.191 37.9743 196.08 38.4254 195.902 39.209C195.858 39.3989 195.525 40.7998 195.436 41.1322L194.615 44.6938C194.527 45.0499 194.393 45.6435 194.393 45.7385C194.393 46.2846 194.815 46.4745 195.104 46.4745C195.503 46.4745 195.836 46.1896 195.991 45.9047C196.058 45.7622 196.235 44.9549 196.346 44.4563L196.857 42.3431Z" fill="#5F5B80" stroke="#5F5B80" stroke-width="0.5"/>
<path d="M267.945 13.3942C268.611 13.3942 268.877 13.3942 268.877 12.7175C268.877 12.3614 268.611 12.3614 268.012 12.3614H265.315C265.948 8.69296 266.414 6.16425 266.68 5.02455C266.88 4.16978 267.579 3.35062 268.445 3.35062C269.144 3.35062 269.843 3.67116 270.176 3.9917C268.877 4.13416 268.478 5.16701 268.478 5.77248C268.478 6.48479 268.977 6.91218 269.61 6.91218C270.275 6.91218 271.274 6.30671 271.274 4.95332C271.274 3.45747 269.876 2.63831 268.411 2.63831C266.98 2.63831 265.582 3.778 264.916 5.16701C264.317 6.41356 263.984 7.69572 263.218 12.3614H260.988C260.355 12.3614 260.022 12.3614 260.022 13.0024C260.022 13.3942 260.222 13.3942 260.888 13.3942H263.018C262.419 16.7065 261.054 24.7556 260.289 28.5665C259.723 31.665 259.223 34.265 257.559 34.265C257.459 34.265 256.494 34.265 255.894 33.5883C257.592 33.4458 257.592 31.8787 257.592 31.8431C257.592 31.1308 257.093 30.7034 256.46 30.7034C255.795 30.7034 254.796 31.3089 254.796 32.6623C254.796 34.1937 256.261 34.9773 257.559 34.9773C260.954 34.9773 262.353 28.4596 262.719 26.6788C263.318 23.9364 264.949 14.4627 265.116 13.3942H267.945Z" fill="#5F5B80" stroke="#5F5B80" stroke-width="0.5"/>
<path d="M283.538 36.3663C283.538 36.2595 283.538 36.1882 282.972 35.5828C279.643 31.9856 277.779 26.109 277.779 18.8434C277.779 11.934 279.344 5.98618 283.205 1.78354C283.538 1.463 283.538 1.39177 283.538 1.28492C283.538 1.07123 283.372 1 283.239 1C282.806 1 280.076 3.56432 278.445 7.05465C276.747 10.6518 275.981 14.4627 275.981 18.8434C275.981 22.0132 276.447 26.2515 278.179 30.0623C280.143 34.3362 282.872 36.6512 283.239 36.6512C283.372 36.6512 283.538 36.58 283.538 36.3663Z" fill="#5F5B80" stroke="#5F5B80" stroke-width="0.5"/>
<path d="M301.174 13.1806C300.109 13.3943 299.709 14.249 299.709 14.9257C299.709 15.7805 300.342 16.0654 300.808 16.0654C301.807 16.0654 302.506 15.1394 302.506 14.1778C302.506 12.6819 300.908 12.0052 299.51 12.0052C297.479 12.0052 296.347 14.1422 296.048 14.8189C295.282 12.1477 293.218 12.0052 292.619 12.0052C289.223 12.0052 287.426 16.6709 287.426 17.4544C287.426 17.5969 287.559 17.775 287.792 17.775C288.058 17.775 288.125 17.5613 288.191 17.4188C289.323 13.4655 291.554 12.7176 292.519 12.7176C294.017 12.7176 294.317 14.2134 294.317 15.0682C294.317 15.8517 294.117 16.6709 293.717 18.3804L292.586 23.2598C292.086 25.3967 291.121 27.3556 289.356 27.3556C289.19 27.3556 288.358 27.3556 287.659 26.8926C288.857 26.6433 289.123 25.5748 289.123 25.1474C289.123 24.4351 288.624 24.0077 287.992 24.0077C287.193 24.0077 286.327 24.7556 286.327 25.8953C286.327 27.3912 287.892 28.0679 289.323 28.0679C290.921 28.0679 292.053 26.7145 292.752 25.2543C293.285 27.3556 294.949 28.0679 296.181 28.0679C299.576 28.0679 301.374 23.4022 301.374 22.6187C301.374 22.4406 301.241 22.2982 301.041 22.2982C300.741 22.2982 300.708 22.4762 300.608 22.7612C299.709 25.8953 297.779 27.3556 296.281 27.3556C295.116 27.3556 294.483 26.4296 294.483 24.9693C294.483 24.1858 294.616 23.6159 295.149 21.2653L296.314 16.4216C296.813 14.2846 297.945 12.7176 299.476 12.7176C299.543 12.7176 300.475 12.7176 301.174 13.1806Z" fill="#5F5B80" stroke="#5F5B80" stroke-width="0.5"/>
<path d="M308.357 29.16C308.423 28.8039 308.645 27.9016 308.712 27.5454C309.023 26.2633 309.023 26.2395 309.533 25.456C310.265 24.2926 311.308 23.2478 312.795 23.2478C313.594 23.2478 314.06 23.7464 314.06 24.8624C314.06 26.1683 313.128 28.8751 312.707 30.0385C312.418 30.8221 312.418 30.9645 312.418 31.2732C312.418 32.6266 313.461 33.2914 314.415 33.2914C316.59 33.2914 317.5 29.9673 317.5 29.6586C317.5 29.4212 317.323 29.35 317.167 29.35C316.901 29.35 316.857 29.5162 316.79 29.7536C316.257 31.7006 315.325 32.6266 314.482 32.6266C314.127 32.6266 313.949 32.3892 313.949 31.8431C313.949 31.297 314.127 30.7746 314.349 30.181C314.682 29.2787 315.658 26.5482 315.658 25.2186C315.658 23.4378 314.504 22.583 312.906 22.583C311.109 22.583 309.955 23.7464 309.311 24.6487C309.156 23.3428 308.179 22.583 307.047 22.583C306.248 22.583 305.694 23.1291 305.339 23.8652C304.806 24.9811 304.584 26.1683 304.584 26.2158C304.584 26.4295 304.739 26.5245 304.917 26.5245C305.205 26.5245 305.228 26.4295 305.383 25.8122C305.649 24.6487 306.049 23.2478 306.981 23.2478C307.558 23.2478 307.691 23.8414 307.691 24.3638C307.691 24.7912 307.58 25.2423 307.402 26.0258C307.358 26.2158 307.025 27.6167 306.936 27.9491L306.115 31.5107C306.027 31.8668 305.893 32.4604 305.893 32.5554C305.893 33.1015 306.315 33.2914 306.604 33.2914C307.003 33.2914 307.336 33.0065 307.491 32.7216C307.558 32.5791 307.735 31.7718 307.846 31.2732L308.357 29.16Z" fill="#5F5B80" stroke="#5F5B80" stroke-width="0.5"/>
<path d="M329 18.8434C329 16.1366 328.667 11.7203 326.803 7.58889C324.839 3.31502 322.109 1 321.743 1C321.61 1 321.443 1.07123 321.443 1.28492C321.443 1.39177 321.443 1.463 322.009 2.06847C325.338 5.66565 327.202 11.5422 327.202 18.8078C327.202 25.7172 325.638 31.665 321.776 35.8677C321.443 36.1882 321.443 36.2595 321.443 36.3663C321.443 36.58 321.61 36.6512 321.743 36.6512C322.176 36.6512 324.905 34.0869 326.537 30.5966C328.234 26.9638 329 23.1173 329 18.8434Z" fill="#5F5B80" stroke="#5F5B80" stroke-width="0.5"/>
<path d="M259.955 61.7431C260.621 61.7431 260.887 61.7431 260.887 61.0664C260.887 60.7102 260.621 60.7102 260.022 60.7102H257.325C257.958 57.0418 258.424 54.5131 258.69 53.3734C258.89 52.5187 259.589 51.6995 260.454 51.6995C261.153 51.6995 261.852 52.02 262.185 52.3406C260.887 52.483 260.488 53.5159 260.488 54.1214C260.488 54.8337 260.987 55.2611 261.619 55.2611C262.285 55.2611 263.284 54.6556 263.284 53.3022C263.284 51.8063 261.886 50.9872 260.421 50.9872C258.99 50.9872 257.591 52.1269 256.926 53.5159C256.326 54.7624 255.994 56.0446 255.228 60.7102H252.997C252.365 60.7102 252.032 60.7102 252.032 61.3513C252.032 61.7431 252.232 61.7431 252.898 61.7431H255.028C254.429 65.0553 253.064 73.1045 252.298 76.9153C251.732 80.0139 251.233 82.6138 249.569 82.6138C249.469 82.6138 248.503 82.6138 247.904 81.9371C249.602 81.7947 249.602 80.2276 249.602 80.192C249.602 79.4797 249.103 79.0523 248.47 79.0523C247.804 79.0523 246.806 79.6577 246.806 81.0111C246.806 82.5426 248.27 83.3262 249.569 83.3262C252.964 83.3262 254.362 76.8085 254.729 75.0277C255.328 72.2853 256.959 62.8116 257.125 61.7431H259.955Z" fill="#5F5B80" stroke="#5F5B80" stroke-width="0.5"/>
<path d="M270.61 50.1006C270.721 49.7919 270.81 49.6257 270.81 49.3883C270.81 48.6048 270.144 48.0824 269.522 48.0824C268.635 48.0824 268.391 48.9134 268.302 49.2458L265.483 59.4794C265.395 59.7643 265.395 59.8356 265.395 59.8593C265.395 60.073 265.528 60.1205 265.75 60.1917C266.149 60.3817 266.193 60.3817 266.238 60.3817C266.304 60.3817 266.438 60.3817 266.593 59.978L270.61 50.1006Z" fill="#5F5B80" stroke="#5F5B80" stroke-width="0.5"/>
<path d="M283.331 84.7152C283.331 84.6083 283.331 84.5371 282.765 83.9316C279.436 80.3345 277.572 74.4579 277.572 67.1923C277.572 60.2829 279.137 54.3351 282.998 50.1324C283.331 49.8119 283.331 49.7406 283.331 49.6338C283.331 49.4201 283.165 49.3489 283.032 49.3489C282.599 49.3489 279.869 51.9132 278.238 55.4035C276.54 59.0007 275.774 62.8116 275.774 67.1923C275.774 70.3621 276.24 74.6003 277.972 78.4112C279.936 82.6851 282.665 85.0001 283.032 85.0001C283.165 85.0001 283.331 84.9289 283.331 84.7152Z" fill="#5F5B80" stroke="#5F5B80" stroke-width="0.5"/>
<path d="M300.967 61.5293C299.902 61.743 299.502 62.5978 299.502 63.2745C299.502 64.1293 300.135 64.4142 300.601 64.4142C301.6 64.4142 302.299 63.4882 302.299 62.5266C302.299 61.0307 300.701 60.354 299.303 60.354C297.272 60.354 296.14 62.4909 295.841 63.1676C295.075 60.4965 293.011 60.354 292.412 60.354C289.016 60.354 287.219 65.0196 287.219 65.8032C287.219 65.9457 287.352 66.1237 287.585 66.1237C287.851 66.1237 287.918 65.91 287.984 65.7676C289.116 61.8142 291.347 61.0663 292.312 61.0663C293.81 61.0663 294.11 62.5622 294.11 63.4169C294.11 64.2005 293.91 65.0197 293.51 66.7292L292.379 71.6085C291.879 73.7455 290.914 75.7043 289.149 75.7043C288.983 75.7043 288.151 75.7043 287.452 75.2413C288.65 74.992 288.916 73.9236 288.916 73.4962C288.916 72.7839 288.417 72.3565 287.785 72.3565C286.986 72.3565 286.12 73.1044 286.12 74.2441C286.12 75.7399 287.685 76.4166 289.116 76.4166C290.714 76.4166 291.846 75.0633 292.545 73.603C293.078 75.7043 294.742 76.4166 295.974 76.4166C299.369 76.4166 301.167 71.751 301.167 70.9675C301.167 70.7894 301.034 70.6469 300.834 70.6469C300.534 70.6469 300.501 70.825 300.401 71.1099C299.502 74.2441 297.572 75.7043 296.074 75.7043C294.909 75.7043 294.276 74.7783 294.276 73.3181C294.276 72.5345 294.409 71.9647 294.942 69.6141L296.107 64.7703C296.606 62.6334 297.738 61.0663 299.269 61.0663C299.336 61.0663 300.268 61.0663 300.967 61.5293Z" fill="#5F5B80"/>
<path d="M300.967 61.5293C299.902 61.743 299.502 62.5978 299.502 63.2745C299.502 64.1293 300.135 64.4142 300.601 64.4142C301.6 64.4142 302.299 63.4882 302.299 62.5266C302.299 61.0307 300.701 60.354 299.303 60.354C297.272 60.354 296.14 62.4909 295.841 63.1676C295.075 60.4965 293.011 60.354 292.412 60.354C289.016 60.354 287.219 65.0196 287.219 65.8032C287.219 65.9457 287.352 66.1237 287.585 66.1237C287.851 66.1237 287.918 65.91 287.984 65.7676C289.116 61.8142 291.347 61.0663 292.312 61.0663C293.81 61.0663 294.11 62.5622 294.11 63.4169C294.11 64.2005 293.91 65.0197 293.51 66.7292L292.379 71.6085C291.879 73.7455 290.914 75.7043 289.149 75.7043C288.983 75.7043 288.151 75.7043 287.452 75.2413C288.65 74.992 288.916 73.9236 288.916 73.4962C288.916 72.7839 288.417 72.3565 287.785 72.3565C286.986 72.3565 286.12 73.1044 286.12 74.2441C286.12 75.7399 287.685 76.4166 289.116 76.4166C290.714 76.4166 291.846 75.0633 292.545 73.603C293.078 75.7043 294.742 76.4166 295.974 76.4166C299.369 76.4166 301.167 71.751 301.167 70.9675C301.167 70.7894 301.034 70.6469 300.834 70.6469C300.534 70.6469 300.501 70.825 300.401 71.1099C299.502 74.2441 297.572 75.7043 296.074 75.7043C294.909 75.7043 294.276 74.7783 294.276 73.3181C294.276 72.5345 294.409 71.9647 294.942 69.6141L296.107 64.7703C296.606 62.6334 297.738 61.0663 299.269 61.0663C299.336 61.0663 300.268 61.0663 300.967 61.5293Z" fill="#5F5B80"/>
<path d="M300.967 61.5293C299.902 61.743 299.502 62.5978 299.502 63.2745C299.502 64.1293 300.135 64.4142 300.601 64.4142C301.6 64.4142 302.299 63.4882 302.299 62.5266C302.299 61.0307 300.701 60.354 299.303 60.354C297.272 60.354 296.14 62.4909 295.841 63.1676C295.075 60.4965 293.011 60.354 292.412 60.354C289.016 60.354 287.219 65.0196 287.219 65.8032C287.219 65.9457 287.352 66.1237 287.585 66.1237C287.851 66.1237 287.918 65.91 287.984 65.7676C289.116 61.8142 291.347 61.0663 292.312 61.0663C293.81 61.0663 294.11 62.5622 294.11 63.4169C294.11 64.2005 293.91 65.0197 293.51 66.7292L292.379 71.6085C291.879 73.7455 290.914 75.7043 289.149 75.7043C288.983 75.7043 288.151 75.7043 287.452 75.2413C288.65 74.992 288.916 73.9236 288.916 73.4962C288.916 72.7839 288.417 72.3565 287.785 72.3565C286.986 72.3565 286.12 73.1044 286.12 74.2441C286.12 75.7399 287.685 76.4166 289.116 76.4166C290.714 76.4166 291.846 75.0633 292.545 73.603C293.078 75.7043 294.742 76.4166 295.974 76.4166C299.369 76.4166 301.167 71.751 301.167 70.9675C301.167 70.7894 301.034 70.6469 300.834 70.6469C300.534 70.6469 300.501 70.825 300.401 71.1099C299.502 74.2441 297.572 75.7043 296.074 75.7043C294.909 75.7043 294.276 74.7783 294.276 73.3181C294.276 72.5345 294.409 71.9647 294.942 69.6141L296.107 64.7703C296.606 62.6334 297.738 61.0663 299.269 61.0663C299.336 61.0663 300.268 61.0663 300.967 61.5293Z" stroke="#5F5B80" stroke-width="0.5"/>
<path d="M308.15 77.5089C308.216 77.1527 308.438 76.2505 308.505 75.8943C308.816 74.6122 308.816 74.5884 309.326 73.8049C310.058 72.6414 311.101 71.5967 312.588 71.5967C313.387 71.5967 313.853 72.0953 313.853 73.2113C313.853 74.5172 312.921 77.224 312.5 78.3874C312.211 79.171 312.211 79.3134 312.211 79.6221C312.211 80.9755 313.254 81.6403 314.208 81.6403C316.383 81.6403 317.293 78.3162 317.293 78.0075C317.293 77.7701 317.116 77.6989 316.96 77.6989C316.694 77.6989 316.65 77.8651 316.583 78.1025C316.05 80.0495 315.118 80.9755 314.275 80.9755C313.92 80.9755 313.742 80.738 313.742 80.1919C313.742 79.6458 313.92 79.1235 314.142 78.5299C314.475 77.6276 315.451 74.8971 315.451 73.5674C315.451 71.7867 314.297 70.9319 312.699 70.9319C310.902 70.9319 309.748 72.0953 309.104 72.9976C308.949 71.6917 307.972 70.9319 306.84 70.9319C306.041 70.9319 305.487 71.478 305.132 72.214C304.599 73.33 304.377 74.5172 304.377 74.5647C304.377 74.7784 304.532 74.8733 304.71 74.8733C304.998 74.8733 305.021 74.7784 305.176 74.161C305.442 72.9976 305.842 71.5967 306.774 71.5967C307.351 71.5967 307.484 72.1903 307.484 72.7127C307.484 73.1401 307.373 73.5912 307.195 74.3747C307.151 74.5647 306.818 75.9656 306.729 76.298L305.908 79.8595C305.819 80.2157 305.686 80.8093 305.686 80.9043C305.686 81.4504 306.108 81.6403 306.397 81.6403C306.796 81.6403 307.129 81.3554 307.284 81.0705C307.351 80.928 307.528 80.1207 307.639 79.6221L308.15 77.5089Z" fill="#5F5B80" stroke="#5F5B80" stroke-width="0.5"/>
<path d="M328.793 67.1923C328.793 64.4855 328.46 60.0692 326.596 55.9378C324.632 51.6639 321.902 49.3489 321.536 49.3489C321.403 49.3489 321.236 49.4201 321.236 49.6338C321.236 49.7406 321.236 49.8119 321.802 50.4173C325.131 54.0145 326.995 59.8911 326.995 67.1567C326.995 74.0661 325.431 80.0139 321.569 84.2166C321.236 84.5371 321.236 84.6083 321.236 84.7152C321.236 84.9289 321.403 85.0001 321.536 85.0001C321.969 85.0001 324.698 82.4358 326.33 78.9455C328.027 75.3127 328.793 71.4662 328.793 67.1923Z" fill="#5F5B80" stroke="#5F5B80" stroke-width="0.5"/>
<path d="M234.311 39.6836C234.708 39.6836 235.129 39.6836 235.129 39.1747C235.129 38.6659 234.708 38.6659 234.311 38.6659H221.659C221.262 38.6659 220.841 38.6659 220.841 39.1747C220.841 39.6836 221.262 39.6836 221.659 39.6836H234.311Z" fill="#5F5B80" stroke="#5F5B80" stroke-width="0.5"/>
</svg>
