<svg width="187" height="50" viewBox="0 0 187 50" fill="none" xmlns="http://www.w3.org/2000/svg">
<path d="M16 0.25H167V49.75H16V0.25ZM36.4455 4.57474C36.4486 5.2 36.4579 5.82237 36.4827 6.44763C37.4501 6.23632 38.219 5.50974 38.4516 4.60947C37.7849 4.58632 37.1152 4.57763 36.4455 4.57474ZM38.9694 4.61237C38.9694 4.82947 38.9694 5.26079 38.9725 5.475C39.6081 5.49526 40.2437 5.51263 40.8793 5.53C40.8793 5.28684 40.8793 4.80632 40.8793 4.56605C40.2437 4.58053 39.605 4.595 38.9694 4.61237ZM41.6793 4.57763C41.6793 4.81211 41.6762 5.28105 41.6762 5.51553C42.3304 5.51553 42.9847 5.51553 43.6389 5.51553C43.6358 5.28105 43.6296 4.815 43.6265 4.58053C42.9785 4.57763 42.3273 4.57763 41.6793 4.57763ZM44.1846 4.58053C44.1815 4.81211 44.1784 5.27816 44.1753 5.50974C44.8295 5.51263 45.4807 5.51553 46.1349 5.51553C46.1349 5.28105 46.1318 4.81211 46.1318 4.57763C45.4838 4.57763 44.8326 4.57763 44.1846 4.58053ZM46.9317 4.56605C46.9317 4.80632 46.9317 5.28684 46.9317 5.52711C47.5674 5.51263 48.203 5.49526 48.8386 5.475C48.8417 5.26079 48.8417 4.82947 48.8417 4.61237C48.2061 4.595 47.5705 4.58053 46.9317 4.56605ZM49.3626 4.60947C49.5828 5.51553 50.3641 6.23053 51.3284 6.44763C51.3501 5.82237 51.3625 5.2 51.3656 4.57474C50.6959 4.57763 50.0293 4.58632 49.3626 4.60947ZM69.96 4.59789C69.9631 5.20868 69.9724 5.81658 69.9972 6.42447C70.9274 6.17553 71.6499 5.50684 71.9103 4.63553C71.2592 4.61526 70.608 4.60368 69.96 4.59789ZM72.4963 4.64421C72.4963 4.84395 72.4994 5.23763 72.4994 5.43737C73.1133 5.46342 73.7304 5.48947 74.3474 5.51263C74.3443 5.28105 74.3443 4.81789 74.3443 4.58632C73.7273 4.60368 73.1102 4.62395 72.4963 4.64421ZM75.1877 4.595C75.1877 4.82079 75.1877 5.27526 75.1877 5.50105C75.814 5.49237 76.4372 5.48368 77.0635 5.47211C77.0635 5.25789 77.0635 4.83526 77.0635 4.62395C76.4372 4.61237 75.8109 4.60368 75.1877 4.595ZM77.7209 4.62395C77.7209 4.83526 77.7209 5.25789 77.7209 5.47211C78.3472 5.48079 78.9704 5.49237 79.5967 5.50105C79.5967 5.27237 79.5967 4.82079 79.5967 4.595C78.9704 4.60368 78.3441 4.61237 77.7209 4.62395ZM80.4432 4.58632C80.4401 4.81789 80.437 5.28105 80.437 5.51263C81.0509 5.48947 81.6648 5.46342 82.2819 5.43737C82.285 5.23763 82.2881 4.84395 82.2912 4.64711C81.6741 4.62395 81.0571 4.60368 80.4432 4.58632ZM82.871 4.63263C83.1345 5.50395 83.857 6.17263 84.7872 6.42447C84.8089 5.81658 84.8213 5.20579 84.8275 4.59789C84.1763 4.60079 83.5221 4.61237 82.871 4.63263ZM36.4889 6.93105C36.4672 7.52447 36.4517 8.12079 36.4331 8.71421C36.6935 8.71421 37.2082 8.71421 37.4687 8.71421C37.4501 8.12079 37.4315 7.52737 37.4098 6.93395C37.1803 6.93395 36.7183 6.93105 36.4889 6.93105ZM50.4013 6.93395C50.3796 7.52737 50.361 8.12079 50.3424 8.71421C50.5998 8.71421 51.1176 8.71421 51.3749 8.71421C51.3594 8.11789 51.3439 7.52447 51.3253 6.93105C51.0928 6.93105 50.6308 6.93395 50.4013 6.93395ZM70.0065 6.96579C69.9848 7.54184 69.9631 8.115 69.9445 8.69105C70.1926 8.69395 70.6887 8.69684 70.9367 8.69974C70.9119 8.12368 70.884 7.54763 70.853 6.97158C70.6422 6.97158 70.2174 6.96868 70.0065 6.96579ZM83.9283 6.97158C83.8973 7.54763 83.8725 8.12079 83.8477 8.69684C84.0957 8.69684 84.5918 8.69395 84.8399 8.69105C84.8182 8.11789 84.7996 7.54184 84.7779 6.96579C84.5639 6.96868 84.1391 6.97158 83.9283 6.97158ZM36.4486 9.45816C36.4486 10.0661 36.4486 10.6739 36.4517 11.2789C36.6997 11.2818 37.1989 11.2847 37.4501 11.2876C37.4532 10.6768 37.4532 10.0689 37.4532 9.45816C37.202 9.45816 36.6997 9.45816 36.4486 9.45816ZM50.3579 9.45816C50.3579 10.0689 50.3579 10.6797 50.361 11.2905C50.6122 11.2876 51.1114 11.2818 51.3594 11.2789C51.3625 10.6711 51.3625 10.0661 51.3625 9.46105C51.1114 9.46105 50.6091 9.45816 50.3579 9.45816ZM69.9538 9.48421C69.9631 10.0661 69.9724 10.6479 69.9817 11.2326C70.2112 11.2326 70.6639 11.2326 70.8933 11.2326C70.9026 10.6479 70.9119 10.0632 70.9212 9.48132C70.6794 9.48132 70.1957 9.48132 69.9538 9.48421ZM83.8632 9.48132C83.8694 10.0661 83.8787 10.6479 83.8911 11.2326C84.1174 11.2326 84.5732 11.2326 84.7996 11.2326C84.812 10.6479 84.8213 10.0661 84.8306 9.48132C84.5887 9.48132 84.105 9.48132 83.8632 9.48132ZM30.052 11.3484C29.3233 12.0953 29.0195 13.1229 29.0226 14.1187C29.0195 20.8895 29.0288 27.6603 29.0195 34.4311C28.9451 35.4645 28.9265 36.8771 27.7172 37.3461C26.8677 37.5863 26.1576 37.0392 25.5251 36.5992C25.2801 36.8076 25.0414 37.0218 24.8026 37.236C25.5995 37.8845 26.5576 38.7211 27.711 38.3939C29.2923 38.0582 29.9373 36.3705 29.9528 35.0129C29.9559 28.2421 29.9497 21.4713 29.9528 14.7005C29.9993 13.6497 30.083 12.2632 31.2488 11.7421C32.0736 11.4584 32.7588 12.0953 33.379 12.4976C33.5681 12.3818 33.9495 12.1532 34.1386 12.0403C33.6642 11.5945 33.2425 11.0532 32.5945 10.8245C31.7387 10.4858 30.7 10.755 30.052 11.3484ZM62.5092 14.1187C62.5061 20.8895 62.5154 27.6603 62.5061 34.4311C62.4317 35.4645 62.4131 36.8771 61.207 37.3461C60.376 37.5776 59.6722 37.0682 59.0583 36.6253C58.866 36.7411 58.4815 36.9668 58.2893 37.0826C58.9466 37.9076 60.0257 38.7008 61.1977 38.3939C62.779 38.0582 63.4208 36.3705 63.4394 35.0158C63.4425 28.245 63.4363 21.4713 63.4394 14.7005C63.489 13.7105 63.5479 12.4976 64.4936 11.8637C65.337 11.3311 66.2052 12.0374 66.8656 12.4976C67.0547 12.3847 67.433 12.1532 67.6191 12.0403C66.9307 11.2558 65.9385 10.4047 64.7541 10.7376C63.148 11.0445 62.4906 12.7495 62.5092 14.1187ZM36.4517 11.8C36.4486 12.4079 36.4486 13.0129 36.4486 13.6208C36.6997 13.6179 37.202 13.6179 37.4532 13.6179C37.4532 13.01 37.4532 12.3992 37.4501 11.7913C37.1989 11.7942 36.6997 11.8 36.4517 11.8ZM50.361 11.7913C50.3579 12.4021 50.3579 13.01 50.3579 13.6208C50.6091 13.6208 51.1114 13.6179 51.3625 13.6179C51.3625 13.0129 51.3625 12.405 51.3594 11.8C51.1114 11.7971 50.6122 11.7942 50.361 11.7913ZM69.9817 11.8492C69.9724 12.4311 69.9631 13.0129 69.9538 13.5947C70.1957 13.5947 70.6825 13.5976 70.9243 13.5976C70.915 13.0129 70.9026 12.4282 70.8902 11.8463C70.6639 11.8463 70.2112 11.8492 69.9817 11.8492ZM83.8911 11.8463C83.8787 12.4311 83.8694 13.0129 83.8601 13.5976C84.1019 13.5976 84.5856 13.5947 84.8275 13.5947C84.8213 13.0129 84.812 12.4282 84.8027 11.8463C84.5763 11.8463 84.1205 11.8463 83.8911 11.8463ZM36.4331 14.3676C36.4517 14.9611 36.4672 15.5545 36.4889 16.1479C36.7183 16.1479 37.1803 16.1479 37.4098 16.1479C37.4315 15.5516 37.4501 14.9582 37.4656 14.3647C37.2082 14.3647 36.6935 14.3647 36.4331 14.3676ZM50.3424 14.3647C50.361 14.9582 50.3796 15.5516 50.4013 16.145C50.6308 16.145 51.0928 16.1479 51.3253 16.1508C51.3439 15.5545 51.3594 14.9582 51.3749 14.3647C51.1176 14.3647 50.5998 14.3647 50.3424 14.3647ZM69.9445 14.3879C69.9631 14.9639 69.9848 15.54 70.0065 16.1132C70.2205 16.1103 70.6422 16.1074 70.8561 16.1045C70.884 15.5284 70.9119 14.9553 70.9367 14.3821C70.6887 14.3821 70.1926 14.3879 69.9445 14.3879ZM83.8477 14.3821C83.8725 14.9582 83.8973 15.5313 83.9283 16.1074C84.1422 16.1074 84.5639 16.1103 84.7779 16.1103C84.7996 15.5371 84.8213 14.9611 84.843 14.3879C84.5949 14.385 84.0957 14.385 83.8477 14.3821ZM36.4827 16.6313C36.4579 17.2566 36.4486 17.8789 36.4455 18.5042C37.1152 18.5013 37.7818 18.4926 38.4516 18.4695C38.2221 17.5663 37.447 16.8484 36.4827 16.6313ZM49.3595 18.4695C50.0293 18.4926 50.6959 18.4984 51.3656 18.5042C51.3625 17.8789 51.3501 17.2566 51.3284 16.6342C50.361 16.8426 49.589 17.5692 49.3595 18.4695ZM69.9972 16.6574C69.9724 17.2624 69.96 17.8732 69.9569 18.4811C70.6081 18.4753 71.2592 18.4666 71.9134 18.4434C71.6499 17.575 70.9274 16.9034 69.9972 16.6574ZM82.871 18.4434C83.5221 18.4666 84.1732 18.4753 84.8275 18.4782C84.8213 17.8703 84.812 17.2624 84.7872 16.6574C83.8508 16.8976 83.1345 17.575 82.871 18.4434ZM88.5606 17.0453C88.5637 17.6532 88.5761 18.2611 88.6009 18.8689C89.528 18.62 90.2567 17.9542 90.514 17.0829C89.8629 17.0597 89.2117 17.0482 88.5606 17.0453ZM91.0969 17.0916C91.1 17.2913 91.1031 17.685 91.1062 17.8847C91.7201 17.9108 92.3341 17.9368 92.9511 17.96C92.948 17.7284 92.9449 17.2653 92.9449 17.0337C92.3279 17.0511 91.7108 17.0713 91.0969 17.0916ZM93.7914 17.0424C93.7914 17.2682 93.7914 17.7197 93.7914 17.9455C94.4146 17.9397 95.0409 17.9282 95.6672 17.9195C95.6672 17.7053 95.6672 17.2826 95.6672 17.0713C95.0409 17.0597 94.4177 17.0511 93.7914 17.0424ZM96.3246 17.0713C96.3246 17.2826 96.3246 17.7082 96.3246 17.9195C96.9509 17.9282 97.5741 17.9368 98.2004 17.9455C98.2004 17.7197 98.2004 17.2682 98.2004 17.0424C97.5741 17.0511 96.9478 17.0597 96.3246 17.0713ZM99.0438 17.0308C99.0438 17.2653 99.0438 17.7284 99.0438 17.96C99.6577 17.9368 100.272 17.9108 100.886 17.8818C100.889 17.685 100.892 17.2913 100.895 17.0945C100.278 17.0713 99.6608 17.0511 99.0438 17.0308ZM101.475 17.0829C101.735 17.9542 102.461 18.6229 103.391 18.8689C103.416 18.2611 103.425 17.6532 103.431 17.0453C102.777 17.0482 102.126 17.0597 101.475 17.0829ZM118.33 17.0453C118.333 17.6532 118.342 18.2639 118.367 18.8718C119.297 18.6258 120.016 17.9513 120.283 17.0829C119.629 17.0597 118.978 17.0511 118.33 17.0453ZM120.863 17.0945C120.866 17.2913 120.869 17.685 120.869 17.8847C121.486 17.9108 122.1 17.9368 122.717 17.96C122.717 17.7284 122.714 17.2653 122.714 17.0337C122.094 17.0511 121.48 17.0713 120.863 17.0945ZM123.557 17.0424C123.557 17.2682 123.557 17.7197 123.557 17.9455C124.184 17.9368 124.807 17.9282 125.436 17.9195C125.433 17.7053 125.433 17.2797 125.43 17.0684C124.807 17.0597 124.18 17.0511 123.557 17.0424ZM126.09 17.0684C126.09 17.2797 126.09 17.7053 126.09 17.9195C126.717 17.9282 127.34 17.9397 127.966 17.9455C127.966 17.7197 127.963 17.2711 127.963 17.0453C127.337 17.0511 126.714 17.0597 126.09 17.0684ZM128.813 17.0337C128.81 17.2653 128.81 17.7284 128.807 17.9571C129.421 17.9368 130.034 17.9108 130.651 17.8847C130.655 17.6879 130.658 17.2913 130.661 17.0916C130.044 17.0713 129.427 17.0511 128.813 17.0337ZM131.241 17.0858C131.507 17.9542 132.223 18.6258 133.157 18.8689C133.178 18.2611 133.191 17.6532 133.197 17.0453C132.543 17.0511 131.892 17.0626 131.241 17.0858ZM148.096 17.0453C148.099 17.6532 148.108 18.2639 148.133 18.8718C149.063 18.6229 149.782 17.9542 150.049 17.0858C149.395 17.0626 148.744 17.0511 148.096 17.0453ZM150.629 17.0916C150.632 17.2884 150.635 17.6879 150.638 17.8847C151.252 17.9137 151.866 17.9368 152.483 17.96C152.483 17.7284 152.48 17.2653 152.48 17.0337C151.86 17.0511 151.243 17.0713 150.629 17.0916ZM153.326 17.0424C153.326 17.2682 153.323 17.7226 153.323 17.9484C153.946 17.9397 154.573 17.9282 155.199 17.9195C155.199 17.7053 155.199 17.2826 155.199 17.0713C154.573 17.0597 153.95 17.0511 153.326 17.0424ZM155.856 17.0713C155.856 17.2826 155.856 17.7082 155.859 17.9195C156.483 17.9282 157.106 17.9397 157.732 17.9455C157.732 17.7197 157.732 17.2682 157.732 17.0424C157.103 17.0482 156.48 17.0597 155.856 17.0713ZM158.579 17.0337C158.579 17.2653 158.576 17.7255 158.573 17.9571C159.186 17.9368 159.803 17.9108 160.42 17.8847C160.42 17.6879 160.424 17.2913 160.427 17.0945C159.81 17.0713 159.193 17.0511 158.579 17.0337ZM161.007 17.0829C161.273 17.9513 161.989 18.6287 162.923 18.8689C162.944 18.2611 162.957 17.6561 162.96 17.0482C162.309 17.0511 161.658 17.0597 161.007 17.0829ZM38.9694 17.6039C38.9694 17.8182 38.9694 18.2495 38.9725 18.4666C39.605 18.4839 40.2406 18.4984 40.8762 18.5158C40.8762 18.2726 40.8793 17.7921 40.8824 17.5489C40.2437 17.5663 39.6081 17.5837 38.9694 17.6039ZM41.6762 17.5634C41.6762 17.7979 41.6793 18.2668 41.6793 18.4984C42.3273 18.5013 42.9785 18.5013 43.6265 18.4984C43.6296 18.2668 43.6358 17.8008 43.6358 17.5663C42.9847 17.5634 42.3304 17.5634 41.6762 17.5634ZM44.1722 17.5663C44.1753 17.7979 44.1815 18.2668 44.1846 18.4984C44.8326 18.5013 45.4807 18.5013 46.1318 18.4984C46.1318 18.2668 46.1349 17.7979 46.1349 17.5634C45.4807 17.5634 44.8264 17.5634 44.1722 17.5663ZM46.9317 17.5518C46.9317 17.7921 46.9317 18.2726 46.9317 18.5158C47.5674 18.4984 48.2061 18.4839 48.8417 18.4666C48.8417 18.2495 48.8386 17.8182 48.8386 17.6039C48.203 17.5837 47.5674 17.5663 46.9317 17.5518ZM72.4994 17.6416C72.4963 17.8413 72.4932 18.235 72.4901 18.4347C73.1071 18.455 73.7242 18.4753 74.3443 18.4926C74.3443 18.2611 74.3474 17.7979 74.3474 17.5663C73.7304 17.5895 73.1164 17.6155 72.4994 17.6416ZM75.1877 17.5808C75.1877 17.8066 75.1908 18.2582 75.1908 18.4839C75.814 18.4753 76.4403 18.4666 77.0635 18.4579C77.0635 18.2437 77.0635 17.8211 77.0635 17.6097C76.4372 17.5982 75.8109 17.5866 75.1877 17.5808ZM77.724 17.6097C77.7209 17.8211 77.7209 18.2437 77.7209 18.4579C78.3441 18.4666 78.9673 18.4753 79.5936 18.4811C79.5936 18.2553 79.5967 17.8037 79.5967 17.5779C78.9735 17.5866 78.3472 17.5982 77.724 17.6097ZM80.437 17.5663C80.4401 17.7979 80.4401 18.2639 80.4432 18.4955C81.0571 18.4753 81.6741 18.455 82.2912 18.4347C82.2881 18.235 82.285 17.8413 82.285 17.6416C81.6679 17.6155 81.054 17.5895 80.437 17.5663ZM113.787 18.5158C113.775 18.7387 113.747 19.1787 113.731 19.4016C113.192 19.5666 113.124 19.8358 113.527 20.2063C113.434 20.6232 113.372 21.0458 113.338 21.4713C112.904 21.4018 112.693 21.5842 112.702 22.0184C111.825 21.3324 110.535 21.2803 109.549 21.7926C109.524 21.8071 109.471 21.8361 109.446 21.8505C107.518 23.1618 106.919 25.8742 107.884 27.8658C107.899 27.8889 107.93 27.9353 107.943 27.9584C108.169 28.2797 108.457 28.5461 108.805 28.7545C108.832 28.7689 108.891 28.7979 108.919 28.8124C109.791 29.1366 110.857 29.0468 111.604 28.4911C111.66 28.4911 111.778 28.4939 111.834 28.4939C112.153 28.8934 112.668 28.9224 113.164 28.9311C113.731 25.6947 114.435 22.4787 114.9 19.2279C115.387 19.4942 115.62 18.4811 115.068 18.5245C114.64 18.51 114.215 18.5071 113.787 18.5158ZM143.556 18.5158C143.541 18.7387 143.513 19.1816 143.497 19.4016C142.958 19.5666 142.89 19.8358 143.293 20.2063C143.2 20.6261 143.138 21.0458 143.104 21.4713C142.669 21.4018 142.459 21.5842 142.468 22.0184C141.59 21.3324 140.294 21.2774 139.312 21.7955C139.29 21.81 139.24 21.8361 139.218 21.8505C137.284 23.1561 136.685 25.8742 137.65 27.8658C137.665 27.8889 137.696 27.9353 137.712 27.9584C137.935 28.2826 138.22 28.5461 138.57 28.7545C138.598 28.7689 138.657 28.7979 138.685 28.8124C139.696 29.2321 140.822 28.8963 141.705 28.3695C141.823 28.52 142.056 28.8239 142.17 28.9745C142.363 28.9484 142.75 28.8934 142.942 28.8645C143.122 27.805 143.386 26.7571 143.516 25.6889C144.04 25.4979 144.093 25.2258 143.665 24.8726C144.021 22.9968 144.44 21.1239 144.666 19.2279C145.153 19.4942 145.386 18.4811 144.834 18.5245C144.406 18.51 143.981 18.5071 143.556 18.5158ZM88.6102 19.4132C88.5885 19.9892 88.5668 20.5624 88.5482 21.1384C88.7963 21.1413 89.2924 21.1442 89.5404 21.1442C89.5156 20.5711 89.4877 19.995 89.4598 19.4218C89.249 19.4189 88.8242 19.4161 88.6102 19.4132ZM102.532 19.4189C102.501 19.995 102.476 20.5682 102.454 21.1442C102.703 21.1413 103.196 21.1413 103.444 21.1413C103.425 20.5653 103.403 19.9892 103.382 19.4132C103.171 19.4161 102.743 19.4189 102.532 19.4189ZM118.379 19.4132C118.354 19.9892 118.33 20.5624 118.311 21.1384C118.559 21.1413 119.055 21.1413 119.306 21.1442C119.278 20.5682 119.254 19.995 119.223 19.4218C119.012 19.4189 118.59 19.4161 118.379 19.4132ZM132.298 19.4189C132.267 19.995 132.242 20.5711 132.217 21.1471C132.465 21.1442 132.961 21.1413 133.209 21.1384C133.188 20.5624 133.169 19.9892 133.147 19.4132C132.934 19.4161 132.509 19.4189 132.298 19.4189ZM148.142 19.4132C148.12 19.9892 148.099 20.5624 148.08 21.1384C148.328 21.1384 148.824 21.1413 149.072 21.1442C149.044 20.5682 149.02 19.995 148.992 19.4189C148.778 19.4189 148.356 19.4161 148.142 19.4132ZM162.064 19.4218C162.033 19.995 162.005 20.5682 161.983 21.1442C162.231 21.1413 162.73 21.1413 162.979 21.1384C162.954 20.5653 162.935 19.9892 162.91 19.4132C162.699 19.4161 162.275 19.4189 162.064 19.4218ZM88.5575 21.9287C88.5637 22.5105 88.5761 23.0953 88.5885 23.6771C88.8149 23.68 89.2707 23.68 89.497 23.6829C89.5094 23.0953 89.5187 22.5105 89.528 21.9258C89.2831 21.9287 88.7994 21.9287 88.5575 21.9287ZM102.464 21.9287C102.473 22.5105 102.482 23.0953 102.495 23.68C102.724 23.68 103.177 23.68 103.403 23.68C103.416 23.0982 103.425 22.5134 103.434 21.9287C103.192 21.9287 102.709 21.9287 102.464 21.9287ZM118.323 21.9316C118.333 22.5134 118.342 23.0982 118.354 23.68C118.581 23.68 119.033 23.68 119.26 23.68C119.272 23.0953 119.282 22.5134 119.294 21.9287C119.049 21.9287 118.565 21.9287 118.323 21.9316ZM132.23 21.9287C132.239 22.5105 132.248 23.0953 132.264 23.68C132.49 23.68 132.943 23.68 133.172 23.68C133.182 23.0953 133.188 22.5134 133.197 21.9287C132.955 21.9287 132.472 21.9287 132.23 21.9287ZM148.089 21.9287C148.096 22.5134 148.108 23.0953 148.12 23.68C148.347 23.68 148.802 23.68 149.029 23.68C149.038 23.0953 149.047 22.5134 149.057 21.9287C148.815 21.9287 148.331 21.9287 148.089 21.9287ZM161.999 21.9316C162.005 22.5134 162.014 23.0982 162.027 23.68C162.253 23.68 162.709 23.68 162.935 23.68C162.944 23.0953 162.957 22.5134 162.966 21.9316C162.724 21.9316 162.241 21.9316 161.999 21.9316ZM88.5885 24.2937C88.5761 24.8755 88.5668 25.4603 88.5575 26.0421C88.7994 26.0421 89.2831 26.0421 89.528 26.0421C89.5187 25.4603 89.5063 24.8755 89.497 24.2937C89.2707 24.2937 88.8149 24.2937 88.5885 24.2937ZM102.495 24.2937C102.482 24.8784 102.473 25.4632 102.464 26.0479C102.706 26.045 103.192 26.0421 103.434 26.0421C103.425 25.4603 103.416 24.8755 103.406 24.2937C103.177 24.2937 102.724 24.2937 102.495 24.2937ZM118.351 24.2966C118.339 24.8784 118.33 25.4603 118.323 26.0421C118.565 26.0421 119.052 26.045 119.294 26.045C119.282 25.4603 119.272 24.8784 119.26 24.2937C119.033 24.2937 118.578 24.2937 118.351 24.2966ZM132.261 24.2937C132.248 24.8784 132.239 25.4603 132.23 26.045C132.472 26.045 132.955 26.0421 133.2 26.0421C133.188 25.4603 133.182 24.8784 133.172 24.2966C132.943 24.2966 132.49 24.2937 132.261 24.2937ZM148.12 24.2937C148.108 24.8784 148.096 25.4603 148.089 26.045C148.331 26.045 148.815 26.045 149.06 26.045C149.047 25.4603 149.038 24.8755 149.029 24.2937C148.799 24.2937 148.347 24.2937 148.12 24.2937ZM162.027 24.2908C162.014 24.8755 162.005 25.4603 161.996 26.045C162.241 26.045 162.724 26.045 162.966 26.045C162.957 25.4603 162.944 24.8784 162.935 24.2966C162.709 24.2937 162.256 24.2937 162.027 24.2908ZM88.5451 26.8324C88.5668 27.4084 88.5885 27.9845 88.6102 28.5605C88.8242 28.5576 89.249 28.5547 89.4598 28.5518C89.4877 27.9787 89.5156 27.4026 89.5404 26.8295C89.2924 26.8295 88.7963 26.8324 88.5451 26.8324ZM102.451 26.8295C102.476 27.4026 102.504 27.9787 102.535 28.5518C102.746 28.5547 103.168 28.5576 103.382 28.5605C103.403 27.9845 103.425 27.4084 103.447 26.8324C103.196 26.8324 102.699 26.8295 102.451 26.8295ZM118.314 26.8353C118.333 27.4113 118.354 27.9845 118.376 28.5605C118.59 28.5576 119.015 28.5547 119.226 28.5547C119.254 27.9787 119.282 27.4055 119.306 26.8295C119.058 26.8324 118.562 26.8353 118.314 26.8353ZM132.214 26.8295C132.239 27.4026 132.267 27.9787 132.301 28.5518C132.512 28.5547 132.937 28.5576 133.147 28.5605C133.169 27.9845 133.188 27.4113 133.209 26.8353C132.961 26.8353 132.465 26.8324 132.214 26.8295ZM148.08 26.8295C148.099 27.4084 148.12 27.9845 148.145 28.5634C148.356 28.5605 148.778 28.5547 148.992 28.5518C149.02 27.9787 149.047 27.4055 149.072 26.8324C148.824 26.8324 148.328 26.8295 148.08 26.8295ZM161.983 26.8324C162.005 27.4055 162.033 27.9787 162.064 28.5547C162.275 28.5547 162.699 28.5576 162.913 28.5605C162.935 27.9845 162.954 27.4084 162.975 26.8324C162.727 26.8324 162.231 26.8324 161.983 26.8324ZM88.6009 29.1047C88.5761 29.7126 88.5668 30.3205 88.5606 30.9284C89.2117 30.9226 89.8629 30.9111 90.514 30.8908C90.2505 30.0224 89.5342 29.345 88.6009 29.1047ZM101.478 30.8908C102.126 30.9139 102.777 30.9226 103.428 30.9284C103.425 30.3205 103.413 29.7126 103.391 29.1047C102.458 29.3508 101.738 30.0195 101.478 30.8908ZM118.367 29.1047C118.342 29.7126 118.333 30.3205 118.327 30.9284C118.978 30.9226 119.629 30.9139 120.28 30.8908C120.019 30.0195 119.3 29.3479 118.367 29.1047ZM131.244 30.8908C131.892 30.9139 132.543 30.9226 133.194 30.9284C133.191 30.3205 133.178 29.7126 133.157 29.1047C132.223 29.3479 131.504 30.0195 131.244 30.8908ZM148.133 29.1047C148.108 29.7097 148.096 30.3205 148.092 30.9284C148.744 30.9226 149.395 30.9139 150.049 30.8908C149.785 30.0195 149.063 29.3508 148.133 29.1047ZM161.01 30.8908C161.658 30.9139 162.309 30.9226 162.963 30.9284C162.957 30.3205 162.947 29.7126 162.926 29.1047C161.993 29.3479 161.267 30.0195 161.01 30.8908ZM91.1031 30.0889C91.1031 30.2858 91.1 30.6824 91.1 30.8821C91.7139 30.9024 92.3279 30.9226 92.9449 30.94C92.9449 30.7084 92.9511 30.2453 92.9511 30.0137C92.3341 30.0368 91.7201 30.06 91.1031 30.0889ZM93.7914 30.0253C93.7914 30.2511 93.7914 30.7055 93.7914 30.9313C94.4146 30.9226 95.0409 30.9139 95.6672 30.9053C95.6672 30.6911 95.6672 30.2684 95.6672 30.0571C95.0409 30.0455 94.4146 30.0339 93.7914 30.0253ZM96.3246 30.0542C96.3246 30.2684 96.3246 30.6911 96.3246 30.9053C96.9478 30.9139 97.571 30.9226 98.1973 30.9313C98.1973 30.7055 98.2004 30.2539 98.2004 30.0282C97.5741 30.0339 96.9509 30.0426 96.3246 30.0542ZM99.0407 30.0137C99.0407 30.2453 99.0438 30.7084 99.0469 30.94C99.6608 30.9226 100.278 30.9024 100.895 30.8821C100.892 30.6853 100.889 30.2887 100.886 30.0918C100.272 30.0629 99.6546 30.0368 99.0407 30.0137ZM120.869 30.0889C120.869 30.2858 120.866 30.6824 120.863 30.8821C121.48 30.9024 122.094 30.9226 122.711 30.94C122.714 30.7084 122.717 30.2453 122.717 30.0137C122.1 30.0368 121.483 30.06 120.869 30.0889ZM123.557 30.0253C123.557 30.2511 123.557 30.7026 123.557 30.9313C124.184 30.9226 124.81 30.9139 125.436 30.9053C125.433 30.6911 125.433 30.2684 125.43 30.0571C124.807 30.0455 124.18 30.0339 123.557 30.0253ZM126.09 30.0571C126.09 30.2684 126.09 30.6911 126.09 30.9024C126.714 30.9139 127.34 30.9226 127.966 30.9313C127.966 30.7055 127.966 30.2539 127.966 30.0282C127.34 30.0339 126.714 30.0455 126.09 30.0571ZM128.807 30.0137C128.807 30.2453 128.81 30.7084 128.81 30.94C129.427 30.9226 130.044 30.9024 130.661 30.8821C130.661 30.6824 130.655 30.2858 130.655 30.0889C130.038 30.06 129.421 30.0368 128.807 30.0137ZM150.638 30.0918C150.635 30.2887 150.629 30.6853 150.629 30.8821C151.243 30.9024 151.86 30.9226 152.48 30.94C152.48 30.7084 152.483 30.2453 152.483 30.0166C151.866 30.0368 151.252 30.0629 150.638 30.0918ZM153.323 30.0253C153.323 30.2539 153.326 30.7055 153.326 30.9313C153.95 30.9226 154.573 30.9139 155.196 30.9024C155.199 30.6911 155.199 30.2684 155.199 30.0542C154.573 30.0426 153.946 30.0339 153.323 30.0253ZM155.856 30.0571C155.856 30.2684 155.856 30.6911 155.856 30.9024C156.48 30.9139 157.103 30.9226 157.729 30.9313C157.732 30.7055 157.732 30.2511 157.732 30.0253C157.106 30.0339 156.48 30.0426 155.856 30.0571ZM158.576 30.0166C158.576 30.2482 158.576 30.7113 158.576 30.94C159.193 30.9226 159.81 30.9024 160.427 30.8792C160.427 30.6824 160.42 30.2858 160.42 30.0889C159.803 30.0629 159.186 30.0368 158.576 30.0166ZM36.4703 32.3874C36.4765 32.9953 36.4858 33.6032 36.5137 34.2111C37.4408 33.965 38.1632 33.2934 38.4268 32.425C37.7725 32.4018 37.1214 32.3932 36.4703 32.3874ZM39.0097 32.4366C39.0097 32.6334 39.0128 33.03 39.0128 33.2268C39.6267 33.2529 40.2437 33.2789 40.8607 33.3021C40.8607 33.0705 40.8576 32.6045 40.8576 32.3729C40.2406 32.3932 39.6236 32.4134 39.0097 32.4366ZM41.701 32.3845C41.701 32.6103 41.7041 33.0618 41.7041 33.2905C42.3273 33.2818 42.9506 33.2703 43.5769 33.2616C43.5769 33.0474 43.5769 32.6247 43.5769 32.4134C42.9537 32.4018 42.3273 32.3932 41.701 32.3845ZM44.2342 32.4134C44.2342 32.6247 44.2342 33.0503 44.2342 33.2616C44.8605 33.2732 45.4838 33.2818 46.1101 33.2905C46.1101 33.0647 46.107 32.6103 46.107 32.3845C45.4807 32.3932 44.8574 32.4018 44.2342 32.4134ZM46.9565 32.3758C46.9565 32.6074 46.9503 33.0705 46.9503 33.3021C47.5643 33.2789 48.1813 33.2529 48.7983 33.2239C48.7983 33.0271 48.8014 32.6305 48.8045 32.4337C48.1875 32.4105 47.5736 32.3932 46.9565 32.3758ZM49.3874 32.425C49.6479 33.2934 50.3703 33.9679 51.3005 34.2111C51.3253 33.6032 51.3346 32.9953 51.3408 32.3874C50.6897 32.3903 50.0386 32.4018 49.3874 32.425ZM69.96 32.3874C69.9631 32.9953 69.9724 33.6032 69.9972 34.2111C70.9274 33.965 71.653 33.2963 71.9103 32.425C71.2592 32.4018 70.6111 32.3903 69.96 32.3874ZM72.4932 32.4366C72.4963 32.6334 72.4963 33.0271 72.4994 33.2268C73.1133 33.2529 73.7304 33.2789 74.3443 33.3021C74.3443 33.0705 74.3443 32.6074 74.3443 32.3758C73.7273 32.3932 73.1102 32.4134 72.4932 32.4366ZM75.1877 32.3845C75.1877 32.6103 75.1877 33.0618 75.1877 33.2876C75.814 33.2818 76.4372 33.2732 77.0635 33.2616C77.0635 33.0503 77.0635 32.6247 77.0635 32.4134C76.4372 32.4018 75.814 32.3932 75.1877 32.3845ZM77.7209 32.4134C77.7209 32.6247 77.7209 33.0503 77.7209 33.2616C78.3472 33.2732 78.9704 33.2789 79.5967 33.2876C79.5967 33.0618 79.5967 32.6103 79.5967 32.3874C78.9704 32.3932 78.3441 32.4018 77.7209 32.4134ZM80.4401 32.3729C80.4401 32.6074 80.4401 33.0705 80.437 33.3021C81.054 33.2789 81.6679 33.2529 82.2819 33.2268C82.285 33.0271 82.2881 32.6334 82.2912 32.4366C81.6741 32.4134 81.0571 32.3932 80.4401 32.3729ZM82.871 32.425C83.1314 33.2963 83.8539 33.9679 84.7872 34.2139C84.8089 33.6032 84.8213 32.9953 84.8275 32.3874C84.1732 32.3903 83.5221 32.4018 82.871 32.425ZM36.5199 34.7553C36.4982 35.3313 36.4765 35.9074 36.4579 36.4834C36.7059 36.4834 37.202 36.4863 37.4501 36.4863C37.4253 35.9103 37.3974 35.3371 37.3694 34.7611C37.1586 34.7611 36.7338 34.7582 36.5199 34.7553ZM50.4416 34.7611C50.4106 35.3371 50.3858 35.9103 50.361 36.4863C50.6091 36.4863 51.1052 36.4834 51.3532 36.4805C51.3346 35.9045 51.3129 35.3313 51.2912 34.7553C51.0773 34.7582 50.6525 34.7611 50.4416 34.7611ZM70.0065 34.7553C69.9848 35.3313 69.9631 35.9074 69.9445 36.4834C70.1926 36.4834 70.6887 36.4863 70.9367 36.4863C70.9119 35.9103 70.884 35.3371 70.8561 34.7639C70.6453 34.7611 70.2174 34.7582 70.0065 34.7553ZM83.9283 34.7611C83.9004 35.3371 83.8725 35.9103 83.8477 36.4863C84.0957 36.4863 84.5918 36.4805 84.8399 36.4805C84.8182 35.9045 84.7996 35.3313 84.7748 34.7553C84.5639 34.7582 84.1422 34.7611 83.9283 34.7611ZM36.4672 37.2737C36.4765 37.8555 36.4858 38.4374 36.4951 39.0221C36.7245 39.0221 37.1772 39.0221 37.4067 39.0221C37.416 38.4374 37.4284 37.8526 37.4346 37.2708C37.1927 37.2708 36.709 37.2737 36.4672 37.2737ZM50.3734 37.2708C50.3827 37.8526 50.392 38.4374 50.4044 39.0221C50.6339 39.0221 51.0866 39.0221 51.316 39.0221C51.3253 38.4374 51.3346 37.8526 51.3439 37.2708C51.099 37.2708 50.6153 37.2708 50.3734 37.2708ZM69.9538 37.2708C69.96 37.8555 69.9724 38.4374 69.9817 39.0221C70.2112 39.0221 70.6639 39.0221 70.8933 39.0221C70.9026 38.4374 70.915 37.8526 70.9243 37.2708C70.6794 37.2708 70.1957 37.2708 69.9538 37.2708ZM83.8601 37.2708C83.8694 37.8526 83.8787 38.4374 83.8942 39.0221C84.1205 39.0221 84.5732 39.0221 84.8027 39.025C84.812 38.4403 84.8213 37.8555 84.8306 37.2708C84.5887 37.2708 84.1019 37.2708 83.8601 37.2708ZM36.4951 39.6358C36.4858 40.2176 36.4765 40.8024 36.4672 41.3842C36.709 41.3842 37.1927 41.3842 37.4346 41.3842C37.4253 40.8024 37.416 40.2205 37.4067 39.6358C37.1772 39.6358 36.7245 39.6358 36.4951 39.6358ZM50.4075 39.6358C50.3951 40.2176 50.3827 40.8024 50.3734 41.3871C50.6153 41.3871 51.1021 41.3842 51.3439 41.3842C51.3346 40.8024 51.3253 40.2205 51.3129 39.6358C51.0866 39.6358 50.6339 39.6358 50.4075 39.6358ZM69.9848 39.6358C69.9724 40.2176 69.9631 40.8024 69.9538 41.3871C70.1957 41.3871 70.6825 41.3871 70.9243 41.39C70.915 40.8053 70.9057 40.2205 70.8933 39.6358C70.667 39.6358 70.2112 39.6358 69.9848 39.6358ZM83.8911 39.6358C83.8787 40.2205 83.8694 40.8024 83.8601 41.3871C84.1019 41.3871 84.5887 41.3871 84.8306 41.3871C84.8213 40.8024 84.812 40.2176 84.8027 39.6329C84.5732 39.6329 84.1205 39.6358 83.8911 39.6358ZM36.4579 42.1774C36.4765 42.7505 36.4982 43.3266 36.5199 43.8997C36.7338 43.8997 37.1555 43.8968 37.3694 43.8968C37.3974 43.3208 37.4253 42.7476 37.4501 42.1716C37.202 42.1745 36.7059 42.1745 36.4579 42.1774ZM50.361 42.1687C50.3858 42.7447 50.4137 43.3208 50.4447 43.8968C50.6556 43.8968 51.0804 43.8997 51.2912 43.8997C51.3129 43.3266 51.3346 42.7505 51.3532 42.1774C51.1052 42.1745 50.6091 42.1716 50.361 42.1687ZM69.9445 42.1774C69.9631 42.7505 69.9848 43.3266 70.0096 43.9026C70.2205 43.8997 70.6453 43.8968 70.8561 43.8939C70.884 43.3208 70.9119 42.7447 70.9367 42.1716C70.6887 42.1716 70.1926 42.1745 69.9445 42.1774ZM83.8477 42.1716C83.8725 42.7476 83.8973 43.3208 83.9283 43.8968C84.1391 43.8968 84.5639 43.9026 84.7779 43.9026C84.7996 43.3266 84.8213 42.7505 84.843 42.1745C84.5949 42.1745 84.0957 42.1716 83.8477 42.1716ZM36.5106 44.4468C36.4858 45.0547 36.4765 45.6626 36.4703 46.2705C37.1214 46.2647 37.7725 46.2561 38.4237 46.2329C38.1663 45.3616 37.4408 44.6929 36.5106 44.4468ZM49.3843 46.2329C50.0355 46.2532 50.6866 46.2647 51.3408 46.2676C51.3346 45.6597 51.3253 45.0518 51.3005 44.4468C50.3672 44.69 49.651 45.3674 49.3843 46.2329ZM70.0003 44.4439C69.9724 45.0518 69.96 45.6597 69.9569 46.2705C70.6081 46.2647 71.2592 46.2561 71.9134 46.2329C71.6468 45.3645 70.9305 44.69 70.0003 44.4439ZM82.8741 46.2329C83.5252 46.2561 84.1763 46.2647 84.8275 46.2705C84.8213 45.6626 84.812 45.0547 84.7872 44.4468C83.857 44.69 83.1314 45.3616 82.8741 46.2329ZM39.0159 45.4311C39.0128 45.6308 39.0097 46.0274 39.0066 46.2242C39.6236 46.2445 40.2406 46.2647 40.8576 46.2821C40.8576 46.0505 40.8607 45.5874 40.8607 45.3558C40.2437 45.3789 39.6298 45.405 39.0159 45.4311ZM41.701 45.3674C41.701 45.5961 41.701 46.0476 41.701 46.2734C42.3273 46.2647 42.9506 46.2561 43.5769 46.2445C43.5769 46.0332 43.5769 45.6105 43.5769 45.3963C42.9506 45.3847 42.3273 45.3761 41.701 45.3674ZM44.2342 45.3992C44.2342 45.6105 44.2342 46.0332 44.2373 46.2474C44.8605 46.2561 45.4838 46.2647 46.107 46.2734C46.107 46.0476 46.1101 45.5961 46.1101 45.3674C45.4838 45.3761 44.8574 45.3847 44.2342 45.3992ZM46.9503 45.3558C46.9503 45.5903 46.9535 46.0534 46.9535 46.285C47.5705 46.2647 48.1875 46.2445 48.8014 46.2242C48.8014 46.0245 48.7983 45.6279 48.7983 45.4311C48.1813 45.4021 47.5643 45.3789 46.9503 45.3558ZM72.4994 45.4311C72.4994 45.6279 72.4963 46.0245 72.4932 46.2213C73.1102 46.2445 73.7242 46.2647 74.3412 46.285C74.3443 46.0534 74.3474 45.5874 74.3474 45.3558C73.7304 45.3789 73.1164 45.4021 72.4994 45.4311ZM75.1877 45.3674C75.1877 45.5932 75.1908 46.0476 75.1908 46.2734C75.814 46.2647 76.4372 46.2561 77.0635 46.2445C77.0635 46.0332 77.0635 45.6105 77.0635 45.3992C76.4372 45.3876 75.8109 45.3761 75.1877 45.3674ZM77.7209 45.3992C77.7209 45.6105 77.7209 46.0332 77.7209 46.2445C78.3441 46.2561 78.9704 46.2647 79.5967 46.2734C79.5967 46.0476 79.5967 45.5932 79.5967 45.3674C78.9704 45.3761 78.3472 45.3847 77.7209 45.3992ZM80.437 45.3558C80.437 45.5874 80.4401 46.0505 80.4401 46.2821C81.0571 46.2618 81.6741 46.2445 82.2912 46.2242C82.2881 46.0245 82.285 45.6308 82.2819 45.4311C81.6679 45.4021 81.0509 45.3789 80.437 45.3558Z" fill="#0E0E0E"/>
<path d="M109.375 23.4542C110.091 22.2094 112.218 22.1023 112.962 23.3818C112.773 24.3602 112.615 25.3444 112.423 26.32C112.355 27.6718 110.299 28.5923 109.198 27.6429C109.18 27.6226 109.146 27.585 109.127 27.5676C108.29 26.3286 108.649 24.6671 109.375 23.4542Z" fill="#0E0E0E"/>
<path d="M139.141 23.4513C139.857 22.2095 141.987 22.1024 142.728 23.3818C142.468 24.5918 142.359 25.8308 141.997 27.0176C141.38 27.8976 139.888 28.4505 138.964 27.6429C138.946 27.6226 138.908 27.585 138.89 27.5676C138.059 26.3258 138.412 24.6671 139.141 23.4513Z" fill="#0E0E0E"/>
<path d="M36.4456 4.57471C37.1153 4.5776 37.785 4.58629 38.4517 4.60944C38.2191 5.50971 37.4502 6.23629 36.4828 6.4476C36.458 5.82234 36.4487 5.19997 36.4456 4.57471Z" fill="#C8C8C8"/>
<path d="M38.9695 4.61236C39.6051 4.59499 40.2438 4.58051 40.8795 4.56604C40.8795 4.8063 40.8795 5.28683 40.8795 5.52999C40.2438 5.51262 39.6082 5.49525 38.9726 5.47499C38.9695 5.26078 38.9695 4.82946 38.9695 4.61236Z" fill="#C8C8C8"/>
<path d="M41.6794 4.57764C42.3274 4.57764 42.9785 4.57764 43.6266 4.58053C43.6297 4.81501 43.6359 5.28106 43.639 5.51553C42.9847 5.51553 42.3305 5.51553 41.6763 5.51553C41.6763 5.28106 41.6794 4.81211 41.6794 4.57764Z" fill="#C8C8C8"/>
<path d="M44.1846 4.58053C44.8326 4.57764 45.4838 4.57764 46.1318 4.57764C46.1318 4.81211 46.1349 5.28106 46.1349 5.51553C45.4807 5.51553 44.8295 5.51264 44.1753 5.50974C44.1784 5.27816 44.1815 4.81211 44.1846 4.58053Z" fill="#C8C8C8"/>
<path d="M46.9319 4.56604C47.5706 4.58051 48.2062 4.59499 48.8419 4.61236C48.8419 4.82946 48.8419 5.26078 48.8388 5.47499C48.2031 5.49525 47.5675 5.51262 46.9319 5.52709C46.9319 5.28683 46.9319 4.8063 46.9319 4.56604Z" fill="#C8C8C8"/>
<path d="M49.3625 4.60944C50.0292 4.58629 50.6958 4.5776 51.3655 4.57471C51.3624 5.19997 51.35 5.82234 51.3283 6.4476C50.364 6.2305 49.5827 5.5155 49.3625 4.60944Z" fill="#C8C8C8"/>
<path d="M69.96 4.5979C70.608 4.60369 71.2591 4.61527 71.9103 4.63553C71.6498 5.50685 70.9274 6.17553 69.9972 6.42448C69.9724 5.81658 69.9631 5.20869 69.96 4.5979Z" fill="#C8C8C8"/>
<path d="M72.4963 4.6442C73.1103 4.62394 73.7273 4.60367 74.3443 4.5863C74.3443 4.81788 74.3443 5.28104 74.3474 5.51262C73.7304 5.48946 73.1134 5.46341 72.4994 5.43736C72.4994 5.23762 72.4963 4.84394 72.4963 4.6442Z" fill="#C8C8C8"/>
<path d="M75.1877 4.59497C75.811 4.60365 76.4373 4.61234 77.0636 4.62392C77.0636 4.83523 77.0636 5.25787 77.0636 5.47208C76.4373 5.48366 75.8141 5.49234 75.1877 5.50102C75.1877 5.27523 75.1877 4.82076 75.1877 4.59497Z" fill="#C8C8C8"/>
<path d="M77.7209 4.62392C78.3442 4.61234 78.9705 4.60365 79.5968 4.59497C79.5968 4.82076 79.5968 5.27234 79.5968 5.50102C78.9705 5.49234 78.3473 5.48076 77.7209 5.47208C77.7209 5.25787 77.7209 4.83523 77.7209 4.62392Z" fill="#C8C8C8"/>
<path d="M80.4432 4.5863C81.0571 4.60367 81.6742 4.62394 82.2912 4.64709C82.2881 4.84394 82.285 5.23762 82.2819 5.43736C81.6649 5.46341 81.0509 5.48946 80.437 5.51262C80.437 5.28104 80.4401 4.81788 80.4432 4.5863Z" fill="#C8C8C8"/>
<path d="M82.8708 4.63264C83.522 4.61237 84.1762 4.6008 84.8273 4.5979C84.8211 5.2058 84.8087 5.81658 84.787 6.42448C83.8568 6.17264 83.1344 5.50395 82.8708 4.63264Z" fill="#C8C8C8"/>
<path d="M36.4889 6.93103C36.7184 6.93103 37.1804 6.93393 37.4098 6.93393C37.4315 7.52735 37.4501 8.12077 37.4687 8.71419C37.2083 8.71419 36.6936 8.71419 36.4331 8.71419C36.4517 8.12077 36.4672 7.52445 36.4889 6.93103Z" fill="#C8C8C8"/>
<path d="M50.4014 6.93393C50.6309 6.93393 51.0929 6.93103 51.3254 6.93103C51.344 7.52445 51.3595 8.11787 51.375 8.71419C51.1177 8.71419 50.5999 8.71419 50.3425 8.71419C50.3611 8.12077 50.3797 7.52735 50.4014 6.93393Z" fill="#C8C8C8"/>
<path d="M70.0066 6.96576C70.2174 6.96865 70.6422 6.97155 70.8531 6.97155C70.8841 7.5476 70.912 8.12365 70.9368 8.69971C70.6887 8.69681 70.1926 8.69392 69.9446 8.69102C69.9632 8.11497 69.9849 7.54181 70.0066 6.96576Z" fill="#C8C8C8"/>
<path d="M83.9283 6.97155C84.1391 6.97155 84.5639 6.96865 84.7778 6.96576C84.7995 7.54181 84.8181 8.11786 84.8399 8.69102C84.5918 8.69392 84.0957 8.69681 83.8477 8.69681C83.8725 8.12076 83.8973 7.5476 83.9283 6.97155Z" fill="#C8C8C8"/>
<path d="M36.4485 9.45813C36.6996 9.45813 37.2019 9.45813 37.4531 9.45813C37.4531 10.0689 37.4531 10.6768 37.45 11.2876C37.1988 11.2847 36.6996 11.2818 36.4516 11.2789C36.4485 10.6739 36.4485 10.066 36.4485 9.45813Z" fill="#C8C8C8"/>
<path d="M50.3579 9.45813C50.6091 9.45813 51.1114 9.46102 51.3625 9.46102C51.3625 10.066 51.3625 10.671 51.3594 11.2789C51.1114 11.2818 50.6122 11.2876 50.361 11.2905C50.3579 10.6797 50.3579 10.0689 50.3579 9.45813Z" fill="#C8C8C8"/>
<path d="M69.9539 9.48422C70.1957 9.48132 70.6794 9.48132 70.9213 9.48132C70.912 10.0632 70.9026 10.6479 70.8933 11.2326C70.6639 11.2326 70.2112 11.2326 69.9818 11.2326C69.9725 10.6479 69.9632 10.0661 69.9539 9.48422Z" fill="#C8C8C8"/>
<path d="M83.8633 9.48132C84.1051 9.48132 84.5888 9.48132 84.8307 9.48132C84.8214 10.0661 84.8121 10.6479 84.7997 11.2326C84.5733 11.2326 84.1175 11.2326 83.8912 11.2326C83.8788 10.6479 83.8695 10.0661 83.8633 9.48132Z" fill="#C8C8C8"/>
<path d="M36.4516 11.8C36.6996 11.8 37.1988 11.7942 37.45 11.7913C37.4531 12.3992 37.4531 13.01 37.4531 13.6179C37.2019 13.6179 36.6996 13.6179 36.4485 13.6208C36.4485 13.0129 36.4485 12.4079 36.4516 11.8Z" fill="#C8C8C8"/>
<path d="M50.361 11.7913C50.6122 11.7942 51.1114 11.7971 51.3594 11.8C51.3625 12.405 51.3625 13.0129 51.3625 13.6179C51.1114 13.6179 50.6091 13.6208 50.3579 13.6208C50.3579 13.01 50.3579 12.4021 50.361 11.7913Z" fill="#C8C8C8"/>
<path d="M69.9818 11.8492C70.2112 11.8492 70.6639 11.8463 70.8902 11.8463C70.9026 12.4282 70.915 13.0129 70.9244 13.5976C70.6825 13.5976 70.1957 13.5947 69.9539 13.5947C69.9632 13.0129 69.9725 12.431 69.9818 11.8492Z" fill="#C8C8C8"/>
<path d="M83.8911 11.8463C84.1206 11.8463 84.5763 11.8463 84.8027 11.8463C84.812 12.4282 84.8213 13.0129 84.8275 13.5947C84.5857 13.5947 84.102 13.5976 83.8601 13.5976C83.8694 13.0129 83.8787 12.4311 83.8911 11.8463Z" fill="#C8C8C8"/>
<path d="M36.4331 14.3676C36.6936 14.3647 37.2083 14.3647 37.4656 14.3647C37.4501 14.9582 37.4315 15.5516 37.4098 16.1479C37.1804 16.1479 36.7184 16.1479 36.4889 16.1479C36.4672 15.5545 36.4517 14.9611 36.4331 14.3676Z" fill="#C8C8C8"/>
<path d="M50.3425 14.3647C50.5999 14.3647 51.1177 14.3647 51.375 14.3647C51.3595 14.9582 51.344 15.5545 51.3254 16.1508C51.0929 16.1479 50.6309 16.145 50.4014 16.145C50.3797 15.5516 50.3611 14.9582 50.3425 14.3647Z" fill="#C8C8C8"/>
<path d="M69.9446 14.3879C70.1926 14.3879 70.6887 14.3821 70.9368 14.3821C70.912 14.9552 70.8841 15.5284 70.8562 16.1044C70.6422 16.1073 70.2205 16.1102 70.0066 16.1131C69.9849 15.54 69.9632 14.9639 69.9446 14.3879Z" fill="#C8C8C8"/>
<path d="M83.8477 14.3821C84.0957 14.385 84.5949 14.385 84.843 14.3879C84.8212 14.961 84.7995 15.5371 84.7778 16.1102C84.5639 16.1102 84.1422 16.1073 83.9283 16.1073C83.8973 15.5313 83.8725 14.9581 83.8477 14.3821Z" fill="#C8C8C8"/>
<path d="M36.4828 16.6313C37.4471 16.8484 38.2222 17.5663 38.4517 18.4694C37.7819 18.4926 37.1153 18.5013 36.4456 18.5042C36.4487 17.8789 36.458 17.2565 36.4828 16.6313Z" fill="#C8C8C8"/>
<path d="M49.3594 18.4695C49.5888 17.5692 50.3609 16.8426 51.3283 16.6342C51.35 17.2566 51.3624 17.879 51.3655 18.5042C50.6957 18.4984 50.0291 18.4926 49.3594 18.4695Z" fill="#C8C8C8"/>
<path d="M69.9973 16.6573C70.9275 16.9034 71.65 17.575 71.9135 18.4434C71.2593 18.4666 70.6082 18.4752 69.957 18.481C69.9601 17.8731 69.9725 17.2623 69.9973 16.6573Z" fill="#C8C8C8"/>
<path d="M82.8708 18.4434C83.1344 17.575 83.8506 16.8976 84.787 16.6573C84.8118 17.2623 84.8211 17.8702 84.8273 18.4781C84.1731 18.4752 83.522 18.4666 82.8708 18.4434Z" fill="#C8C8C8"/>
<path d="M88.5605 17.0452C89.2117 17.0481 89.8628 17.0597 90.5139 17.0829C90.2566 17.9542 89.5279 18.62 88.6009 18.8689C88.576 18.261 88.5636 17.6531 88.5605 17.0452Z" fill="#C8C8C8"/>
<path d="M91.0969 17.0916C91.7108 17.0713 92.3279 17.0511 92.9449 17.0337C92.9449 17.2653 92.948 17.7284 92.9511 17.96C92.3341 17.9368 91.7201 17.9108 91.1062 17.8847C91.1031 17.685 91.1 17.2913 91.0969 17.0916Z" fill="#C8C8C8"/>
<path d="M93.7913 17.0424C94.4176 17.051 95.0408 17.0597 95.6671 17.0713C95.6671 17.2826 95.6671 17.7053 95.6671 17.9195C95.0408 17.9281 94.4145 17.9397 93.7913 17.9455C93.7913 17.7197 93.7913 17.2681 93.7913 17.0424Z" fill="#C8C8C8"/>
<path d="M96.3245 17.0713C96.9477 17.0597 97.574 17.051 98.2003 17.0424C98.2003 17.2681 98.2003 17.7197 98.2003 17.9455C97.574 17.9368 96.9508 17.9281 96.3245 17.9195C96.3245 17.7081 96.3245 17.2826 96.3245 17.0713Z" fill="#C8C8C8"/>
<path d="M99.0439 17.0308C99.661 17.051 100.278 17.0713 100.895 17.0944C100.892 17.2913 100.889 17.685 100.886 17.8818C100.272 17.9108 99.6579 17.9368 99.0439 17.96C99.0439 17.7284 99.0439 17.2652 99.0439 17.0308Z" fill="#C8C8C8"/>
<path d="M101.475 17.0829C102.126 17.0597 102.777 17.0481 103.431 17.0452C103.425 17.6531 103.416 18.261 103.391 18.8689C102.461 18.6229 101.735 17.9542 101.475 17.0829Z" fill="#C8C8C8"/>
<path d="M118.33 17.0452C118.978 17.051 119.629 17.0597 120.283 17.0829C120.016 17.9513 119.297 18.6258 118.367 18.8718C118.342 18.2639 118.333 17.6531 118.33 17.0452Z" fill="#C8C8C8"/>
<path d="M120.863 17.0945C121.48 17.0713 122.094 17.0511 122.714 17.0337C122.714 17.2653 122.717 17.7284 122.717 17.96C122.1 17.9368 121.486 17.9108 120.869 17.8847C120.869 17.685 120.866 17.2913 120.863 17.0945Z" fill="#C8C8C8"/>
<path d="M123.557 17.0424C124.181 17.051 124.807 17.0597 125.43 17.0684C125.433 17.2797 125.433 17.7053 125.436 17.9195C124.807 17.9281 124.184 17.9368 123.557 17.9455C123.557 17.7197 123.557 17.2681 123.557 17.0424Z" fill="#C8C8C8"/>
<path d="M126.091 17.0684C126.714 17.0597 127.337 17.051 127.963 17.0452C127.963 17.271 127.966 17.7197 127.966 17.9455C127.34 17.9397 126.717 17.9281 126.091 17.9194C126.091 17.7052 126.091 17.2797 126.091 17.0684Z" fill="#C8C8C8"/>
<path d="M128.813 17.0337C129.427 17.0511 130.044 17.0713 130.661 17.0916C130.658 17.2913 130.655 17.6879 130.652 17.8847C130.034 17.9108 129.421 17.9368 128.807 17.9571C128.81 17.7284 128.81 17.2653 128.813 17.0337Z" fill="#C8C8C8"/>
<path d="M131.241 17.0858C131.892 17.0626 132.543 17.051 133.197 17.0452C133.191 17.6531 133.179 18.261 133.157 18.8689C132.224 18.6258 131.507 17.9542 131.241 17.0858Z" fill="#C8C8C8"/>
<path d="M148.095 17.0452C148.743 17.051 149.395 17.0626 150.049 17.0858C149.782 17.9542 149.063 18.6229 148.133 18.8718C148.108 18.2639 148.099 17.6531 148.095 17.0452Z" fill="#C8C8C8"/>
<path d="M150.629 17.0916C151.243 17.0713 151.86 17.0511 152.48 17.0337C152.48 17.2653 152.483 17.7284 152.483 17.96C151.866 17.9368 151.252 17.9137 150.638 17.8847C150.635 17.6879 150.632 17.2884 150.629 17.0916Z" fill="#C8C8C8"/>
<path d="M153.326 17.0424C153.95 17.051 154.573 17.0597 155.199 17.0713C155.199 17.2826 155.199 17.7053 155.199 17.9195C154.573 17.9281 153.946 17.9397 153.323 17.9484C153.323 17.7226 153.326 17.2681 153.326 17.0424Z" fill="#C8C8C8"/>
<path d="M155.856 17.0713C156.48 17.0597 157.103 17.0481 157.732 17.0424C157.732 17.2681 157.732 17.7197 157.732 17.9455C157.106 17.9397 156.483 17.9281 155.86 17.9195C155.856 17.7081 155.856 17.2826 155.856 17.0713Z" fill="#C8C8C8"/>
<path d="M158.579 17.0337C159.193 17.0511 159.81 17.0713 160.427 17.0945C160.424 17.2913 160.42 17.6879 160.42 17.8847C159.803 17.9108 159.186 17.9368 158.573 17.9571C158.576 17.7255 158.579 17.2653 158.579 17.0337Z" fill="#C8C8C8"/>
<path d="M161.006 17.0829C161.657 17.0597 162.309 17.0511 162.96 17.0482C162.957 17.6561 162.944 18.2611 162.923 18.8689C161.989 18.6287 161.273 17.9513 161.006 17.0829Z" fill="#C8C8C8"/>
<path d="M38.9695 17.604C39.6082 17.5837 40.2438 17.5663 40.8826 17.549C40.8795 17.7921 40.8764 18.2726 40.8764 18.5158C40.2407 18.4984 39.6051 18.484 38.9726 18.4666C38.9695 18.2495 38.9695 17.8182 38.9695 17.604Z" fill="#C8C8C8"/>
<path d="M41.6763 17.5634C42.3305 17.5634 42.9847 17.5634 43.6359 17.5663C43.6359 17.8008 43.6297 18.2668 43.6266 18.4984C42.9785 18.5013 42.3274 18.5013 41.6794 18.4984C41.6794 18.2668 41.6763 17.7979 41.6763 17.5634Z" fill="#C8C8C8"/>
<path d="M44.1721 17.5663C44.8263 17.5634 45.4806 17.5634 46.1348 17.5634C46.1348 17.7979 46.1317 18.2668 46.1317 18.4984C45.4806 18.5013 44.8326 18.5013 44.1845 18.4984C44.1814 18.2668 44.1752 17.7979 44.1721 17.5663Z" fill="#C8C8C8"/>
<path d="M46.9319 17.5518C47.5675 17.5663 48.2031 17.5837 48.8388 17.6039C48.8388 17.8181 48.8419 18.2495 48.8419 18.4666C48.2062 18.4839 47.5675 18.4984 46.9319 18.5158C46.9319 18.2726 46.9319 17.7921 46.9319 17.5518Z" fill="#C8C8C8"/>
<path d="M72.4995 17.6415C73.1166 17.6155 73.7305 17.5894 74.3475 17.5663C74.3475 17.7979 74.3444 18.261 74.3444 18.4926C73.7243 18.4752 73.1073 18.455 72.4902 18.4347C72.4933 18.235 72.4964 17.8413 72.4995 17.6415Z" fill="#C8C8C8"/>
<path d="M75.1877 17.5807C75.811 17.5865 76.4373 17.5981 77.0636 17.6097C77.0636 17.821 77.0636 18.2436 77.0636 18.4579C76.4404 18.4665 75.8141 18.4752 75.1908 18.4839C75.1908 18.2581 75.1877 17.8065 75.1877 17.5807Z" fill="#C8C8C8"/>
<path d="M77.7241 17.6097C78.3473 17.5981 78.9736 17.5866 79.5968 17.5779C79.5968 17.8037 79.5937 18.2552 79.5937 18.481C78.9674 18.4752 78.3442 18.4666 77.7209 18.4579C77.7209 18.2437 77.721 17.821 77.7241 17.6097Z" fill="#C8C8C8"/>
<path d="M80.437 17.5663C81.054 17.5894 81.668 17.6155 82.285 17.6415C82.285 17.8413 82.2881 18.235 82.2912 18.4347C81.6742 18.455 81.0571 18.4752 80.4432 18.4955C80.4401 18.2639 80.4401 17.7979 80.437 17.5663Z" fill="#C8C8C8"/>
<path d="M115.068 18.5244C115.62 18.481 115.387 19.4942 114.9 19.2279C114.944 19.0513 115.028 18.701 115.068 18.5244Z" fill="#C8C8C8"/>
<path d="M144.834 18.5244C145.386 18.481 145.153 19.4942 144.666 19.2279C144.71 19.0513 144.79 18.701 144.834 18.5244Z" fill="#C8C8C8"/>
<path d="M88.6101 19.4131C88.824 19.416 89.2488 19.4189 89.4597 19.4218C89.4876 19.995 89.5155 20.571 89.5403 21.1442C89.2922 21.1442 88.7961 21.1413 88.5481 21.1384C88.5667 20.5624 88.5884 19.9892 88.6101 19.4131Z" fill="#C8C8C8"/>
<path d="M102.532 19.4189C102.743 19.4189 103.171 19.416 103.382 19.4131C103.403 19.9892 103.425 20.5653 103.444 21.1413C103.196 21.1413 102.703 21.1413 102.455 21.1442C102.476 20.5681 102.501 19.995 102.532 19.4189Z" fill="#C8C8C8"/>
<path d="M113.527 20.2063C113.124 19.8358 113.192 19.5666 113.731 19.4016C113.768 19.691 113.7 19.9602 113.527 20.2063Z" fill="#C8C8C8"/>
<path d="M118.379 19.4131C118.59 19.416 119.012 19.4189 119.223 19.4218C119.254 19.995 119.278 20.5681 119.306 21.1442C119.055 21.1413 118.559 21.1413 118.311 21.1384C118.33 20.5624 118.354 19.9892 118.379 19.4131Z" fill="#C8C8C8"/>
<path d="M132.298 19.4189C132.509 19.4189 132.934 19.416 133.147 19.4131C133.169 19.9892 133.188 20.5624 133.209 21.1384C132.961 21.1413 132.465 21.1442 132.217 21.1471C132.242 20.571 132.267 19.995 132.298 19.4189Z" fill="#C8C8C8"/>
<path d="M143.293 20.2063C142.89 19.8358 142.958 19.5666 143.497 19.4016C143.535 19.6939 143.466 19.9631 143.293 20.2063Z" fill="#C8C8C8"/>
<path d="M148.142 19.4131C148.356 19.416 148.778 19.4189 148.992 19.4189C149.02 19.995 149.044 20.5681 149.072 21.1442C148.824 21.1413 148.328 21.1384 148.08 21.1384C148.099 20.5624 148.12 19.9892 148.142 19.4131Z" fill="#C8C8C8"/>
<path d="M162.064 19.4218C162.275 19.4189 162.699 19.416 162.91 19.4131C162.935 19.9892 162.954 20.5653 162.978 21.1384C162.73 21.1413 162.231 21.1413 161.983 21.1442C162.005 20.5681 162.033 19.995 162.064 19.4218Z" fill="#C8C8C8"/>
<path d="M112.702 22.0184C112.693 21.5842 112.903 21.4018 113.338 21.4713C113.424 21.8389 113.133 22.4526 112.702 22.0184Z" fill="#C8C8C8"/>
<path d="M142.468 22.0184C142.459 21.5842 142.67 21.4018 143.104 21.4713C143.191 21.8389 142.899 22.4526 142.468 22.0184Z" fill="#C8C8C8"/>
<path d="M109.446 21.8505C109.471 21.836 109.524 21.8071 109.549 21.7926C109.524 21.8071 109.471 21.836 109.446 21.8505Z" fill="#C8C8C8"/>
<path d="M139.219 21.8505C139.24 21.8361 139.29 21.81 139.312 21.7955C139.29 21.81 139.24 21.8361 139.219 21.8505Z" fill="#C8C8C8"/>
<path d="M88.5576 21.9287C88.7995 21.9287 89.2832 21.9287 89.5281 21.9258C89.5188 22.5105 89.5095 23.0953 89.4971 23.6829C89.2708 23.68 88.815 23.68 88.5886 23.6771C88.5762 23.0953 88.5638 22.5105 88.5576 21.9287Z" fill="#C8C8C8"/>
<path d="M102.464 21.9286C102.709 21.9286 103.192 21.9286 103.434 21.9286C103.425 22.5134 103.416 23.0981 103.403 23.68C103.177 23.68 102.724 23.68 102.495 23.68C102.482 23.0952 102.473 22.5105 102.464 21.9286Z" fill="#C8C8C8"/>
<path d="M118.323 21.9315C118.565 21.9287 119.049 21.9286 119.294 21.9286C119.282 22.5134 119.272 23.0952 119.26 23.68C119.034 23.68 118.581 23.68 118.354 23.68C118.342 23.0981 118.333 22.5134 118.323 21.9315Z" fill="#C8C8C8"/>
<path d="M132.23 21.9286C132.472 21.9286 132.955 21.9286 133.197 21.9286C133.188 22.5134 133.182 23.0952 133.172 23.68C132.943 23.68 132.49 23.68 132.264 23.68C132.248 23.0952 132.239 22.5105 132.23 21.9286Z" fill="#C8C8C8"/>
<path d="M148.089 21.9286C148.331 21.9286 148.815 21.9286 149.057 21.9286C149.047 22.5134 149.038 23.0952 149.029 23.68C148.802 23.68 148.347 23.68 148.12 23.68C148.108 23.0952 148.096 22.5134 148.089 21.9286Z" fill="#C8C8C8"/>
<path d="M161.999 21.9316C162.241 21.9316 162.724 21.9316 162.966 21.9316C162.957 22.5134 162.944 23.0953 162.935 23.68C162.709 23.68 162.253 23.68 162.027 23.68C162.014 23.0982 162.005 22.5134 161.999 21.9316Z" fill="#C8C8C8"/>
<path d="M88.5886 24.2937C88.815 24.2937 89.2708 24.2937 89.4971 24.2937C89.5064 24.8755 89.5188 25.4603 89.5281 26.0421C89.2832 26.0421 88.7995 26.0421 88.5576 26.0421C88.5669 25.4603 88.5762 24.8755 88.5886 24.2937Z" fill="#C8C8C8"/>
<path d="M102.495 24.2937C102.724 24.2937 103.177 24.2937 103.406 24.2937C103.416 24.8755 103.425 25.4603 103.434 26.0421C103.192 26.0421 102.705 26.045 102.464 26.0479C102.473 25.4632 102.482 24.8784 102.495 24.2937Z" fill="#C8C8C8"/>
<path d="M118.351 24.2966C118.578 24.2937 119.034 24.2937 119.26 24.2937C119.272 24.8784 119.282 25.4603 119.294 26.045C119.052 26.045 118.565 26.0421 118.323 26.0421C118.33 25.4603 118.339 24.8784 118.351 24.2966Z" fill="#C8C8C8"/>
<path d="M132.261 24.2937C132.49 24.2937 132.943 24.2966 133.172 24.2966C133.182 24.8784 133.188 25.4603 133.2 26.0421C132.955 26.0421 132.472 26.045 132.23 26.045C132.239 25.4603 132.248 24.8784 132.261 24.2937Z" fill="#C8C8C8"/>
<path d="M148.12 24.2937C148.347 24.2937 148.799 24.2937 149.029 24.2937C149.038 24.8755 149.047 25.4603 149.06 26.045C148.815 26.045 148.331 26.045 148.089 26.045C148.096 25.4603 148.108 24.8784 148.12 24.2937Z" fill="#C8C8C8"/>
<path d="M162.027 24.2908C162.256 24.2937 162.709 24.2937 162.935 24.2966C162.944 24.8784 162.957 25.4602 162.966 26.045C162.724 26.045 162.241 26.045 161.996 26.045C162.005 25.4602 162.014 24.8755 162.027 24.2908Z" fill="#C8C8C8"/>
<path d="M143.516 25.6889C143.463 25.4024 143.513 25.1303 143.665 24.8726C144.093 25.2258 144.04 25.4979 143.516 25.6889Z" fill="#C8C8C8"/>
<path d="M88.5452 26.8324C88.7963 26.8324 89.2924 26.8295 89.5405 26.8295C89.5157 27.4026 89.4878 27.9787 89.4598 28.5518C89.249 28.5547 88.8242 28.5576 88.6103 28.5605C88.5886 27.9845 88.5669 27.4084 88.5452 26.8324Z" fill="#C8C8C8"/>
<path d="M102.451 26.8295C102.699 26.8295 103.196 26.8324 103.447 26.8324C103.425 27.4084 103.403 27.9845 103.382 28.5605C103.168 28.5576 102.746 28.5547 102.535 28.5518C102.504 27.9787 102.476 27.4026 102.451 26.8295Z" fill="#C8C8C8"/>
<path d="M118.314 26.8353C118.562 26.8353 119.058 26.8324 119.306 26.8295C119.282 27.4055 119.254 27.9787 119.226 28.5547C119.015 28.5547 118.59 28.5576 118.376 28.5605C118.355 27.9845 118.333 27.4113 118.314 26.8353Z" fill="#C8C8C8"/>
<path d="M132.214 26.8295C132.465 26.8324 132.961 26.8353 133.209 26.8353C133.188 27.4113 133.169 27.9845 133.147 28.5605C132.937 28.5576 132.512 28.5547 132.301 28.5518C132.267 27.9787 132.239 27.4026 132.214 26.8295Z" fill="#C8C8C8"/>
<path d="M148.08 26.8295C148.328 26.8295 148.824 26.8324 149.072 26.8324C149.047 27.4055 149.02 27.9787 148.992 28.5518C148.778 28.5547 148.356 28.5605 148.145 28.5634C148.12 27.9845 148.099 27.4084 148.08 26.8295Z" fill="#C8C8C8"/>
<path d="M161.983 26.8323C162.231 26.8323 162.727 26.8323 162.975 26.8323C162.954 27.4084 162.935 27.9844 162.913 28.5605C162.699 28.5576 162.275 28.5547 162.064 28.5547C162.033 27.9787 162.005 27.4055 161.983 26.8323Z" fill="#C8C8C8"/>
<path d="M109.127 27.5676C109.146 27.585 109.18 27.6226 109.199 27.6429C109.18 27.6226 109.146 27.585 109.127 27.5676Z" fill="#C8C8C8"/>
<path d="M138.89 27.5676C138.909 27.585 138.946 27.6226 138.965 27.6429C138.946 27.6226 138.909 27.585 138.89 27.5676Z" fill="#C8C8C8"/>
<path d="M107.884 27.8658C107.899 27.8889 107.93 27.9353 107.943 27.9584C107.93 27.9353 107.899 27.8889 107.884 27.8658Z" fill="#C8C8C8"/>
<path d="M137.65 27.8658C137.665 27.8889 137.696 27.9353 137.712 27.9584C137.696 27.9353 137.665 27.8889 137.65 27.8658Z" fill="#C8C8C8"/>
<path d="M111.732 28.41L111.834 28.4939C111.778 28.4939 111.66 28.491 111.604 28.491L111.732 28.41Z" fill="#C8C8C8"/>
<path d="M108.804 28.7545C108.833 28.7689 108.892 28.7979 108.92 28.8123C108.892 28.7979 108.833 28.7689 108.804 28.7545Z" fill="#C8C8C8"/>
<path d="M138.571 28.7545C138.599 28.7689 138.658 28.7979 138.686 28.8123C138.658 28.7979 138.599 28.7689 138.571 28.7545Z" fill="#C8C8C8"/>
<path d="M88.6009 29.1047C89.5341 29.345 90.2504 30.0224 90.5139 30.8908C89.8628 30.9111 89.2117 30.9226 88.5605 30.9284C88.5667 30.3205 88.576 29.7126 88.6009 29.1047Z" fill="#C8C8C8"/>
<path d="M101.478 30.8908C101.738 30.0195 102.458 29.3508 103.391 29.1047C103.413 29.7126 103.425 30.3205 103.428 30.9284C102.777 30.9226 102.126 30.9139 101.478 30.8908Z" fill="#C8C8C8"/>
<path d="M118.367 29.1047C119.3 29.3479 120.02 30.0195 120.28 30.8908C119.629 30.9139 118.978 30.9226 118.327 30.9284C118.333 30.3205 118.342 29.7126 118.367 29.1047Z" fill="#C8C8C8"/>
<path d="M131.244 30.8908C131.504 30.0195 132.223 29.3479 133.157 29.1047C133.178 29.7126 133.191 30.3205 133.194 30.9284C132.543 30.9226 131.892 30.9139 131.244 30.8908Z" fill="#C8C8C8"/>
<path d="M148.133 29.1047C149.063 29.3508 149.785 30.0195 150.049 30.8908C149.395 30.9139 148.744 30.9226 148.093 30.9284C148.096 30.3205 148.108 29.7097 148.133 29.1047Z" fill="#C8C8C8"/>
<path d="M161.01 30.8908C161.267 30.0195 161.993 29.3479 162.926 29.1047C162.948 29.7126 162.957 30.3205 162.963 30.9284C162.309 30.9226 161.658 30.9139 161.01 30.8908Z" fill="#C8C8C8"/>
<path d="M91.1032 30.0889C91.7202 30.06 92.3341 30.0368 92.9512 30.0137C92.9512 30.2453 92.945 30.7084 92.945 30.94C92.3279 30.9226 91.714 30.9024 91.1001 30.8821C91.1001 30.6824 91.1032 30.2858 91.1032 30.0889Z" fill="#C8C8C8"/>
<path d="M93.7913 30.0253C94.4145 30.034 95.0408 30.0455 95.6671 30.0571C95.6671 30.2684 95.6671 30.6911 95.6671 30.9053C95.0408 30.914 94.4145 30.9226 93.7913 30.9313C93.7913 30.7055 93.7913 30.2511 93.7913 30.0253Z" fill="#C8C8C8"/>
<path d="M96.3245 30.0542C96.9508 30.0426 97.574 30.0339 98.2003 30.0281C98.2003 30.2539 98.1972 30.7055 98.1972 30.9313C97.5709 30.9226 96.9477 30.9139 96.3245 30.9052C96.3245 30.691 96.3245 30.2684 96.3245 30.0542Z" fill="#C8C8C8"/>
<path d="M99.0408 30.0137C99.6547 30.0368 100.272 30.0629 100.886 30.0918C100.889 30.2887 100.892 30.6853 100.895 30.8821C100.278 30.9024 99.6609 30.9226 99.047 30.94C99.0439 30.7084 99.0408 30.2453 99.0408 30.0137Z" fill="#C8C8C8"/>
<path d="M120.869 30.0889C121.483 30.06 122.1 30.0368 122.717 30.0137C122.717 30.2453 122.714 30.7084 122.711 30.94C122.094 30.9226 121.48 30.9024 120.863 30.8821C120.866 30.6824 120.869 30.2858 120.869 30.0889Z" fill="#C8C8C8"/>
<path d="M123.557 30.0253C124.181 30.034 124.807 30.0455 125.43 30.0571C125.433 30.2684 125.433 30.6911 125.436 30.9053C124.81 30.914 124.184 30.9226 123.557 30.9313C123.557 30.7026 123.557 30.2511 123.557 30.0253Z" fill="#C8C8C8"/>
<path d="M126.091 30.0571C126.714 30.0455 127.34 30.0339 127.966 30.0281C127.966 30.2539 127.966 30.7055 127.966 30.9313C127.34 30.9226 126.714 30.9139 126.091 30.9023C126.091 30.691 126.091 30.2684 126.091 30.0571Z" fill="#C8C8C8"/>
<path d="M128.807 30.0137C129.421 30.0368 130.038 30.06 130.655 30.0889C130.655 30.2858 130.661 30.6824 130.661 30.8821C130.044 30.9024 129.427 30.9226 128.81 30.94C128.81 30.7084 128.807 30.2453 128.807 30.0137Z" fill="#C8C8C8"/>
<path d="M150.638 30.0918C151.252 30.0629 151.866 30.0368 152.483 30.0165C152.483 30.2452 152.48 30.7084 152.48 30.94C151.86 30.9226 151.243 30.9023 150.629 30.8821C150.629 30.6852 150.635 30.2886 150.638 30.0918Z" fill="#C8C8C8"/>
<path d="M153.323 30.0253C153.946 30.034 154.573 30.0426 155.199 30.0542C155.199 30.2684 155.199 30.6911 155.196 30.9024C154.573 30.914 153.95 30.9226 153.326 30.9313C153.326 30.7055 153.323 30.254 153.323 30.0253Z" fill="#C8C8C8"/>
<path d="M155.856 30.0571C156.48 30.0426 157.106 30.034 157.732 30.0253C157.732 30.2511 157.732 30.7055 157.729 30.9313C157.103 30.9226 156.48 30.914 155.856 30.9024C155.856 30.6911 155.856 30.2684 155.856 30.0571Z" fill="#C8C8C8"/>
<path d="M158.576 30.0165C159.187 30.0368 159.804 30.0629 160.421 30.0889C160.421 30.2858 160.427 30.6823 160.427 30.8792C159.81 30.9023 159.193 30.9226 158.576 30.94C158.576 30.7113 158.576 30.2481 158.576 30.0165Z" fill="#C8C8C8"/>
<path d="M36.4702 32.3874C37.1213 32.3932 37.7725 32.4019 38.4267 32.425C38.1632 33.2934 37.4407 33.965 36.5136 34.2111C36.4857 33.6032 36.4764 32.9953 36.4702 32.3874Z" fill="#C8C8C8"/>
<path d="M39.0098 32.4365C39.6237 32.4134 40.2407 32.3931 40.8577 32.3729C40.8577 32.6044 40.8608 33.0705 40.8608 33.3021C40.2438 33.2789 39.6268 33.2529 39.0129 33.2268C39.0129 33.03 39.0098 32.6334 39.0098 32.4365Z" fill="#C8C8C8"/>
<path d="M41.7009 32.3845C42.3273 32.3931 42.9536 32.4018 43.5768 32.4134C43.5768 32.6247 43.5768 33.0474 43.5768 33.2616C42.9505 33.2702 42.3273 33.2818 41.704 33.2905C41.704 33.0618 41.7009 32.6102 41.7009 32.3845Z" fill="#C8C8C8"/>
<path d="M44.2341 32.4134C44.8574 32.4018 45.4806 32.3931 46.1069 32.3845C46.1069 32.6102 46.11 33.0647 46.11 33.2905C45.4837 33.2818 44.8605 33.2731 44.2341 33.2616C44.2341 33.0502 44.2341 32.6247 44.2341 32.4134Z" fill="#C8C8C8"/>
<path d="M46.9566 32.3758C47.5737 32.3932 48.1876 32.4105 48.8046 32.4337C48.8015 32.6305 48.7984 33.0271 48.7984 33.224C48.1814 33.2529 47.5644 33.279 46.9504 33.3021C46.9504 33.0705 46.9566 32.6074 46.9566 32.3758Z" fill="#C8C8C8"/>
<path d="M49.3875 32.425C50.0386 32.4019 50.6897 32.3903 51.3408 32.3874C51.3346 32.9953 51.3253 33.6032 51.3005 34.2111C50.3703 33.9679 49.6479 33.2934 49.3875 32.425Z" fill="#C8C8C8"/>
<path d="M69.96 32.3874C70.6111 32.3903 71.2591 32.4019 71.9103 32.425C71.6529 33.2963 70.9274 33.965 69.9972 34.2111C69.9724 33.6032 69.9631 32.9953 69.96 32.3874Z" fill="#C8C8C8"/>
<path d="M72.4932 32.4366C73.1102 32.4134 73.7272 32.3932 74.3442 32.3758C74.3442 32.6074 74.3442 33.0705 74.3442 33.3021C73.7303 33.279 73.1133 33.2529 72.4994 33.2268C72.4963 33.0271 72.4963 32.6334 72.4932 32.4366Z" fill="#C8C8C8"/>
<path d="M75.1877 32.3845C75.8141 32.3931 76.4373 32.4018 77.0636 32.4134C77.0636 32.6247 77.0636 33.0502 77.0636 33.2616C76.4373 33.2731 75.8141 33.2818 75.1877 33.2876C75.1877 33.0618 75.1877 32.6102 75.1877 32.3845Z" fill="#C8C8C8"/>
<path d="M77.7209 32.4134C78.3442 32.4019 78.9705 32.3932 79.5968 32.3874C79.5968 32.6103 79.5968 33.0619 79.5968 33.2877C78.9705 33.279 78.3473 33.2732 77.7209 33.2616C77.7209 33.0503 77.7209 32.6248 77.7209 32.4134Z" fill="#C8C8C8"/>
<path d="M80.4401 32.3729C81.0571 32.3931 81.6742 32.4134 82.2912 32.4365C82.2881 32.6334 82.285 33.0271 82.2819 33.2268C81.668 33.2529 81.054 33.2789 80.437 33.3021C80.4401 33.0705 80.4401 32.6073 80.4401 32.3729Z" fill="#C8C8C8"/>
<path d="M82.8708 32.425C83.522 32.4019 84.1731 32.3903 84.8273 32.3874C84.8211 32.9953 84.8087 33.6032 84.787 34.214C83.8537 33.9679 83.1313 33.2963 82.8708 32.425Z" fill="#C8C8C8"/>
<path d="M36.5198 34.7552C36.7337 34.7581 37.1585 34.761 37.3693 34.761C37.3972 35.3371 37.4252 35.9102 37.45 36.4863C37.2019 36.4863 36.7058 36.4834 36.4578 36.4834C36.4764 35.9074 36.4981 35.3313 36.5198 34.7552Z" fill="#C8C8C8"/>
<path d="M50.4417 34.761C50.6525 34.761 51.0773 34.7581 51.2913 34.7552C51.313 35.3313 51.3347 35.9045 51.3533 36.4805C51.1052 36.4834 50.6091 36.4863 50.3611 36.4863C50.3859 35.9102 50.4107 35.3371 50.4417 34.761Z" fill="#C8C8C8"/>
<path d="M70.0066 34.7552C70.2174 34.7581 70.6453 34.761 70.8562 34.7639C70.8841 35.3371 70.912 35.9102 70.9368 36.4863C70.6887 36.4863 70.1926 36.4834 69.9446 36.4834C69.9632 35.9074 69.9849 35.3313 70.0066 34.7552Z" fill="#C8C8C8"/>
<path d="M83.9283 34.761C84.1422 34.761 84.5639 34.7581 84.7747 34.7552C84.7995 35.3313 84.8181 35.9045 84.8399 36.4805C84.5918 36.4805 84.0957 36.4863 83.8477 36.4863C83.8725 35.9102 83.9004 35.3371 83.9283 34.761Z" fill="#C8C8C8"/>
<path d="M36.4673 37.2736C36.7091 37.2736 37.1928 37.2708 37.4347 37.2708C37.4285 37.8526 37.4161 38.4373 37.4068 39.0221C37.1773 39.0221 36.7246 39.0221 36.4952 39.0221C36.4859 38.4373 36.4766 37.8555 36.4673 37.2736Z" fill="#C8C8C8"/>
<path d="M50.3733 37.2708C50.6151 37.2708 51.0988 37.2708 51.3438 37.2708C51.3345 37.8526 51.3252 38.4373 51.3159 39.0221C51.0864 39.0221 50.6337 39.0221 50.4043 39.0221C50.3919 38.4373 50.3826 37.8526 50.3733 37.2708Z" fill="#C8C8C8"/>
<path d="M69.9539 37.2708C70.1957 37.2708 70.6794 37.2708 70.9244 37.2708C70.915 37.8526 70.9026 38.4373 70.8933 39.0221C70.6639 39.0221 70.2112 39.0221 69.9818 39.0221C69.9725 38.4373 69.9601 37.8555 69.9539 37.2708Z" fill="#C8C8C8"/>
<path d="M83.8601 37.2708C84.102 37.2708 84.5888 37.2708 84.8306 37.2708C84.8213 37.8555 84.812 38.4402 84.8027 39.025C84.5732 39.0221 84.1206 39.0221 83.8942 39.0221C83.8787 38.4373 83.8694 37.8526 83.8601 37.2708Z" fill="#C8C8C8"/>
<path d="M36.4952 39.6358C36.7246 39.6358 37.1773 39.6358 37.4068 39.6358C37.4161 40.2205 37.4254 40.8024 37.4347 41.3842C37.1928 41.3842 36.7091 41.3842 36.4673 41.3842C36.4766 40.8024 36.4859 40.2176 36.4952 39.6358Z" fill="#C8C8C8"/>
<path d="M50.4074 39.6358C50.6337 39.6358 51.0864 39.6358 51.3128 39.6358C51.3252 40.2205 51.3345 40.8024 51.3438 41.3842C51.1019 41.3842 50.6151 41.3871 50.3733 41.3871C50.3826 40.8024 50.395 40.2176 50.4074 39.6358Z" fill="#C8C8C8"/>
<path d="M69.9849 39.6358C70.2112 39.6358 70.667 39.6358 70.8933 39.6358C70.9057 40.2205 70.915 40.8053 70.9244 41.39C70.6825 41.3871 70.1957 41.3871 69.9539 41.3871C69.9632 40.8024 69.9725 40.2176 69.9849 39.6358Z" fill="#C8C8C8"/>
<path d="M83.8911 39.6358C84.1206 39.6358 84.5732 39.6329 84.8027 39.6329C84.812 40.2176 84.8213 40.8023 84.8306 41.3871C84.5888 41.3871 84.102 41.3871 83.8601 41.3871C83.8694 40.8023 83.8787 40.2205 83.8911 39.6358Z" fill="#C8C8C8"/>
<path d="M36.4578 42.1774C36.7058 42.1745 37.2019 42.1745 37.45 42.1716C37.4252 42.7476 37.3972 43.3208 37.3693 43.8968C37.1554 43.8968 36.7337 43.8997 36.5198 43.8997C36.4981 43.3266 36.4764 42.7505 36.4578 42.1774Z" fill="#C8C8C8"/>
<path d="M50.3611 42.1686C50.6091 42.1715 51.1052 42.1744 51.3533 42.1773C51.3347 42.7505 51.313 43.3265 51.2913 43.8997C51.0804 43.8997 50.6556 43.8968 50.4448 43.8968C50.4138 43.3207 50.3859 42.7447 50.3611 42.1686Z" fill="#C8C8C8"/>
<path d="M69.9446 42.1774C70.1926 42.1745 70.6887 42.1716 70.9368 42.1716C70.912 42.7447 70.8841 43.3208 70.8562 43.8939C70.6453 43.8968 70.2205 43.8997 70.0097 43.9026C69.9849 43.3266 69.9632 42.7505 69.9446 42.1774Z" fill="#C8C8C8"/>
<path d="M83.8477 42.1716C84.0957 42.1716 84.5949 42.1745 84.843 42.1745C84.8212 42.7505 84.7995 43.3266 84.7778 43.9026C84.5639 43.9026 84.1391 43.8968 83.9283 43.8968C83.8973 43.3208 83.8725 42.7476 83.8477 42.1716Z" fill="#C8C8C8"/>
<path d="M36.5105 44.4468C37.4407 44.6929 38.1663 45.3616 38.4236 46.2329C37.7725 46.2561 37.1213 46.2647 36.4702 46.2705C36.4764 45.6626 36.4857 45.0547 36.5105 44.4468Z" fill="#C8C8C8"/>
<path d="M49.3843 46.2329C49.6509 45.3674 50.3672 44.69 51.3005 44.4468C51.3253 45.0518 51.3346 45.6597 51.3408 46.2676C50.6865 46.2647 50.0354 46.2532 49.3843 46.2329Z" fill="#C8C8C8"/>
<path d="M70.0004 44.4439C70.9306 44.69 71.6469 45.3644 71.9135 46.2329C71.2593 46.256 70.6082 46.2647 69.957 46.2705C69.9601 45.6597 69.9725 45.0518 70.0004 44.4439Z" fill="#C8C8C8"/>
<path d="M82.8743 46.2329C83.1316 45.3616 83.8572 44.69 84.7874 44.4468C84.8122 45.0547 84.8215 45.6626 84.8277 46.2705C84.1765 46.2647 83.5254 46.2561 82.8743 46.2329Z" fill="#C8C8C8"/>
<path d="M39.0159 45.431C39.6298 45.405 40.2437 45.3789 40.8608 45.3558C40.8608 45.5874 40.8577 46.0505 40.8577 46.2821C40.2406 46.2647 39.6236 46.2445 39.0066 46.2242C39.0097 46.0274 39.0128 45.6308 39.0159 45.431Z" fill="#C8C8C8"/>
<path d="M41.7009 45.3674C42.3273 45.3761 42.9505 45.3847 43.5768 45.3963C43.5768 45.6105 43.5768 46.0332 43.5768 46.2445C42.9505 46.2561 42.3273 46.2647 41.7009 46.2734C41.7009 46.0476 41.7009 45.5961 41.7009 45.3674Z" fill="#C8C8C8"/>
<path d="M44.2341 45.3992C44.8574 45.3847 45.4837 45.3761 46.11 45.3674C46.11 45.5961 46.1069 46.0476 46.1069 46.2734C45.4837 46.2647 44.8605 46.2561 44.2372 46.2474C44.2341 46.0332 44.2341 45.6105 44.2341 45.3992Z" fill="#C8C8C8"/>
<path d="M46.9504 45.3558C47.5644 45.3789 48.1814 45.4021 48.7984 45.431C48.7984 45.6279 48.8015 46.0245 48.8015 46.2242C48.1876 46.2445 47.5706 46.2647 46.9535 46.285C46.9535 46.0534 46.9504 45.5902 46.9504 45.3558Z" fill="#C8C8C8"/>
<path d="M72.4994 45.431C73.1164 45.4021 73.7303 45.3789 74.3473 45.3558C74.3473 45.5874 74.3442 46.0534 74.3411 46.285C73.7241 46.2647 73.1102 46.2445 72.4932 46.2213C72.4963 46.0245 72.4994 45.6279 72.4994 45.431Z" fill="#C8C8C8"/>
<path d="M75.1877 45.3674C75.811 45.3761 76.4373 45.3876 77.0636 45.3992C77.0636 45.6105 77.0636 46.0332 77.0636 46.2445C76.4373 46.2561 75.8141 46.2647 75.1908 46.2734C75.1908 46.0476 75.1877 45.5932 75.1877 45.3674Z" fill="#C8C8C8"/>
<path d="M77.7209 45.3992C78.3473 45.3847 78.9705 45.3761 79.5968 45.3674C79.5968 45.5932 79.5968 46.0476 79.5968 46.2734C78.9705 46.2647 78.3442 46.2561 77.7209 46.2445C77.7209 46.0332 77.7209 45.6105 77.7209 45.3992Z" fill="#C8C8C8"/>
<path d="M80.437 45.3558C81.0509 45.3789 81.668 45.4021 82.2819 45.431C82.285 45.6308 82.2881 46.0245 82.2912 46.2242C81.6742 46.2445 81.0571 46.2618 80.4401 46.2821C80.4401 46.0505 80.437 45.5874 80.437 45.3558Z" fill="#C8C8C8"/>
<path d="M30.0521 11.3484C30.7001 10.755 31.7388 10.4858 32.5946 10.8245C33.2426 11.0532 33.6643 11.5945 34.1387 12.0403C33.9496 12.1532 33.5682 12.3819 33.379 12.4977C32.7589 12.0953 32.0737 11.4584 31.2489 11.7421C30.0831 12.2632 29.9994 13.6498 29.9529 14.7005C29.9498 21.4713 29.956 28.2421 29.9529 35.0129C29.9374 36.3705 29.2924 38.0582 27.7111 38.394C26.5577 38.7211 25.5996 37.8845 24.8027 37.2361C25.0415 37.0219 25.2802 36.8076 25.5252 36.5992C26.1577 37.0392 26.8677 37.5863 27.7173 37.3461C28.9266 36.8771 28.9452 35.4645 29.0196 34.4311C29.0289 27.6603 29.0196 20.8895 29.0227 14.1187C29.0196 13.1229 29.3234 12.0953 30.0521 11.3484Z" fill="white"/>
<path d="M62.5092 14.1187C62.4906 12.7495 63.148 11.0445 64.7541 10.7376C65.9385 10.4048 66.9307 11.2558 67.6191 12.0403C67.433 12.1532 67.0547 12.3848 66.8656 12.4976C66.2052 12.0374 65.337 11.3311 64.4936 11.8637C63.5479 12.4976 63.489 13.7105 63.4394 14.7005C63.4363 21.4713 63.4425 28.245 63.4394 35.0158C63.4208 36.3705 62.779 38.0582 61.1977 38.394C60.0257 38.7008 58.9466 37.9076 58.2893 37.0826C58.4815 36.9669 58.866 36.7411 59.0583 36.6253C59.6722 37.0682 60.376 37.5776 61.207 37.3461C62.4131 36.8771 62.4317 35.4645 62.5061 34.4311C62.5154 27.6603 62.5061 20.8895 62.5092 14.1187Z" fill="white"/>
<path d="M113.787 18.5158C114.215 18.5071 114.64 18.51 115.068 18.5245C115.028 18.7011 114.944 19.0513 114.9 19.2279C114.435 22.4787 113.732 25.6948 113.164 28.9311C112.668 28.9224 112.153 28.8934 111.834 28.494L111.732 28.41L111.605 28.4911C110.857 29.0469 109.791 29.1366 108.919 28.8124C108.891 28.7979 108.833 28.769 108.805 28.7545C108.457 28.5461 108.169 28.2798 107.943 27.9584C107.93 27.9353 107.899 27.889 107.884 27.8658C106.919 25.8742 107.518 23.1619 109.446 21.8505C109.471 21.8361 109.524 21.8071 109.549 21.7927C110.535 21.2803 111.825 21.3324 112.702 22.0184C113.133 22.4527 113.425 21.839 113.338 21.4713C113.372 21.0458 113.434 20.6232 113.527 20.2063C113.701 19.9603 113.769 19.6911 113.732 19.4016C113.747 19.1787 113.775 18.7387 113.787 18.5158ZM109.375 23.4542C108.65 24.6671 108.29 26.3287 109.127 27.5677C109.146 27.585 109.18 27.6227 109.198 27.6429C110.299 28.5924 112.355 27.6719 112.423 26.32C112.615 25.3445 112.773 24.3603 112.963 23.3819C112.218 22.1024 110.091 22.2095 109.375 23.4542Z" fill="white"/>
<path d="M143.556 18.5158C143.981 18.5071 144.406 18.51 144.834 18.5245C144.79 18.7011 144.71 19.0513 144.666 19.2279C144.44 21.124 144.021 22.9969 143.665 24.8727C143.513 25.1303 143.463 25.4024 143.516 25.689C143.386 26.7571 143.122 27.805 142.942 28.8645C142.75 28.8934 142.363 28.9484 142.17 28.9745C142.056 28.824 141.823 28.52 141.705 28.3695C140.822 28.8963 139.696 29.2321 138.685 28.8124C138.657 28.7979 138.598 28.769 138.571 28.7545C138.22 28.5461 137.935 28.2827 137.712 27.9584C137.696 27.9353 137.665 27.889 137.65 27.8658C136.685 25.8742 137.284 23.1561 139.219 21.8505C139.24 21.8361 139.29 21.81 139.312 21.7955C140.295 21.2774 141.591 21.3324 142.468 22.0184C142.899 22.4527 143.19 21.839 143.104 21.4713C143.138 21.0458 143.2 20.6261 143.293 20.2063C143.466 19.9632 143.535 19.694 143.497 19.4016C143.513 19.1816 143.541 18.7387 143.556 18.5158ZM139.141 23.4513C138.412 24.6671 138.059 26.3258 138.89 27.5677C138.909 27.585 138.946 27.6227 138.964 27.6429C139.888 28.4505 141.38 27.8977 141.997 27.0177C142.36 25.8308 142.468 24.5919 142.728 23.3819C141.987 22.1024 139.857 22.2095 139.141 23.4513Z" fill="white"/>
<rect x="175" y="15" width="2" height="20" rx="1" fill="#6786F9"/>
</svg>
