<svg width="32" height="32" viewBox="0 0 32 32" fill="none" xmlns="http://www.w3.org/2000/svg">
<path fill-rule="evenodd" clip-rule="evenodd" d="M3.55563 13.7912C3.55563 8.08683 8.33947 3.4478 14.2219 3.4478C20.1044 3.4478 24.8882 8.08683 24.8882 13.7912C24.8882 19.4956 20.1044 24.1347 14.2219 24.1347C8.33947 24.1347 3.55563 19.4956 3.55563 13.7912ZM31.4787 28.0876L25.4432 22.2332C27.3152 19.899 28.444 16.9736 28.444 13.7912C28.444 6.1871 22.0637 0 14.222 0C6.38036 0 0 6.1871 0 13.7912C0 21.3954 6.38036 27.5825 14.222 27.5825C17.5038 27.5825 20.5206 26.4878 22.9277 24.6725L28.9649 30.5252C29.3116 30.8614 29.7667 31.0303 30.2218 31.0303C30.6769 31.0303 31.132 30.8614 31.4787 30.5252C32.1738 29.8512 32.1738 28.7616 31.4787 28.0876Z" fill="white"/>
</svg>
