<svg width="37" height="40" viewBox="0 0 37 40" fill="none" xmlns="http://www.w3.org/2000/svg">
<path d="M23.3944 18.0434C21.7876 18.3442 21.1851 19.5475 21.1851 20.5C21.1851 21.7033 22.1391 22.1044 22.8421 22.1044C24.3484 22.1044 25.4029 20.8008 25.4029 19.4472C25.4029 17.3415 22.9927 16.3889 20.8838 16.3889C17.8209 16.3889 16.1137 19.397 15.6618 20.3496C14.5069 16.5895 11.3938 16.3889 10.49 16.3889C5.36841 16.3889 2.65698 22.9567 2.65698 24.0596C2.65698 24.2602 2.85783 24.5109 3.20931 24.5109C3.611 24.5109 3.71143 24.2101 3.81185 24.0095C5.51905 18.4445 8.88323 17.3916 10.3394 17.3916C12.5989 17.3916 13.0508 19.4973 13.0508 20.7006C13.0508 21.8035 12.7495 22.9567 12.147 25.3632L10.4398 32.2317C9.68662 35.2399 8.23048 37.9973 5.56926 37.9973C5.3182 37.9973 4.06291 37.9973 3.00846 37.3456C4.81608 36.9946 5.21778 35.4905 5.21778 34.8889C5.21778 33.8862 4.4646 33.2846 3.51058 33.2846C2.3055 33.2846 1 34.3374 1 35.9418C1 38.0474 3.35995 39 5.51905 39C7.92921 39 9.63641 37.0949 10.6909 35.0393C11.4942 37.9973 14.0048 39 15.8627 39C20.9842 39 23.6957 32.4323 23.6957 31.3293C23.6957 31.0786 23.4948 30.8781 23.1936 30.8781C22.7417 30.8781 22.6914 31.1287 22.5408 31.5298C21.1851 35.9418 18.2728 37.9973 16.0133 37.9973C14.2559 37.9973 13.3019 36.6938 13.3019 34.6382C13.3019 33.5353 13.5027 32.7331 14.3061 29.4241L16.0635 22.6057C16.8167 19.5976 18.5239 17.3916 20.8336 17.3916C20.934 17.3916 22.34 17.3916 23.3944 18.0434Z" fill="white" stroke="white" stroke-width="0.7"/>
<path d="M32.3208 8.62556C32.6226 8.37744 33.4151 7.83158 33.717 7.6C34.8868 6.65714 36 5.74737 36 4.24211C36 2.27369 34.1132 1 31.7547 1C29.4906 1 28 2.50526 28 3.97745C28 4.78797 28.7358 4.90376 29 4.90376C29.3962 4.90376 29.9811 4.65564 29.9811 4.02707C29.9811 3.16692 29.0377 3.16692 28.8113 3.16692C29.3585 1.9594 30.6226 1.54587 31.5472 1.54587C33.3019 1.54587 34.2075 2.85263 34.2075 4.24211C34.2075 5.96241 32.8302 7.21955 30.6038 9.22105L28.2264 11.3714C28 11.5534 28 11.5865 28 12H35.4528L36 9.0391H35.4151C35.3585 9.36992 35.2075 10.197 34.9811 10.5113C34.8679 10.6436 33.434 10.6436 33.1321 10.6436H29.7736L32.3208 8.62556Z" fill="white" stroke="white" stroke-width="0.7"/>
</svg>
